<?xml version="1.0" encoding="utf-8"?>
<!-- Generator: Adobe Illustrator 16.0.0, SVG Export Plug-In . SVG Version: 6.00 Build 0)  -->
<!DOCTYPE svg PUBLIC "-//W3C//DTD SVG 1.1//EN" "http://www.w3.org/Graphics/SVG/1.1/DTD/svg11.dtd">
<svg version="1.1" id="Layer_1" xmlns="http://www.w3.org/2000/svg" xmlns:xlink="http://www.w3.org/1999/xlink" x="0px" y="0px"
	 width="841.89px" height="1190.55px" viewBox="0 0 841.89 1190.55" enable-background="new 0 0 841.89 1190.55"
	 xml:space="preserve">
<path fill-rule="evenodd" clip-rule="evenodd" fill="#FFFFFF" d="M776.592,561.259c0.647-1.634,1.482-3.192,2.509-4.712
	c3.154-4.636,7.714-7.6,13.415-7.6c4.143,0,8.133,1.672,11.668,3.799c5.854,3.611,9.5,8.589,9.5,15.392
	c0,3.535-1.368,6.461-2.813,9.577c2.851,1.938,5.056,4.636,5.056,8.399c0,4.788-2.129,8.893-5.739,12.047
	c-4.104,3.573-9.235,4.941-14.592,4.979c-2.929,0.075-5.817-0.571-8.514-1.597c-3.46-1.292-8.666-3.193-11.896-6.233
	c-4.182,5.662-10.071,8.816-17.217,8.816c-5.928,0-11.287-1.862-15.315-6.005c-0.531,0.799-1.142,1.483-1.862,2.092
	c-2.015,1.71-4.445,2.622-7.068,2.622c-1.217,0-2.433-0.191-3.574-0.646c-2.582-0.988-4.37-2.851-5.624-5.169
	c-1.481,1.254-3.269,2.243-5.168,3.042c-3.952,1.596-8.095,2.432-12.352,2.432c-5.7,0-10.147-1.597-13.376-4.333
	c-1.444,3.383-5.132,5.055-9.123,5.055c-2.508,0-4.711-0.685-6.497-1.978c-1.521,0.458-3.117,0.724-4.752,0.724
	c-2.888,0-5.7-0.761-8.361-1.862c-1.291-0.57-2.545-1.216-3.723-2.015c-2.66,4.37-5.131,6.5-10.718,6.5
	c-3.535,0-6.423-1.94-8.627-4.561l-1.482-1.825c-0.646,0.912-1.482,1.71-2.471,2.356c-1.823,1.254-3.838,2.052-6.08,2.052
	c-3.382,0-6.346-1.482-8.551-4.065c-0.722-0.837-1.292-1.712-1.749-2.66c-2.849,2.583-5.814,4.978-9.539,6.08
	c-2.433,0.721-4.939,1.179-7.486,1.179c-6.119,0-11.705-1.978-15.81-6.613c-0.837-0.913-1.558-1.9-2.204-2.926
	c-0.267,0.455-0.532,0.875-0.838,1.292c-4.217,5.966-10.185,9.233-17.48,9.233c-6.804,0-12.808-2.393-16.95-7.866
	c-0.455-0.606-0.873-1.178-1.254-1.785c0,5.357-3.951,9.348-9.538,9.348c-7.26,0-11.022-6.231-12.884-12.428
	c-2.471,4.143-5.778,7.413-10.263,7.413c-4.37,0-7.752-2.242-10.337-5.321c-0.531,5.701-5.7,8.21-11.136,8.21
	c-1.177,0-2.393-0.19-3.494-0.608c-7.982-3.003-8.59-14.252-8.59-21.397c0-6.459,0.38-12.997,0.721-19.457
	c0.344-5.663,0.686-11.478,0.724-17.179c-0.913-1.33-1.444-2.888-1.444-4.56c0-1.824,0.418-3.572,1.33-5.129
	c2.774-5.018,8.665-6.12,13.909-6.12c11.173,0,11.136,8.627,12.048,16.608c0.76,6.689,2.395,13.606,4.066,20.142
	c0.19,0.723,0.493,1.939,0.911,3.345c0.344-1.444,0.646-2.889,0.951-4.256c1.102-5.207,2.166-10.452,3.229-15.544
	c1.862-9.805,3.649-20.827,16.646-20.827c6.004,0,15.164,3.04,15.164,10.185c0,4.903-2.774,4.75-3.421,9.197
	c-1.216,9.842-1.938,19.801-2.128,29.72c0.493-5.131,2.09-10.034,4.636-14.633c3.763-6.841,9.539-11.781,17.636-11.781
	c3.191,0,6.308,1.331,9.044,2.964c4.408,2.623,7.601,6.08,9.729,10.108c2.928-6.651,7.791-13.68,15.848-13.68
	c5.664,0,13.531,3.875,17.216,8.397l0.191-18.584c-0.077-0.531-0.152-1.101-0.152-1.634c0-5.776,4.18-9.463,9.843-9.463
	c2.736,0,5.283,1.141,7.524,2.698c2.774,1.977,4.903,4.713,4.903,8.285c0,2.357-0.532,4.941-1.026,7.221
	c-0.267,1.33-0.684,3.155-0.684,4.485c0,0.267,0,0.533,0,0.798c2.546,0.342,5.017,1.065,7.372,2.052
	c2.09,0.875,3.991,2.053,5.625,3.459l-0.038-0.913l2.661-1.938c2.394-1.748,5.13-3.154,8.131-3.154c4.485,0,7.906,2.089,9.541,5.548
	l0.303-0.305c2.396-2.204,5.283-3.724,8.59-3.724c2.812,0,5.396,0.911,7.639,2.623c1.103,0.835,2.014,1.823,2.699,2.964
	c2.735-4.181,6.611-7.488,12.008-7.488c5.397,0,10.3,2.508,14.479,5.738c0.646,0.495,1.292,1.026,1.863,1.56
	c0.075-5.397,0.114-10.832,0.114-16.229c0-0.722-0.152-1.634-0.228-2.356c-0.838-6.688,3.571-12.047,10.603-12.047
	c2.698,0,5.244,0.913,7.448,2.509c2.736,1.976,4.37,4.902,4.37,8.285c0,1.444-0.304,2.85-0.76,4.181
	c-0.19,0.684-0.418,1.52-0.646,2.242c-0.987,4.979-0.949,10.336-0.949,15.429c3.762-5.89,9.196-10.033,16.569-10.033
	c3.231,0,6.348,1.331,9.046,2.964C771.499,554.723,774.502,557.725,776.592,561.259L776.592,561.259z M581.896,473.317
	c1.443-1.064,3.116-1.749,4.939-1.749c2.508,0,4.563,0.989,5.968,2.623c2.052-1.482,4.522-2.242,7.145-2.242
	c4.143,0,7.979,1.331,11.288,3.838c3.799,2.85,6.194,6.841,6.232,11.667l0.228,23.411c0,4.446-3.571,7.259-7.791,7.259
	c-2.66,0-5.017-1.064-6.575-2.964c-1.444,0.342-2.964,0.494-4.522,0.494c-3.383,0-6.574-0.95-9.464-2.661
	c-0.873-0.532-1.709-1.102-2.431-1.748c-1.9,2.509-4.371,4.295-7.677,4.295c-4.522,0-7.791-2.774-10.186-6.271l0.037,0.153
	l-1.026,2.052c-1.215,2.395-3.608,3.952-6.345,3.952c-3.384,0-6.195-1.33-7.906-3.648c-0.531,0.875-1.216,1.672-2.051,2.318
	c-1.521,1.178-3.231,1.938-5.169,1.938c-2.091,0-3.764-0.76-5.094-1.976c-1.253,2.546-3.989,4.066-7.107,4.066
	c-2.658,0-5.016-1.064-6.535-2.964c-1.481,0.342-3.003,0.494-4.561,0.494c-3.346,0-6.537-0.95-9.426-2.661
	c-2.014-1.177-3.687-2.698-4.825-4.522c-0.533,4.181-4.067,6.766-8.324,6.766c-2.773,0-5.055-1.064-6.613-2.851
	c-0.15,0.114-0.303,0.19-0.493,0.304c-3.153,1.9-6.65,3.192-10.375,3.192c-5.739,0-9.769-2.166-12.352-5.7
	c-2.813,3.61-6.803,5.853-11.896,5.853c-0.378,0-0.759-0.038-1.14-0.038c0.077,2.166,0.229,4.408,0.609,6.157
	c0.152,0.304,0.266,0.608,0.38,0.874c0.646,1.368,1.178,2.698,1.178,4.218c0,4.371-3.42,7.373-7.677,7.373
	c-2.166,0-4.295-0.38-6.12-1.71c-2.317-1.748-3.115-4.522-3.608-7.221c-0.266-1.558-0.496-3.229-0.496-4.826v-6.499
	c-2.583,1.825-5.662,2.813-9.158,2.813c-5.549,0-10.299-2.166-13.453-6.612c-3.154,4.18-7.563,6.612-13.035,6.612
	c-5.587,0-10.375-2.205-13.53-6.726c-1.14,1.026-2.394,1.938-3.8,2.736c-3.763,2.167-7.943,3.269-12.313,3.269
	c-7.678,0-13.91-3.344-17.976-9.843c-3.345-5.397-4.561-11.668-4.561-17.938c0-5.549,0.874-11.021,2.584-16.342
	c1.823-5.7,4.75-10.982,9.311-15.011c3.23-2.851,7.107-4.789,11.478-4.789c6.232,0,11.021,3.23,13.834,8.703
	c2.089,4.066,2.888,8.627,2.888,13.188c0,1.482-0.152,3.04-0.38,4.523c2.851-4.599,7.069-8.02,12.92-8.02
	c2.584,0,5.017,1.178,7.146,2.508c2.623,1.634,4.637,3.61,6.195,5.891c2.851-4.789,7.144-8.399,13.11-8.399
	c2.585,0,5.056,1.178,7.183,2.508c0.875,0.57,1.711,1.14,2.471,1.786c0.912-4.18,3.497-7.639,8.476-7.639
	c3.191,0,5.966,1.787,7.03,4.523c5.283-0.912,10.604,1.369,13.759,5.663c2.127-3.534,5.28-6.271,9.842-6.271
	c4.066,0,7.678,1.863,10.756,4.295c0.532-0.836,1.215-1.558,2.128-2.167c1.635-1.026,3.459-1.33,5.319-1.33
	c0.988,0,1.939,0.152,2.813,0.418c1.482-0.836,3.117-1.33,4.903-1.33c2.052,0,4.028,0.608,5.777,1.634
	c0.912,0.57,1.672,1.254,2.394,2.052c2.242-2.052,5.093-3.116,8.246-3.116c5.169,0,10.263,2.242,13.759,6.081c0,0,0,0,0-0.038
	l0.495-6.803c-0.192-0.646-0.268-1.33-0.268-2.052c0-2.433,1.216-4.522,3.156-5.891c1.672-1.178,3.646-1.672,5.546-1.444
	c2.471,0.229,4.562,1.217,6.045,2.851c1.405-2.735,4.18-4.408,7.676-4.408c2.509,0,4.789,0.874,6.651,2.546
	c2.014,1.824,3.078,4.295,3.078,6.993c0,0.684-0.076,1.368-0.19,2.013C578.02,473.583,574.447,478.942,581.896,473.317
	L581.896,473.317z M436.606,561.259c0.646-1.634,1.482-3.192,2.47-4.712c3.192-4.636,7.753-7.6,13.454-7.6
	c4.143,0,8.131,1.672,11.628,3.799c5.892,3.611,9.541,8.589,9.541,15.392c0,1.748-0.267,3.459-0.913,5.056
	c-0.343,0.873-0.684,1.747-1.026,2.622l-0.874,1.899c2.851,1.938,5.054,4.636,5.054,8.399c0,4.788-2.127,8.893-5.737,12.047
	c-4.105,3.573-9.272,4.941-14.594,4.979c-2.927,0.075-5.814-0.571-8.513-1.597c-3.46-1.292-8.665-3.193-11.896-6.233
	c-4.181,5.662-10.072,8.816-17.216,8.816c-6.271,0-11.858-2.051-15.962-6.688l-3.496,1.254c-7.297,2.661-14.936,3.914-22.688,3.914
	c-7.183,0-13.606-2.66-17.292-9.121c-2.774-4.903-3.42-11.211-3.42-16.76c0-5.397,0.418-10.908,0.874-16.303
	c0.38-4.979,0.836-10.224,0.836-15.24c0-0.875-0.114-1.824-0.152-2.66c-0.114-1.254-0.228-2.509-0.228-3.763
	c0-6.347,4.104-10.793,10.832-10.793c4.599,0,7.905,2.964,9.615,7.031c1.026,2.509,1.558,5.13,1.558,7.829
	c0,6.195-0.608,12.656-1.216,18.813c-0.57,5.701-1.14,11.743-1.14,17.52c0,0.835,0.114,3.116,0.495,4.37
	c1.52-0.189,3.724-0.95,4.94-1.406c3.04-1.103,6.65-2.243,9.919-2.243c1.672,0,3.23,0.381,4.636,1.026c0-0.456,0-0.913,0-1.406
	c0-6.498,1.672-12.618,4.827-18.318c3.762-6.841,9.54-11.781,17.596-11.781c3.23,0,6.346,1.331,9.044,2.964
	C431.513,554.723,434.516,557.725,436.606,561.259L436.606,561.259z M62.227,605.687c-3.041-0.457-5.625-2.509-5.93-6.348
	c-0.417-5.13,5.815-13.187,8.742-17.102c1.026-1.368,2.052-2.851,3.04-4.37c-3.572,0.836-7.334,1.292-10.603,1.33
	c-8.057,0.076-6.347-8.095-4.218-13.682c0.228-0.607,0.532-1.216,0.836-1.824c-10.983-1.976-2.813-14.631,1.976-20.332
	c1.786-2.091,4.029-3.687,6.422-4.979c2.09-1.103,4.256-1.9,6.499-2.699c0.836-0.304,2.471-0.835,3.155-1.254
	c2.28-1.672,4.788-4.143,6.878-6.081c4.219-3.838,8.399-7.753,12.542-11.667c3.724-3.497,7.449-7.031,11.097-10.641
	c3.876-3.763,7.791-7.487,11.516-11.363c5.928-6.271,10.792-12.656,15.277-20.029c9.805-16.038,16.494-20.75,32.266-30.441
	c7.981-4.94,12.77-9.121,16.494-17.748c0.685-1.635,1.368-3.269,2.052-4.902c16.228-37.51,30.936-43.401,73.159-39.829
	c10.071,0.836,20.104,3.686,28.541,9.311c14.024,9.311,19.344,22.954,19.079,39.334c-0.039,4.333,0,8.627,0.076,12.921
	c0.075,5.131-1.369,21.245-5.511,27.629c0.76,2.813,1.406,5.586,1.9,8.475c0.646,3.876,0.875,7.904,0.646,11.819
	c-0.076,1.179-0.19,2.356-0.341,3.496c-0.076,0.418-0.19,0.875-0.267,1.331c-0.685,2.66-2.888,4.75-5.701,4.94
	c-0.874,2.09-1.71,3.952-2.356,5.32c-3.155,6.728-8.058,12.504-13.416,17.559c-2.167,2.051-4.409,3.953-6.65,5.852
	c-1.444,1.216-3.003,2.471-4.333,3.801c-1.559,1.558-3.079,3.42-4.523,5.092c-2.47,2.888-5.017,5.739-7.639,8.551
	c-7.069,7.488-14.821,14.403-23.524,20.028c-1.786,1.178-3.61,2.319-5.435,3.421c-9.463,5.663-19.838,11.098-30.1,15.734
	c1.558,3.002,3.231,6.004,4.941,8.779c1.634,2.584,4.826,7.905,8.513,7.562c4.219-0.418,7.334-7.828,13.91-7.562
	c2.545,0.114,4.788,1.064,6.84,2.584c0.798,0.607,1.597,1.406,2.395,1.976c3.838,2.661,6.194,5.929,7.069,10.528
	c0.836,0.075,1.672,0.228,2.508,0.493c0.608,0.189,1.178,0.455,1.71,0.761c2.053,1.178,3.155,2.698,4.637,4.37
	c1.368,1.559,2.774,2.736,4.523,3.838c3.078,1.939,6.499,3.688,6.992,7.488c1.559,2.697,2.09,4.939,3.344,7.791
	c1.634,3.646,6.461,9.575,9.122,12.73l8.589,10.224H100.268l2.471-8.058c1.253-3.99,6.612-8.513,9.995-10.906
	c0.456-0.344,0.836-0.607,1.14-1.065c1.635-2.317,2.736-3.8,4.865-5.738c3.192-2.963,6.879-4.067,10.792-5.587
	c1.635-0.607,3.877-1.52,4.903-3.04c3.269-4.826,2.774-11.895,7.031-15.847c0.913-0.799,1.862-1.483,2.926-1.977
	c-1.026-1.102-1.862-2.396-2.469-3.838c-0.419-0.951-0.685-1.786-0.836-2.623c-0.456-0.19-0.912-0.494-1.33-0.837
	c-0.267-0.038-0.533-0.114-0.798-0.228c-2.433,0.95-4.979,1.103-7.221-1.216c-3.496-0.685-6.499-6.194-8.361-8.779
	c-0.457-0.115-0.913-0.304-1.33-0.57c-0.114-0.038-0.228-0.114-0.342-0.152c-2.851,2.698-6.347,6.804-7.449,8.17
	c-3.876,4.638-8.056,9.273-12.503,13.378c-1.52,1.369-3.116,2.775-4.826,3.953c-2.166,1.521-4.561,2.66-7.297,1.976
	c-0.798-0.189-1.406-0.417-2.015-0.722c-0.456,0.039-0.95,0.039-1.444-0.038c-2.508-0.267-3.838-1.367-5.51-2.621
	c-0.722-0.077-1.482-0.267-2.243-0.533c-0.836-0.266-1.52-0.608-2.204-0.988c-0.646,0-1.33-0.037-2.09-0.113
	c-2.356-0.343-3.724-1.141-5.13-2.509c-1.521,0.114-2.622,0.267-4.522-0.457C63.67,606.636,62.91,606.219,62.227,605.687
	L62.227,605.687z"/>
<path fill="#6DBAA3" d="M257.188,641.106c-0.607-1.14-1.253-2.28-1.976-3.384l0.228-0.531l0.152,0.304
	c0.456,1.065,1.178,2.319,2.052,3.611H257.188z"/>
<path fill="#5BB39A" d="M253.691,641.03c0.532-1.063,1.064-2.166,1.521-3.308c0.722,1.104,1.368,2.244,1.976,3.384
	C256.048,641.03,254.869,641.03,253.691,641.03L253.691,641.03z"/>
<path fill="#5BB39A" d="M261.825,651.672c-1.027-3.079-2.28-6.12-3.801-9.045c0.228,0.037,0.456,0.037,0.684,0.077
	c3.041,4.406,6.878,8.968,6.878,8.968H261.825z M258.176,641.905c-0.19-0.268-0.38-0.532-0.533-0.799h-0.456
	c0.229,0.379,0.418,0.759,0.646,1.139l0,0L258.176,641.905z"/>
<path fill="#4FAC90" d="M249.929,651.672c-0.646-0.455-1.292-0.874-1.938-1.33c2.166-2.889,4.066-6.005,5.7-9.312
	c1.178,0,2.357,0,3.497,0.076c0.229,0.379,0.418,0.759,0.646,1.139c-0.114,0.152-0.228,0.267-0.341,0.382c0.19,0,0.38,0,0.532,0
	c1.521,2.925,2.774,5.966,3.801,9.045H249.929z"/>
<path fill="#44A789" d="M246.965,651.672c0.341-0.419,0.684-0.874,1.026-1.33c0.646,0.456,1.292,0.875,1.938,1.33H246.965z"/>
<path fill="#A7D1CD" d="M68.687,552.67c-2.052-1.71-4.18-3.344-6.346-4.902c0.646-0.913,1.254-1.786,1.899-2.736
	C65.608,547.654,67.09,550.161,68.687,552.67L68.687,552.67z"/>
<path fill="#8CC4BC" d="M90.349,579.69c-0.646-1.216-1.292-2.393-1.977-3.609c1.254,1.141,2.508,2.279,3.839,3.344
	C91.565,579.501,90.957,579.615,90.349,579.69L90.349,579.69z"/>
<path fill="#83C1B6" d="M98.52,603.481c-0.076-0.418-0.151-0.799-0.228-1.217c0.684-0.188,1.368-0.379,2.09-0.606
	C99.736,602.304,99.128,602.913,98.52,603.481L98.52,603.481z"/>
<path fill="#77BAAF" d="M98.292,602.265c-1.597-7.866-4.257-15.467-7.943-22.574c0.608-0.075,1.216-0.189,1.862-0.265
	c5.358,4.484,11.173,8.513,17.406,12.047l-0.152,0.152c-3.268,3.913-6.385,7.335-9.083,10.033
	C99.66,601.886,98.976,602.076,98.292,602.265L98.292,602.265z"/>
<path fill="#9CCDCD" d="M81.646,566.124c-3.8-4.865-8.171-9.388-12.96-13.454c-1.596-2.509-3.079-5.016-4.447-7.638l0.608-0.836
	c3.534-1.977,7.677-2.964,10.034-4.181c7.183,7.753,15.581,14.519,25.006,20.066C93.542,561.448,87.423,563.502,81.646,566.124
	L81.646,566.124z"/>
<path fill="#90CAC6" d="M135.574,583.112c-0.342-0.114-0.722-0.229-1.103-0.343c1.026-0.912,2.015-1.824,3.003-2.813
	C136.828,580.983,136.183,582.047,135.574,583.112L135.574,583.112z"/>
<path fill="#83C1BC" d="M92.211,579.425c-1.331-1.065-2.584-2.204-3.839-3.344c-1.938-3.307-4.066-6.5-6.422-9.54l0.038-0.076
	l-0.077,0.038l-0.265-0.38c5.776-2.622,11.895-4.676,18.242-6.044c9.653,5.663,20.37,9.996,31.962,12.694
	c3.154,0.723,6.346,1.33,9.5,1.787c-1.368,1.748-2.66,3.534-3.875,5.396c-0.989,0.988-1.977,1.901-3.003,2.813
	c-1.976-0.608-4.028-1.139-6.081-1.634c-1.292-0.304-2.622-0.569-3.915-0.797c0.115-0.039,0.229-0.076,0.38-0.152
	c1.026-0.267,1.862-0.57,1.862-0.57s-0.304-0.722-2.47-0.722c-0.722,0-1.596,0.228-2.774,0.911
	C111.555,578.209,101.712,578.133,92.211,579.425L92.211,579.425z"/>
<path fill="#7BBFB6" d="M130.406,586.152c1.406-1.103,2.737-2.205,4.066-3.383c0.38,0.114,0.76,0.229,1.103,0.343
	c-0.76,1.406-1.52,2.85-2.204,4.332c-0.19-0.647-0.57-1.178-1.026-1.368C131.545,585.734,130.786,586,130.406,586.152
	L130.406,586.152z"/>
<path fill="#6EB8AF" d="M109.617,591.473c-6.232-3.535-12.047-7.563-17.406-12.047c9.501-1.292,19.344-1.216,29.263,0.379
	C119.081,581.173,115.508,584.404,109.617,591.473L109.617,591.473z M124.477,580.338c1.292,0.228,2.623,0.493,3.915,0.797
	c2.052,0.495,4.105,1.026,6.081,1.634c-1.329,1.178-2.66,2.281-4.066,3.383c-0.152,0.076-0.229,0.114-0.229,0.114
	s0.418-2.129-0.798-2.205c-1.178-0.114-1.672-0.229-1.406-0.38c0.229-0.152,2.242-1.216-0.342-1.216
	c-2.547,0-2.888-0.379-2.622-0.494c0.265-0.076,2.584-0.798,0.95-0.988C124.553,580.793,123.983,580.565,124.477,580.338
	L124.477,580.338z"/>
<path fill="#A1DBED" d="M287.477,494.941c0.076-5.928-0.342-11.743-1.216-17.52c1.368-0.722,2.698-1.482,4.028-2.28
	c0.342,1.444,0.722,3.154,1.102,5.32c1.368,8.019,0.115,14.898,0,14.29c-0.151-0.646-2.318-7.411-2.318-7.411
	S289.416,489.279,287.477,494.941L287.477,494.941z"/>
<path fill="#97D8ED" d="M266.309,524.205c-1.824-3.914-4.18-7.601-7.068-10.907c2.926-6.156,5.283-12.655,6.993-19.496
	c0.722-2.889,1.331-5.739,1.787-8.627c6.346-2.015,12.465-4.636,18.242-7.753c0.874,5.777,1.292,11.592,1.216,17.52
	c-0.798,2.28-1.938,5.13-3.61,8.703C279.687,512.538,272.01,519.378,266.309,524.205L266.309,524.205z"/>
<path fill="#87C6B6" d="M128.049,646.16c-2.128-2.697-4.408-5.281-6.84-7.751c0.455-0.495,1.026-1.066,1.748-1.713
	c2.053-1.898,4.902-2.889,7.791-3.951c1.634,4.865,3.838,9.5,6.575,13.834c-0.038,0.036-0.038,0.076-0.076,0.113
	c-2.167-1.024-3.99-1.787-5.396-2.09c-1.064-0.266-1.863-0.266-2.319,0.114C129.151,645.021,128.657,645.516,128.049,646.16
	L128.049,646.16z"/>
<path fill="#74BCAA" d="M137.475,646.807c-0.076-0.039-0.153-0.076-0.229-0.114c0.038-0.037,0.038-0.077,0.076-0.113
	C137.36,646.655,137.437,646.73,137.475,646.807L137.475,646.807z"/>
<path fill="#3BA183" d="M217.511,651.672c1.064-0.646,2.128-1.294,3.193-1.9c0.607,0.646,1.216,1.293,1.824,1.9H217.511z"/>
<path fill="#6DBAA3" d="M241.074,619.216c-1.482-0.267-3.002-0.456-4.523-0.607c-0.456-0.306-0.912-0.609-1.368-0.913
	c0.229-0.418,0.495-0.837,0.722-1.292c0.836-0.076,1.558,0,2.205,0.189C239.25,617.012,240.01,617.923,241.074,619.216
	L241.074,619.216z"/>
<path fill="#5BB39A" d="M234.727,618.494c0.152-0.267,0.304-0.532,0.456-0.799c0.456,0.304,0.913,0.607,1.368,0.913
	C235.943,618.569,235.335,618.494,234.727,618.494L234.727,618.494z"/>
<path fill="#5BB39A" d="M255.212,637.723c-4.713-7.447-11.06-14.023-18.661-19.114c1.521,0.151,3.041,0.341,4.523,0.607
	c1.292,1.482,3.04,3.497,6.537,5.7c6.461,4.105,2.888,2.053,4.75,5.093c1.824,3.004,1.064,2.584,3.078,7.183L255.212,637.723z"/>
<path fill="#4FAC90" d="M224.125,633.277c3.914-4.599,7.486-9.54,10.603-14.783c0.608,0,1.216,0.075,1.824,0.114
	c7.601,5.091,13.948,11.667,18.661,19.114c-0.457,1.142-0.989,2.244-1.521,3.308c-5.244,0.036-10.413,0.683-15.429,1.861
	c-0.989,0.228-1.938,0.456-2.851,0.724c-5.549-2.167-11.439-3.573-17.521-4.295C221.35,636.013,224.125,633.277,224.125,633.277
	L224.125,633.277z"/>
<path fill="#3BA183" d="M220.704,649.771c-0.115-0.152-0.229-0.305-0.38-0.42c-0.685-0.684-1.368-1.405-2.014-2.126
	c2.014,0.188,3.99,0.416,5.815,0.721c-0.951,0.494-1.444,0.799-1.444,0.799l-0.152,0.039
	C221.92,649.087,221.312,649.428,220.704,649.771L220.704,649.771z"/>
<path fill="#44A789" d="M247.991,650.342c-3.002-1.977-6.157-3.763-9.501-5.32c0.038,0,0.114,0,0.19-0.04
	c-0.912-0.417-1.862-0.796-2.813-1.139c-0.189-0.077-0.379-0.152-0.569-0.191c0.95-0.265,1.938-0.532,2.964-0.76
	c5.016-1.179,10.185-1.825,15.429-1.861C252.057,644.337,250.157,647.453,247.991,650.342L247.991,650.342z"/>
<path fill="#339C7E" d="M222.528,651.672c-0.608-0.607-1.217-1.254-1.824-1.9c0.987-0.571,2.394-1.292,3.42-1.825
	c0.874,0.151,1.899,0.458,3.23,0.762c3.458,0.796,6.803,1.785,10.033,2.964H222.528z"/>
<path fill="#3DA385" d="M224.922,648.174L224.922,648.174L224.922,648.174L224.922,648.174z M203.678,651.672
	c0.836-0.57,1.672-1.179,2.508-1.786c0.988-0.722,2.28-1.864,3.762-3.155c2.546,0.076,5.474,0.229,8.361,0.495
	c0.646,0.721,1.33,1.442,2.014,2.126c0.152,0.115,0.266,0.268,0.38,0.42c-1.065,0.606-2.128,1.254-3.193,1.9h-5.815l0,0h-3.458l0,0
	h-0.228H203.678z M215.915,650.493c1.33-0.343,2.623-0.683,3.877-1.026C218.538,649.811,217.245,650.15,215.915,650.493
	L215.915,650.493z"/>
<path fill="#54AE95" d="M207.402,630.275c-0.19-1.179-0.418-2.319-0.646-3.46c0.457,1.217,0.913,2.434,1.444,3.612
	c0,0,1.407,3.763,4.181,8.437c-1.634-0.115-3.23-0.151-4.827-0.151C208.048,633.771,207.402,630.275,207.402,630.275
	L207.402,630.275z"/>
<path fill="#87C6B6" d="M200.029,607.169c-0.228-0.457-0.456-0.912-0.684-1.368c0.608,0.493,1.216,0.986,1.823,1.368
	C200.79,607.169,200.409,607.169,200.029,607.169L200.029,607.169z"/>
<path fill="#74BCAA" d="M203.792,616.099c-1.102-3.039-2.318-6.042-3.763-8.93c0.38,0,0.76,0,1.14,0
	c0.532,0.342,1.027,0.607,1.559,0.873C202.917,610.741,203.26,613.439,203.792,616.099L203.792,616.099z"/>
<path fill="#74BCAA" d="M226.632,604.585c-1.824,3.153-1.824,5.32,0.608,5.89c0.038,0,0.038,0,0.076,0
	c-1.634,0.267-3.23,0.569-4.827,0.951c-2.698-0.989-5.472-1.825-8.323-2.509c-1.178-0.267-2.395-0.495-3.572-0.724
	c4.827-1.899,7.943-6.955,10.337-6.839C223.592,601.469,225.112,603.406,226.632,604.585L226.632,604.585z"/>
<path fill="#62B59E" d="M204.589,618.494c-0.265-0.799-0.531-1.598-0.797-2.396c-0.532-2.659-0.875-5.357-1.064-8.057
	c1.597,0.685,3.306,1.027,5.207,0.799c0.95-0.076,1.824-0.304,2.66-0.647c1.178,0.229,2.394,0.457,3.572,0.724
	c2.851,0.684,5.625,1.52,8.323,2.509C216.143,612.907,210.101,615.3,204.589,618.494L204.589,618.494z"/>
<path fill="#62B59E" d="M235.183,617.695c-0.494-0.304-0.988-0.607-1.482-0.912c0.798-0.19,1.521-0.305,2.205-0.38
	C235.678,616.858,235.412,617.277,235.183,617.695L235.183,617.695z M231.155,615.339c-0.646-0.342-1.292-0.685-1.977-1.025
	c-0.152-1.292-0.646-2.736-1.064-3.725c0.684,0.038,1.483,0,2.433-0.114c0.19-0.038,0.418-0.076,0.646-0.076
	c0.152,0.418,0.228,0.875,0.304,1.406C231.725,613.021,231.497,614.238,231.155,615.339L231.155,615.339z M225.53,612.641
	c-0.988-0.418-2.014-0.836-3.041-1.215c1.596-0.382,3.193-0.685,4.827-0.951l0.076,0.038c-0.152,0.417-0.417,0.95-0.988,1.521
	C226.139,612.374,225.834,612.526,225.53,612.641L225.53,612.641z"/>
<path fill="#54AE95" d="M206.263,624.65c-0.495-2.091-1.065-4.143-1.673-6.156c5.511-3.194,11.553-5.587,17.9-7.068
	c1.026,0.379,2.052,0.797,3.041,1.215c-1.102,0.342-2.395-0.57-4.599,0.039c-1.938,0.532-2.774,2.85-3.99,4.065
	c1.786,0.837,3.914,2.091,6.575,2.242C217.435,619.9,211.583,621.838,206.263,624.65L206.263,624.65z M229.179,614.313
	c0.684,0.341,1.331,0.684,1.977,1.025c-0.305,0.912-0.722,1.749-1.103,2.433c1.33-0.38,2.546-0.722,3.648-0.988
	c0.495,0.305,0.989,0.608,1.482,0.912c-0.152,0.267-0.304,0.532-0.456,0.799c-2.622-0.153-5.244-0.113-7.828,0.114
	c0.722-0.19,1.406-0.344,2.052-0.533c0.189-0.987,0.342-2.242,0.266-3.344C229.217,614.579,229.217,614.466,229.179,614.313
	L229.179,614.313z"/>
<path fill="#48A88E" d="M208.2,630.428c-0.531-1.179-0.987-2.396-1.444-3.612c-0.152-0.721-0.303-1.444-0.493-2.165
	c5.32-2.813,11.172-4.75,17.253-5.663c0.836,0.039,1.71,0,2.661-0.228c0.228-0.038,0.493-0.113,0.722-0.151
	c2.584-0.228,5.206-0.268,7.828-0.114c-3.116,5.243-6.688,10.185-10.603,14.783c0,0-2.774,2.735-6.233,6.043
	c-1.824-0.228-3.686-0.38-5.51-0.456C209.606,634.19,208.2,630.428,208.2,630.428L208.2,630.428z"/>
<path fill="#A1D3C6" d="M178.139,609.905c-0.911-0.988-1.862-1.977-2.812-2.928c1.748-0.076,3.458-0.19,5.168-0.342
	C179.697,607.7,178.899,608.803,178.139,609.905L178.139,609.905z"/>
<path fill="#87C6B6" d="M178.367,610.171c-0.076-0.076-0.152-0.152-0.229-0.266c0.761-1.103,1.558-2.205,2.356-3.27
	c1.444-0.151,2.888-0.304,4.333-0.494c-0.19,0.836-0.379,1.672-0.569,2.509C182.281,609.069,180.305,609.601,178.367,610.171
	L178.367,610.171z"/>
<path fill="#74BCAA" d="M183.08,615.758c-1.482-1.9-3.04-3.763-4.712-5.587c1.938-0.57,3.914-1.102,5.891-1.521
	C183.764,611.007,183.346,613.4,183.08,615.758L183.08,615.758z"/>
<path fill="#74BCAA" d="M184.258,608.65c0.19-0.837,0.379-1.673,0.569-2.509c4.294-0.532,8.513-1.292,12.656-2.28
	c0.608,0.724,1.216,1.331,1.862,1.939c0.228,0.456,0.456,0.911,0.684,1.368C194.67,607.017,189.388,607.548,184.258,608.65
	L184.258,608.65z"/>
<path fill="#62B59E" d="M191.289,628.185c-2.395-4.333-5.131-8.476-8.209-12.427c0.266-2.357,0.684-4.751,1.179-7.107
	c5.13-1.103,10.412-1.634,15.771-1.481c1.444,2.888,2.661,5.891,3.763,8.93c0.151,0.836,0.342,1.711,0.532,2.548
	c-4.522,2.582-8.703,5.738-12.428,9.31c0,0-0.19,0.19-0.456,0.495L191.289,628.185L191.289,628.185z"/>
<path fill="#54AE95" d="M191.896,627.956c3.725-3.571,7.905-6.728,12.428-9.31c0.455,2.052,1.026,4.104,1.709,6.117
	c-1.862,0.989-3.686,2.091-5.396,3.306c-2.433,1.751-4.751,3.84-6.651,5.777c-1.292-2.852-2.394-5.092-2.546-5.396L191.896,627.956z
	"/>
<path fill="#48A88E" d="M200.638,628.069c1.71-1.215,3.534-2.316,5.396-3.306c0.229,0.685,0.457,1.368,0.722,2.052
	c0.229,1.141,0.457,2.281,0.646,3.46c0,0,0.646,3.496,0.151,8.438c-3.724,0-7.486,0.188-11.172,0.607
	c-0.76-1.825-1.635-3.763-2.395-5.474C195.887,631.909,198.205,629.82,200.638,628.069L200.638,628.069z"/>
<path fill="#369E80" d="M199.003,646.883c-0.266-0.875-0.532-1.749-0.798-2.585c-0.38-1.367-1.064-3.116-1.824-4.978
	c18.203-2.014,37.282,0.76,51.609,11.021c-0.342,0.456-0.685,0.911-1.026,1.33h-9.578c-3.23-1.179-6.575-2.168-10.033-2.964
	C219.222,646.959,208.162,646.312,199.003,646.883L199.003,646.883z M198.319,644.337c0.342,0.188,0.646,0.38,0.988,0.568
	C198.965,644.717,198.661,644.525,198.319,644.337L198.319,644.337z"/>
<path fill="#54AE95" d="M235.678,643.69c4.37,1.75,8.513,3.951,12.313,6.651c-0.342,0.456-0.685,0.911-1.026,1.33h-9.578
	c-3.23-1.179-6.575-2.168-10.033-2.964c-1.102-0.229-2.28-0.456-3.459-0.647l0,0c0.039-0.151,8.058-3.419,11.402-4.409
	L235.678,643.69z"/>
<path fill="#3DA385" d="M200.219,651.672c-0.342-1.598-0.76-3.192-1.216-4.789c0.989-0.076,2.015-0.19,3.003-0.228
	c0,0,3.381-0.076,7.942,0.075c-1.482,1.291-2.774,2.434-3.762,3.155c-0.836,0.607-1.672,1.216-2.508,1.786H200.219z"/>
<path fill="#54AE95" d="M204.324,618.646c-0.19-0.837-0.381-1.712-0.532-2.548c0.266,0.798,0.532,1.597,0.797,2.396
	C204.476,618.531,204.4,618.569,204.324,618.646L204.324,618.646z"/>
<path fill="#48A88E" d="M206.034,624.764c-0.684-2.013-1.254-4.065-1.709-6.117c0.076-0.077,0.151-0.115,0.265-0.152
	c0.608,2.014,1.179,4.065,1.673,6.156L206.034,624.764z"/>
<path fill="#3DA385" d="M206.756,626.815c-0.266-0.684-0.493-1.367-0.722-2.052l0.229-0.113
	C206.453,625.371,206.604,626.095,206.756,626.815L206.756,626.815z"/>
<path fill="#87C6B6" d="M147.014,611.31c0.76-0.189,1.52-0.38,2.242-0.568c1.14-0.19,2.432-0.305,4.066-1.217
	c0.494-0.152,0.987-0.305,1.52-0.494c1.254-0.189,2.889-0.113,4.712,0.039c-0.456-0.38-0.988-0.724-1.596-1.104
	c0.988-0.38,1.976-0.76,2.965-1.141c4.826,0.344,9.652,0.381,14.403,0.152c0.95,0.951,1.901,1.939,2.812,2.928
	c-0.114,0.151-0.19,0.304-0.304,0.456c-13.187,4.18-24.778,12.273-33.025,23.219c-1.141-0.303-2.281-0.607-3.459-0.911
	c-2.432-0.532-4.864-0.987-7.296-1.254c2.166-1.026,4.142-2.318,5.549-4.408c3.914-5.778,3.724-12.58,6.118-14.784
	C146.178,611.805,146.595,611.54,147.014,611.31L147.014,611.31z"/>
<path fill="#74BCAA" d="M164.989,643.196c-5.966-4.18-12.731-7.487-20.18-9.616c8.247-10.945,19.838-19.039,33.025-23.219
	c-5.13,7.601-9.006,16.188-11.363,25.538C165.864,638.333,165.37,640.763,164.989,643.196L164.989,643.196z"/>
<path fill="#74BCAA" d="M177.834,610.361c0.114-0.152,0.19-0.305,0.304-0.456c0.076,0.113,0.152,0.189,0.229,0.266
	C178.215,610.247,178.025,610.284,177.834,610.361L177.834,610.361z"/>
<path fill="#62B59E" d="M170.767,647.794c-1.825-1.634-3.763-3.152-5.777-4.598c0.38-2.434,0.875-4.863,1.482-7.297
	c2.357-9.35,6.233-17.938,11.363-25.538c0.19-0.077,0.38-0.114,0.533-0.19c1.672,1.824,3.23,3.687,4.712,5.587
	c-0.836,7.373-0.57,14.67,0.684,21.737c-1.292,1.861-2.471,3.763-3.534,5.776C176.96,644.525,173.769,646.048,170.767,647.794
	L170.767,647.794z"/>
<path fill="#54AE95" d="M180.229,643.271c1.063-2.014,2.242-3.915,3.534-5.776c0.266,1.406,0.532,2.813,0.874,4.182
	C183.156,642.17,181.674,642.704,180.229,643.271L180.229,643.271z"/>
<path fill="#54AE95" d="M174.794,651.672c-1.292-1.33-2.622-2.624-4.028-3.878c3.002-1.746,6.194-3.269,9.463-4.522
	c-1.482,2.661-2.737,5.474-3.763,8.4H174.794z"/>
<path fill="#48A88E" d="M176.467,651.672c1.026-2.927,2.28-5.739,3.763-8.4c1.444-0.567,2.926-1.102,4.408-1.595
	c0.228,0.95,0.494,1.938,0.76,2.888c-1.064,1.786-2.015,3.688-2.813,5.626c-1.52,0.455-3.002,0.949-4.446,1.481H176.467z"/>
<path fill="#3DA385" d="M182.585,650.19c0.798-1.938,1.749-3.84,2.813-5.626c0.418,1.483,0.874,3.002,1.406,4.447
	C185.359,649.392,183.954,649.771,182.585,650.19L182.585,650.19z"/>
<path fill="#3DA385" d="M178.139,651.672c1.444-0.532,2.927-1.026,4.446-1.481c-0.228,0.492-0.417,0.986-0.608,1.481H178.139z"/>
<path fill="#369E80" d="M181.977,651.672c0.19-0.495,0.38-0.989,0.608-1.481c1.369-0.419,2.774-0.799,4.219-1.179
	c0.304,0.911,0.608,1.786,0.989,2.66H181.977z"/>
<path fill="#54AE95" d="M183.764,637.495c-1.254-7.067-1.52-14.364-0.684-21.737c3.078,3.951,5.815,8.094,8.209,12.427l0,0
	l0.151,0.267c-1.292,1.29-4.864,5.054-6.385,7.221C184.6,636.279,184.182,636.888,183.764,637.495L183.764,637.495z
	 M184.676,634.075c0,0.304,0.038,0.759,0.266,1.33C184.713,634.834,184.676,634.379,184.676,634.075L184.676,634.075z"/>
<path fill="#48A88E" d="M184.638,641.677c-0.342-1.369-0.608-2.775-0.874-4.182c0.418-0.607,0.836-1.216,1.292-1.823
	c1.521-2.167,5.093-5.931,6.385-7.221l0.456-0.495l-0.456,0.495c0.152,0.304,1.254,2.544,2.546,5.396
	c-3.154,3.081-5.282,5.701-5.282,5.701c-0.305,0.38-0.608,0.76-0.875,1.179C186.766,641.03,185.702,641.334,184.638,641.677
	L184.638,641.677z M185.094,635.749c0,0.036,0.038,0.112,0.075,0.188C185.132,635.861,185.094,635.785,185.094,635.749
	L185.094,635.749z M185.246,636.089c0.342,0.57,0.798,1.179,1.482,1.861C186.044,637.268,185.587,636.621,185.246,636.089
	L185.246,636.089z"/>
<path fill="#3DA385" d="M187.83,640.727c0.266-0.419,0.57-0.799,0.875-1.179c0,0,2.128-2.62,5.282-5.701
	c0.76,1.711,1.634,3.648,2.395,5.474c-3.839,0.34-6.195,0.835-6.537,0.911h-0.039l0,0l0,0l0,0h-0.038
	C189.122,640.383,188.477,640.574,187.83,640.727L187.83,640.727z"/>
<path fill="#3DA385" d="M185.398,644.564c-0.266-0.949-0.533-1.938-0.76-2.888c1.064-0.343,2.128-0.646,3.192-0.95
	C186.956,641.98,186.12,643.235,185.398,644.564L185.398,644.564z"/>
<path fill="#369E80" d="M186.804,649.012c-0.532-1.445-0.988-2.964-1.406-4.447c0.722-1.329,1.558-2.584,2.432-3.838
	c0.646-0.152,1.292-0.344,1.938-0.495h0.038l0,0l0,0h0.039c0.342-0.076,2.698-0.571,6.537-0.911c0.76,1.861,1.444,3.61,1.824,4.978
	c0.266,0.836,0.532,1.71,0.798,2.585C194.86,647.302,190.757,648.021,186.804,649.012L186.804,649.012z"/>
<path fill="#2F9A7B" d="M187.792,651.672c-0.38-0.874-0.685-1.749-0.989-2.66c3.953-0.99,8.057-1.71,12.199-2.129
	c0.457,1.597,0.875,3.191,1.216,4.789H187.792z"/>
<path fill="#7BBFAF" d="M155.375,606.294c1.862,0.228,3.686,0.38,5.549,0.531c-0.989,0.381-1.977,0.761-2.965,1.141
	C157.16,607.435,156.287,606.864,155.375,606.294L155.375,606.294z M154.842,609.03c-0.533,0.189-1.026,0.342-1.52,0.494h0.038
	C153.778,609.297,154.272,609.145,154.842,609.03L154.842,609.03z M149.256,610.741c-0.723,0.188-1.482,0.379-2.242,0.568
	C147.773,610.969,148.496,610.854,149.256,610.741L149.256,610.741z"/>
<path fill="#97CFC6" d="M175.327,606.978c-1.558-1.558-3.193-3.078-4.865-4.522c6.574-3.42,12.77-7.524,18.47-12.198
	c0.304,0.569,0.646,1.177,0.95,1.786c-1.064,2.242-2.014,4.598-2.889,6.992c-2.318,2.396-4.484,4.94-6.499,7.601
	C178.785,606.787,177.075,606.901,175.327,606.978L175.327,606.978z"/>
<path fill="#7EC3B6" d="M180.495,606.636c2.015-2.66,4.181-5.205,6.499-7.601c-0.798,2.28-1.52,4.637-2.128,7.031l-0.038,0.075
	C183.383,606.332,181.939,606.484,180.495,606.636L180.495,606.636z"/>
<path fill="#7EC3B6" d="M186.994,599.035c0.875-2.395,1.825-4.75,2.889-6.992c0.494,0.913,0.988,1.823,1.521,2.735
	C189.882,596.147,188.438,597.554,186.994,599.035L186.994,599.035z"/>
<path fill="#6BBAAA" d="M184.828,606.142l0.038-0.075c0.608-2.395,1.33-4.751,2.128-7.031c1.445-1.481,2.889-2.888,4.409-4.257
	c0.722,1.255,1.444,2.509,2.166,3.648c1.254,1.977,2.508,3.838,3.915,5.435C193.341,604.85,189.122,605.609,184.828,606.142
	L184.828,606.142z"/>
<path fill="#7EC3B6" d="M160.923,606.825c3.268-1.292,6.423-2.774,9.539-4.37c1.672,1.444,3.307,2.965,4.865,4.522
	C170.576,607.206,165.75,607.169,160.923,606.825L160.923,606.825z"/>
<path fill="#A1D3CF" d="M188.59,589.572c-4.636-5.473-9.957-10.451-15.924-14.707c3.383-0.418,6.765-1.027,10.071-1.748
	c1.938,0.683,3.953,1.33,5.967,1.899c1.633,1.558,3.382,3.04,5.244,4.409c-5.168,2.395-8.55,3.838-8.55,3.838
	S186.728,586.038,188.59,589.572L188.59,589.572z"/>
<path fill="#89C6BD" d="M170.462,602.455c-3.991-3.457-8.323-6.612-12.921-9.424c5.283-5.397,9.881-11.401,13.681-17.977
	c0.495-0.075,0.951-0.114,1.444-0.189c5.967,4.256,11.288,9.234,15.924,14.707l0.342,0.685
	C183.231,594.931,177.036,599.035,170.462,602.455L170.462,602.455z"/>
<path fill="#7BBFB6" d="M157.541,593.031c-6.727-4.104-14.062-7.488-21.966-9.919c0.608-1.065,1.254-2.129,1.901-3.156
	c1.709-1.672,3.381-3.419,4.94-5.244c9.729,1.33,19.42,1.406,28.807,0.341C167.421,581.63,162.823,587.634,157.541,593.031
	L157.541,593.031z"/>
<path fill="#6EB8AF" d="M137.475,579.957c1.215-1.862,2.508-3.647,3.875-5.396c0.342,0.076,0.722,0.114,1.064,0.152
	C140.856,576.537,139.185,578.285,137.475,579.957L137.475,579.957z"/>
<path fill="#72BCB1" d="M148.686,601.088c3.116-2.508,6.081-5.206,8.854-8.057c4.598,2.812,8.931,5.967,12.921,9.424
	c-3.116,1.596-6.271,3.078-9.539,4.37c-1.863-0.151-3.687-0.304-5.549-0.531C152.904,604.735,150.244,602.95,148.686,601.088
	L148.686,601.088z"/>
<path fill="#67B6AA" d="M133.37,587.444c0.684-1.482,1.444-2.926,2.204-4.332c7.905,2.431,15.24,5.814,21.966,9.919
	c-2.774,2.851-5.739,5.549-8.854,8.057c-0.456-0.532-0.799-1.103-1.026-1.673c-1.672-3.915,0.494-7.296-1.026-6.651
	c-1.521,0.608-3.458,1.521-3.117,0.115c0.304-1.406-0.342-1.331-0.342-1.331s-2.356,1.216-2.09,0.608
	c0.266-0.57,2.09-3.23,0.266-2.281c-1.862,0.951-5.663,3.497-5.244,2.432c0.456-1.102,1.026-2.05-0.19-2.165
	c-1.216-0.153-3.611,1.596-2.813,0.076C133.598,589.345,133.636,588.28,133.37,587.444L133.37,587.444z"/>
<path fill="#97CFCF" d="M188.705,575.017c-2.015-0.569-4.029-1.216-5.967-1.899c1.14-0.268,2.281-0.533,3.383-0.799
	C186.956,573.231,187.792,574.142,188.705,575.017L188.705,575.017z"/>
<path fill="#72BCAA" d="M137.322,646.579c-2.736-4.334-4.941-8.969-6.575-13.834c1.14-0.419,2.242-0.836,3.307-1.33
	c2.432,0.267,4.864,0.722,7.296,1.254c1.178,0.304,2.318,0.608,3.459,0.911C141.845,637.57,139.298,641.905,137.322,646.579
	L137.322,646.579z"/>
<path fill="#62B59E" d="M147.089,651.672c-0.532-0.268-1.063-0.532-1.596-0.799c-2.888-1.481-5.625-2.927-8.018-4.066
	c-0.039-0.076-0.115-0.151-0.153-0.228c1.976-4.674,4.523-9.009,7.487-12.999c7.448,2.129,14.213,5.437,20.18,9.616
	c-0.456,2.852-0.722,5.663-0.874,8.476H147.089z"/>
<path fill="#54AE95" d="M164.115,651.672c0.152-2.813,0.418-5.624,0.874-8.476c2.014,1.445,3.953,2.964,5.777,4.598
	c-2.128,1.179-4.143,2.509-6.119,3.878H164.115z"/>
<path fill="#48A88E" d="M164.647,651.672c1.977-1.369,3.991-2.699,6.119-3.878c1.406,1.254,2.735,2.548,4.028,3.878H164.647z"/>
<path fill="#A1D3D8" d="M152.182,563.919c-0.494-0.189-0.95-0.379-1.444-0.532c1.14-1.9,2.243-3.838,3.23-5.814
	c1.14,0.911,2.318,1.748,3.534,2.583C155.678,561.334,153.892,562.589,152.182,563.919L152.182,563.919z"/>
<path fill="#90CACD" d="M99.888,560.08c-9.425-5.547-17.824-12.313-25.006-20.066c0.38-0.19,0.721-0.38,0.988-0.607
	c2.698-2.015,19.04-17.178,29.833-27.629c5.016,0.456,10.033,0.608,15.011,0.456c6.347,17.748,17.862,33.558,33.254,45.34
	c-0.988,1.976-2.09,3.914-3.23,5.814c-3.344-1.216-6.765-2.242-10.299-3.04C126.643,557.154,112.81,557.23,99.888,560.08
	L99.888,560.08z"/>
<path fill="#87C6C6" d="M148.23,567.226c0.874-1.254,1.709-2.546,2.508-3.838c0.494,0.152,0.95,0.342,1.444,0.532
	C150.814,564.945,149.522,566.086,148.23,567.226L148.23,567.226z"/>
<path fill="#7BBFBC" d="M131.85,572.774c-11.592-2.698-22.309-7.031-31.962-12.694c12.922-2.85,26.754-2.926,40.551,0.267
	c3.534,0.798,6.955,1.824,10.299,3.04c-0.798,1.292-1.634,2.584-2.508,3.838c-2.471,2.28-4.789,4.713-6.879,7.335
	C138.196,574.104,135.004,573.497,131.85,572.774L131.85,572.774z"/>
<path fill="#A7D8E2" d="M182.776,517.402c-0.988-7.297-2.889-14.328-5.587-21.092c2.394-1.369,4.75-2.813,7.031-4.333
	c1.786,5.586,4.219,10.907,7.221,15.961C188.134,510.638,185.208,513.83,182.776,517.402L182.776,517.402z"/>
<path fill="#95CFD6" d="M157.502,560.156c-1.216-0.835-2.395-1.672-3.534-2.583c2.774-5.473,4.979-11.325,6.537-17.483
	c3.078-12.274,3.23-24.55,0.911-36.217c5.435-2.128,10.717-4.675,15.772-7.563c2.698,6.765,4.599,13.795,5.587,21.092
	c-2.965,4.294-5.245,9.197-6.576,14.518c-1.709,6.84-1.748,13.681-0.341,20.142C169.322,553.848,163.127,556.585,157.502,560.156
	L157.502,560.156z"/>
<path fill="#87C8CD" d="M153.968,557.573c-15.392-11.782-26.907-27.592-33.254-45.34c14.176-0.417,27.933-3.306,40.702-8.36
	c2.319,11.667,2.167,23.943-0.911,36.217C158.947,546.248,156.743,552.1,153.968,557.573L153.968,557.573z"/>
<path fill="#9AD6E2" d="M191.44,507.939c-3.002-5.055-5.435-10.375-7.221-15.961c3.99-2.661,7.791-5.549,11.401-8.665
	c0.228-0.076,0.494-0.153,0.722-0.228c0.988,0.38,1.976,0.76,3.002,1.102c0.19,5.89,0.874,11.705,2.014,17.406
	C197.825,503.302,194.481,505.431,191.44,507.939L191.44,507.939z"/>
<path fill="#90D3E2" d="M201.36,501.592c-1.141-5.701-1.824-11.516-2.014-17.406c2.318,0.836,4.674,1.558,7.107,2.205
	c0.607,4.18,1.558,8.247,2.812,12.237C206.528,499.388,203.906,500.376,201.36,501.592L201.36,501.592z"/>
<path fill="#A7E2F9" d="M222.604,490.306c-0.076-0.267-0.114-0.533-0.19-0.799c0.115,0.039,0.19,0.039,0.304,0.039
	C222.68,489.812,222.642,490.039,222.604,490.306L222.604,490.306z"/>
<path fill="#95D8ED" d="M220.894,496.804c-3.078-3.268-6.347-6.347-9.843-9.235c3.801,0.836,7.602,1.482,11.363,1.938
	c0.076,0.266,0.115,0.532,0.19,0.799c-0.267,2.166-0.418,4.333-0.456,6.498C221.729,496.804,221.312,496.804,220.894,496.804
	L220.894,496.804z"/>
<path fill="#85CFE1" d="M209.265,498.628c-1.254-3.99-2.205-8.057-2.812-12.237c1.33,0.38,2.736,0.722,4.104,1.063
	c0.152,0.038,0.342,0.077,0.494,0.114c3.497,2.888,6.766,5.967,9.843,9.235C216.904,496.956,212.989,497.564,209.265,498.628
	L209.265,498.628z"/>
<path fill="#95D8ED" d="M224.011,496.804c-0.381-2.204-0.875-4.37-1.407-6.498c0.038-0.267,0.076-0.494,0.114-0.76
	c0.571,0.076,1.14,0.152,1.748,0.19c0.685,2.47,1.482,4.864,2.395,7.221C225.91,496.88,224.96,496.842,224.011,496.804
	L224.011,496.804z"/>
<path fill="#87CFE1" d="M222.148,496.804c0.038-2.166,0.189-4.332,0.456-6.498c0.532,2.128,1.026,4.294,1.407,6.498
	C223.402,496.804,222.794,496.766,222.148,496.804L222.148,496.804z"/>
<path fill="#8CD4EB" d="M259.24,513.297c-6.309-7.334-15.088-12.807-25.426-15.201c-2.318-0.532-4.636-0.913-6.954-1.14
	c-0.913-2.356-1.71-4.751-2.395-7.221c15.012,1.52,29.833-0.19,43.554-4.561c-0.456,2.889-1.064,5.738-1.787,8.627
	C264.523,500.643,262.166,507.141,259.24,513.297L259.24,513.297z"/>
<path fill="#97CFCF" d="M172.666,574.865c-0.304-0.229-0.608-0.456-0.95-0.685c0.836-1.482,1.634-3.002,2.432-4.522
	c2.774,1.254,5.625,2.433,8.589,3.459C179.431,573.838,176.049,574.447,172.666,574.865L172.666,574.865z"/>
<path fill="#87C6C6" d="M171.716,574.18c-5.928-4.143-12.466-7.601-19.535-10.261c1.71-1.33,3.497-2.584,5.321-3.763
	c5.168,3.649,10.717,6.841,16.646,9.501C173.35,571.178,172.552,572.698,171.716,574.18L171.716,574.18z"/>
<path fill="#7EC4BD" d="M171.222,575.054c0.191-0.303,0.343-0.569,0.495-0.874c0.341,0.229,0.646,0.457,0.95,0.685
	C172.173,574.94,171.716,574.979,171.222,575.054L171.222,575.054z"/>
<path fill="#72BCB6" d="M142.415,574.713c2.091-2.357,4.028-4.865,5.815-7.487c1.292-1.139,2.584-2.28,3.952-3.307
	c7.069,2.661,13.606,6.119,19.535,10.261c-0.152,0.305-0.304,0.571-0.495,0.874C161.835,576.119,152.144,576.043,142.415,574.713
	L142.415,574.713z"/>
<path fill="#67B6AF" d="M141.351,574.561c2.09-2.623,4.409-5.055,6.879-7.335c-1.787,2.622-3.724,5.13-5.815,7.487
	C142.073,574.675,141.693,574.637,141.351,574.561L141.351,574.561z"/>
<path fill="#8CCDCF" d="M182.737,573.117c-2.964-1.027-5.814-2.205-8.589-3.459c1.559-3.154,2.964-6.46,4.143-9.843
	c1.9,4.522,4.561,8.741,7.829,12.504C185.018,572.584,183.877,572.85,182.737,573.117L182.737,573.117z"/>
<path fill="#7EC4C6" d="M174.148,569.658c-5.929-2.661-11.478-5.852-16.646-9.501c5.625-3.571,11.819-6.308,18.356-8.094
	c0.608,2.661,1.406,5.245,2.432,7.752C177.113,563.198,175.707,566.504,174.148,569.658L174.148,569.658z"/>
<path fill="#95D8ED" d="M286.261,477.421c-0.38-2.546-0.875-5.093-1.407-7.638c1.444,0.569,2.926,1.102,4.447,1.596
	c0.266,0.988,0.607,2.205,0.988,3.763C288.959,475.939,287.629,476.7,286.261,477.421L286.261,477.421z"/>
<path fill="#8CD4EB" d="M268.02,485.174c1.33-8.17,1.672-16.304,1.063-24.284c4.713,3.61,9.995,6.612,15.771,8.893
	c0.532,2.545,1.027,5.092,1.407,7.638C280.484,480.538,274.365,483.16,268.02,485.174L268.02,485.174z"/>
<path fill="#90D3E2" d="M199.346,484.187c-1.026-0.342-2.015-0.722-3.002-1.102c0.988-0.266,1.976-0.608,2.926-0.912
	C199.307,482.818,199.307,483.502,199.346,484.187L199.346,484.187z"/>
<path fill="#95D8ED" d="M206.072,483.654c-1.216-0.874-2.47-1.748-3.724-2.584c1.141-0.418,2.242-0.875,3.383-1.33
	C205.806,481.07,205.92,482.362,206.072,483.654L206.072,483.654z"/>
<path fill="#85CFE1" d="M206.453,486.391c-2.433-0.647-4.789-1.369-7.107-2.205c-0.039-0.684-0.039-1.368-0.076-2.014
	c1.063-0.38,2.052-0.722,3.078-1.102c1.254,0.836,2.508,1.71,3.724,2.584C206.186,484.566,206.3,485.517,206.453,486.391
	L206.453,486.391z"/>
<path fill="#9ADFF9" d="M222.414,489.507c-1.368-5.245-3.154-10.375-5.358-15.315c1.369-0.798,2.737-1.634,4.067-2.471
	c0.418,4.713,1.178,9.35,2.242,13.872c-0.266,1.33-0.494,2.622-0.646,3.953C222.604,489.545,222.528,489.507,222.414,489.507
	L222.414,489.507z"/>
<path fill="#8AD6ED" d="M211.05,487.569c-1.596-1.368-3.268-2.661-4.979-3.915c-0.152-1.292-0.266-2.584-0.341-3.914
	c3.876-1.635,7.677-3.497,11.325-5.549c2.205,4.94,3.99,10.071,5.358,15.315C218.652,489.051,214.851,488.405,211.05,487.569
	L211.05,487.569z"/>
<path fill="#7ECDE1" d="M210.557,487.455c-1.368-0.342-2.774-0.684-4.104-1.063c-0.152-0.875-0.267-1.825-0.381-2.737
	c1.71,1.254,3.383,2.546,4.979,3.915C210.899,487.531,210.709,487.493,210.557,487.455L210.557,487.455z"/>
<path fill="#90DBF7" d="M223.364,485.593c-1.064-4.522-1.824-9.159-2.242-13.872c4.066-2.584,7.943-5.434,11.591-8.589
	c-3.915,5.853-6.879,12.428-8.703,19.573C223.782,483.654,223.554,484.643,223.364,485.593L223.364,485.593z M246.965,447.969
	L246.965,447.969c1.672-2.281,3.307-4.637,4.789-7.031c0.494,0.912,1.026,1.787,1.558,2.661
	C251.107,444.928,248.979,446.373,246.965,447.969L246.965,447.969z"/>
<path fill="#8AD4ED" d="M222.718,489.545c0.152-1.331,0.38-2.623,0.646-3.953c0.342,1.406,0.684,2.774,1.102,4.143
	C223.858,489.697,223.289,489.621,222.718,489.545L222.718,489.545z"/>
<path fill="#83D1EB" d="M224.466,489.735c-0.417-1.368-0.76-2.736-1.102-4.143c0.19-0.95,0.417-1.938,0.646-2.888
	c1.823-7.145,4.788-13.72,8.703-19.573c5.244-4.522,10.033-9.615,14.251-15.163c2.015-1.596,4.143-3.041,6.346-4.371
	c4.105,6.575,9.425,12.465,15.772,17.292c0.608,7.98,0.267,16.114-1.063,24.284C254.299,489.545,239.478,491.255,224.466,489.735
	L224.466,489.735z"/>
<path fill="#90D3E2" d="M195.621,483.313c0.152-0.114,0.266-0.228,0.379-0.343c0.114,0.039,0.228,0.076,0.343,0.115
	C196.115,483.16,195.849,483.236,195.621,483.313L195.621,483.313z"/>
<path fill="#85CFE1" d="M196.343,483.084c-0.115-0.039-0.229-0.076-0.343-0.115c1.103-0.95,2.205-1.937,3.269-2.926
	c0,0.722,0,1.406,0,2.128C198.319,482.477,197.331,482.818,196.343,483.084L196.343,483.084z"/>
<path fill="#8AD6ED" d="M202.348,481.07c-0.798-0.57-1.634-1.103-2.47-1.596c1.938-1.862,3.838-3.763,5.663-5.739
	c-0.039,2.014,0.038,4.028,0.19,6.005C204.589,480.195,203.488,480.652,202.348,481.07L202.348,481.07z"/>
<path fill="#7ECDE1" d="M199.27,482.172c0-0.722,0-1.406,0-2.128c0.228-0.19,0.417-0.38,0.608-0.57
	c0.836,0.494,1.672,1.026,2.47,1.596C201.322,481.45,200.333,481.792,199.27,482.172L199.27,482.172z"/>
<path fill="#A7E2F9" d="M241.834,403.997c-1.672-1.254-3.382-2.469-5.13-3.61c0.456,0.114,0.95,0.228,1.406,0.342
	c1.862,0.418,3.763,0.76,5.625,0.95C243.088,402.439,242.442,403.2,241.834,403.997L241.834,403.997z"/>
<path fill="#9ADFF9" d="M234.157,411.294c0.456-3.838,0.685-7.639,0.722-11.439c0.608,0.19,1.216,0.343,1.825,0.533
	c1.748,1.141,3.458,2.356,5.13,3.61c-0.76,0.912-1.482,1.863-2.166,2.813C237.768,408.254,235.943,409.736,234.157,411.294
	L234.157,411.294z"/>
<path fill="#90DBF7" d="M217.055,474.191c-1.368-3.04-2.888-6.005-4.523-8.894c3.383-4.484,6.423-9.272,9.122-14.251
	c-0.95,6.955-1.102,13.872-0.532,20.674C219.792,472.558,218.424,473.394,217.055,474.191L217.055,474.191z"/>
<path fill="#82D3EB" d="M205.73,479.74c-0.152-1.977-0.229-3.991-0.19-6.005c2.47-2.699,4.788-5.511,6.992-8.438
	c1.635,2.889,3.155,5.854,4.523,8.894C213.407,476.244,209.606,478.105,205.73,479.74L205.73,479.74z"/>
<path fill="#90DBF7" d="M233.473,416.311c0.266-1.672,0.494-3.344,0.684-5.017c1.786-1.558,3.61-3.04,5.511-4.484
	C237.425,409.85,235.374,413.005,233.473,416.311L233.473,416.311z"/>
<path fill="#9ADFF9" d="M242.708,404.644c-0.304-0.228-0.571-0.418-0.875-0.646c0.608-0.797,1.254-1.558,1.9-2.318
	c0.266,0.039,0.607,0.076,0.874,0.114c-0.077,0.57-0.152,1.14-0.228,1.71C243.811,403.884,243.241,404.263,242.708,404.644
	L242.708,404.644z"/>
<path fill="#90DBF7" d="M239.668,406.81c0.684-0.95,1.406-1.901,2.166-2.813c0.304,0.229,0.571,0.419,0.875,0.646
	C241.644,405.366,240.656,406.088,239.668,406.81L239.668,406.81z"/>
<path fill="#90DBF7" d="M244.152,405.784c-0.494-0.381-0.988-0.761-1.444-1.141c0.532-0.38,1.102-0.76,1.672-1.14
	C244.304,404.263,244.228,405.023,244.152,405.784L244.152,405.784z"/>
<path fill="#87D8F7" d="M221.122,471.721c-0.57-6.802-0.418-13.719,0.532-20.674c4.294-7.943,7.639-16.532,9.919-25.615
	c0.76-3.04,1.406-6.081,1.9-9.121c1.9-3.306,3.952-6.46,6.195-9.5c0.988-0.722,1.976-1.444,3.041-2.167
	c0.456,0.379,0.95,0.76,1.444,1.141c-1.064,12.427,1.748,24.588,7.601,35.153c-1.482,2.395-3.117,4.75-4.789,7.031
	c-5.511,4.218-10.337,9.349-14.251,15.163C229.065,466.287,225.188,469.137,221.122,471.721L221.122,471.721z"/>
<path fill="#79CFEB" d="M232.713,463.132c3.914-5.814,8.741-10.945,14.251-15.163C242.746,453.517,237.958,458.609,232.713,463.132
	L232.713,463.132z"/>
<path fill="#87C8CD" d="M108.743,508.813c3.345-0.989,6.575-2.166,9.767-3.534c0.646,2.355,1.368,4.674,2.204,6.954
	c-4.979,0.152-9.995,0-15.011-0.456c0.456-0.418,0.874-0.874,1.292-1.292L108.743,508.813z"/>
<path fill="#9AD6E2" d="M177.189,496.31c-1.216-3.041-2.584-6.043-4.143-8.969c3.23-0.19,6.423-0.57,9.577-1.064
	c0.456,1.938,0.988,3.839,1.596,5.701C181.939,493.497,179.583,494.941,177.189,496.31L177.189,496.31z"/>
<path fill="#8CCDD6" d="M161.417,503.873c-1.177-5.777-2.964-11.439-5.32-16.836c5.701,0.608,11.363,0.684,16.95,0.304
	c1.558,2.926,2.926,5.929,4.143,8.969C172.134,499.198,166.852,501.745,161.417,503.873L161.417,503.873z"/>
<path fill="#7EC4CD" d="M120.714,512.233c-0.836-2.28-1.558-4.599-2.204-6.954c10.869-4.599,20.75-11.211,29.073-19.459
	c2.851,0.532,5.663,0.951,8.513,1.216c2.356,5.397,4.143,11.06,5.32,16.836C148.647,508.927,134.89,511.816,120.714,512.233
	L120.714,512.233z"/>
<path fill="#90D3E2" d="M184.22,491.978c-0.608-1.862-1.14-3.763-1.596-5.701c4.409-0.721,8.779-1.71,12.998-2.964
	C192.01,486.429,188.21,489.317,184.22,491.978L184.22,491.978z"/>
<path fill="#A1DDED" d="M163.241,464.69c0.228-0.418,0.456-0.836,0.685-1.292c0.722,0.646,1.444,1.292,2.204,1.938
	c-0.151-0.039-0.304-0.076-0.457-0.114C164.875,465.032,164.04,464.843,163.241,464.69L163.241,464.69z"/>
<path fill="#90D3E2" d="M173.046,487.341c-3.382-6.423-7.563-12.465-12.427-18.014c0.912-1.52,1.786-3.078,2.622-4.637
	c0.798,0.153,1.634,0.342,2.432,0.533c0.153,0.038,0.305,0.075,0.457,0.114c4.561,3.838,9.501,7.335,14.784,10.413
	c0.342,3.573,0.912,7.069,1.71,10.527C179.469,486.771,176.276,487.151,173.046,487.341L173.046,487.341z"/>
<path fill="#83CAD6" d="M156.097,487.037c-0.989-2.318-2.128-4.598-3.345-6.803c2.888-3.42,5.511-7.069,7.867-10.907
	c4.864,5.549,9.045,11.591,12.427,18.014C167.46,487.721,161.797,487.645,156.097,487.037L156.097,487.037z"/>
<path fill="#77C3CF" d="M147.583,485.82c1.786-1.786,3.535-3.648,5.168-5.586c1.216,2.205,2.356,4.484,3.345,6.803
	C153.246,486.771,150.434,486.353,147.583,485.82L147.583,485.82z"/>
<path fill="#85CFE1" d="M182.624,486.276c-0.798-3.458-1.369-6.955-1.71-10.527c4.789,2.774,9.805,5.207,15.087,7.221
	c-0.114,0.115-0.228,0.229-0.379,0.343C191.403,484.566,187.033,485.555,182.624,486.276L182.624,486.276z"/>
<path fill="#95D8ED" d="M180.646,469.783c-4.674-1.787-9.539-3.269-14.517-4.447c-0.76-0.646-1.482-1.292-2.204-1.938
	c2.812-5.549,5.054-11.44,6.65-17.672c0.456-0.343,0.913-0.685,1.331-1.027c5.321-1.596,10.451-3.724,15.316-6.309
	c-1.787,3.953-3.23,8.133-4.294,12.465C181.331,457.204,180.571,463.55,180.646,469.783L180.646,469.783z"/>
<path fill="#85CFE1" d="M180.913,475.749c-5.283-3.078-10.223-6.574-14.784-10.413c4.979,1.178,9.843,2.66,14.517,4.447
	C180.646,471.796,180.762,473.773,180.913,475.749L180.913,475.749z"/>
<path fill="#A7E2F9" d="M222.832,400.805c0.798-1.71,1.482-3.42,2.166-5.207c1.368,0.798,2.813,1.521,4.295,2.167
	C227.088,398.715,224.96,399.703,222.832,400.805L222.832,400.805z"/>
<path fill="#9ADFF9" d="M203.184,451.692c-4.219-5.168-8.931-9.957-14.175-14.289c14.708-8.285,26.755-20.902,33.824-36.598
	c2.128-1.102,4.256-2.09,6.461-3.041c1.786,0.798,3.61,1.482,5.51,2.052C219.982,413.574,208.808,431.246,203.184,451.692
	L203.184,451.692z"/>
<path fill="#8AD6ED" d="M199.27,479.056c-5.777-3.61-12.009-6.728-18.623-9.273c-0.075-6.233,0.685-12.58,2.281-18.927
	c1.064-4.332,2.508-8.513,4.294-12.465c0.608-0.304,1.216-0.646,1.786-0.988c5.245,4.332,9.957,9.121,14.175,14.289
	c-0.228,0.798-0.417,1.596-0.646,2.433C200.447,462.448,199.383,470.809,199.27,479.056L199.27,479.056z"/>
<path fill="#7ECDE1" d="M196,482.97c-5.282-2.014-10.298-4.446-15.087-7.221c-0.151-1.976-0.267-3.953-0.267-5.966
	c6.614,2.545,12.846,5.663,18.623,9.273c0,0.342,0,0.684,0,0.988C198.205,481.033,197.104,482.02,196,482.97L196,482.97z"/>
<path fill="#90DBF7" d="M207.326,457.127c-1.33-1.862-2.698-3.686-4.143-5.435c5.625-20.446,16.798-38.118,31.62-51.875
	c0.039,0.038,0.076,0.038,0.076,0.038c-0.038,3.8-0.267,7.602-0.722,11.439c-12.503,11.06-21.853,25.691-26.147,42.756
	C207.782,455.075,207.516,456.101,207.326,457.127L207.326,457.127z"/>
<path fill="#82D3EB" d="M199.877,479.474c-0.19-0.152-0.38-0.266-0.608-0.418c0.114-8.247,1.178-16.608,3.268-24.931
	c0.229-0.836,0.418-1.634,0.646-2.433c1.444,1.749,2.813,3.573,4.143,5.435c-1.179,5.549-1.786,11.097-1.786,16.608
	C203.716,475.711,201.815,477.612,199.877,479.474L199.877,479.474z"/>
<path fill="#75CAE1" d="M199.27,480.044c0-0.304,0-0.646,0-0.988c0.228,0.152,0.417,0.266,0.608,0.418
	C199.687,479.664,199.497,479.854,199.27,480.044L199.27,480.044z"/>
<path fill="#87D8F7" d="M212.532,465.298c-1.596-2.812-3.344-5.548-5.206-8.17c0.19-1.026,0.456-2.052,0.684-3.078
	c4.294-17.065,13.644-31.696,26.147-42.756c-0.19,1.673-0.418,3.345-0.684,5.017c-4.294,7.487-7.639,15.62-9.805,24.323
	c-0.874,3.497-1.52,6.955-2.014,10.413C218.956,456.025,215.915,460.814,212.532,465.298L212.532,465.298z"/>
<path fill="#77CFEB" d="M205.541,473.735c0-5.511,0.607-11.059,1.786-16.608c1.862,2.623,3.61,5.358,5.206,8.17
	C210.328,468.225,208.01,471.037,205.541,473.735L205.541,473.735z"/>
<path fill="#7ED6F6" d="M221.654,451.046c0.494-3.458,1.14-6.916,2.014-10.413c2.166-8.704,5.511-16.836,9.805-24.323
	c-0.495,3.041-1.141,6.081-1.9,9.121C229.293,434.515,225.948,443.104,221.654,451.046L221.654,451.046z"/>
<path fill="#7EC4CD" d="M117.294,500.376c0.342,1.634,0.76,3.306,1.216,4.903c-3.192,1.368-6.422,2.545-9.767,3.534
	C111.784,505.849,114.596,503.151,117.294,500.376L117.294,500.376z"/>
<path fill="#77C3CF" d="M118.51,505.279c-0.457-1.597-0.874-3.269-1.216-4.903c5.207-5.359,9.957-10.87,15.011-18.584
	c3.459,1.216,7.031,2.242,10.718,3.078c1.52,0.342,3.04,0.685,4.56,0.95C139.261,494.068,129.379,500.68,118.51,505.279
	L118.51,505.279z"/>
<path fill="#95D8ED" d="M154.729,463.246c-1.444-1.368-2.927-2.698-4.446-3.99c1.672-1.292,3.496-2.623,5.511-3.953
	c2.546,2.851,5.244,5.549,8.133,8.096c-0.229,0.456-0.457,0.874-0.685,1.292C160.429,464.083,157.579,463.626,154.729,463.246
	L154.729,463.246z"/>
<path fill="#85CFE1" d="M150.282,459.256c1.52,1.292,3.002,2.622,4.446,3.99c-2.737-0.379-5.435-0.607-8.133-0.798
	C147.773,461.346,148.99,460.319,150.282,459.256L150.282,459.256z"/>
<path fill="#85CFE1" d="M160.619,469.327c-1.862-2.09-3.839-4.143-5.891-6.081c2.85,0.38,5.701,0.837,8.513,1.444
	C162.405,466.249,161.531,467.807,160.619,469.327L160.619,469.327z"/>
<path fill="#79C6D6" d="M152.752,480.234c-2.736-4.979-5.966-9.729-9.69-14.1c1.14-1.291,2.318-2.508,3.534-3.686
	c2.698,0.191,5.396,0.418,8.133,0.798c2.052,1.938,4.029,3.991,5.891,6.081C158.263,473.165,155.64,476.814,152.752,480.234
	L152.752,480.234z"/>
<path fill="#6EC1CD" d="M143.023,484.871c-3.687-0.836-7.259-1.862-10.718-3.078c0.837-1.254,1.635-2.547,2.471-3.915
	c3.002-4.902,5.625-8.626,8.286-11.744c3.724,4.372,6.954,9.122,9.69,14.1c-1.634,1.938-3.382,3.801-5.168,5.586
	C146.063,485.555,144.543,485.212,143.023,484.871L143.023,484.871z"/>
<path fill="#8AD6ED" d="M163.926,463.398c-2.889-2.547-5.587-5.245-8.133-8.096c2.66-1.786,5.662-3.648,9.159-5.814
	c2.128-1.292,3.952-2.546,5.624-3.762C168.98,451.958,166.738,457.85,163.926,463.398L163.926,463.398z"/>
<path fill="#70B8A8" d="M62.682,597.667c1.977,1.254,3.953,2.433,6.005,3.571c-0.722,0.077-1.444,0.116-2.014-0.113
	c-1.444-0.532-1.521-1.899-1.521-1.899s-2.546,1.14-2.661-0.38C62.454,598.542,62.53,598.161,62.682,597.667L62.682,597.667z"/>
<path fill="#8CC4BC" d="M55.993,556.661c2.091-2.926,4.219-5.891,6.347-8.893c2.166,1.558,4.294,3.192,6.346,4.902
	c3.192,5.055,6.84,9.919,10.832,14.479H79.48c-1.71,0.533-4.257,1.444-7.45,2.888c-6.08,2.812-14.631,2.926-14.631,2.926
	s-0.267-0.228,1.672-5.206c1.9-4.979,10.3-11.972,6.727-10.451c-3.572,1.52-10.071,0.379-10.071,0.379
	S55.803,557.308,55.993,556.661L55.993,556.661z"/>
<path fill="#77BAAF" d="M79.48,567.149h0.038h0.038H79.48z M80.811,568.555c2.394,2.623,4.902,5.131,7.562,7.526
	c0.684,1.216,1.331,2.393,1.977,3.609c-6.689,1.065-13.225,2.775-19.458,5.094C74.616,579.539,78.833,572.128,80.811,568.555
	L80.811,568.555z"/>
<path fill="#6EB8AA" d="M80.772,605.229c5.967-0.417,11.857-1.406,17.52-2.965c0.077,0.418,0.152,0.799,0.228,1.217
	c-3.801,3.611-6.575,5.625-7.411,5.396c-1.52-0.379-1.9-1.215-2.736-1.443c-0.798-0.266-0.38,0.684-1.52,0.569
	c-1.14-0.113-2.851-1.785-3.8-2.431C82.141,605.002,82.254,605.648,80.772,605.229L80.772,605.229z"/>
<path fill="#66B3A3" d="M68.687,601.238c-2.052-1.139-4.028-2.317-6.005-3.571c0.685-2.091,3.079-6.004,7.335-11.705
	c0.266-0.381,0.57-0.799,0.874-1.178c6.233-2.319,12.77-4.029,19.458-5.094c3.686,7.107,6.346,14.708,7.943,22.574
	c-5.663,1.559-11.553,2.548-17.52,2.965c-0.114,0-0.228-0.037-0.342-0.114c-1.862-0.607-1.52-1.367-2.28-1.558
	c-0.798-0.189-1.292,0.418-3.192,0.19c-1.938-0.267-2.128-1.672-3.382-2.356C70.815,600.973,69.75,601.125,68.687,601.238
	L68.687,601.238z"/>
<path fill="#83C1BC" d="M79.518,567.149c-3.991-4.56-7.639-9.424-10.832-14.479c4.789,4.066,9.16,8.589,12.96,13.454
	C80.924,566.466,80.24,566.808,79.518,567.149L79.518,567.149z"/>
<path fill="#6EB8AF" d="M88.373,576.081c-2.66-2.395-5.168-4.903-7.562-7.526c0.646-1.063,1.026-1.824,1.14-2.014
	C84.306,569.582,86.435,572.774,88.373,576.081L88.373,576.081z M79.556,567.149h-0.038c0.722-0.342,1.406-0.684,2.128-1.025
	l0.265,0.38C81.684,566.542,80.848,566.731,79.556,567.149L79.556,567.149z"/>
<path fill="#72BCAA" d="M121.209,638.409c2.432,2.47,4.711,5.054,6.84,7.751c-1.253,1.329-3.002,3.268-5.054,5.512h-14.29
	c0.495-1.634,4.066-5.132,7.639-7.677C119.308,641.865,118.852,641.03,121.209,638.409L121.209,638.409z"/>
<polygon fill="#A7E2F9" points="216.751,389.67 216.751,389.67 216.751,389.67 "/>
<path fill="#9ADFF9" d="M188.058,436.605c-1.863-1.482-3.762-2.926-5.738-4.294c1.406-2.699,2.432-5.435,3.648-8.286
	c6.727-15.467,12.693-24.057,25.918-32.303c1.141-0.722,2.737-1.407,4.865-2.053l0,0c2.471,2.242,5.245,4.219,8.247,5.928
	c-0.684,1.787-1.368,3.497-2.166,5.207C207.858,408.672,195.431,421.062,188.058,436.605L188.058,436.605z"/>
<path fill="#8AD6ED" d="M182.32,432.311c1.976,1.368,3.875,2.812,5.738,4.294c-0.305,0.608-0.57,1.179-0.836,1.786
	c-4.865,2.584-9.995,4.712-15.316,6.309C177.417,440.292,180.267,436.301,182.32,432.311L182.32,432.311z"/>
<path fill="#90DBF7" d="M189.008,437.403c-0.304-0.266-0.646-0.532-0.95-0.798c7.373-15.543,19.8-27.933,34.774-35.8
	C215.763,416.501,203.716,429.118,189.008,437.403L189.008,437.403z"/>
<path fill="#82D3EB" d="M187.222,438.391c0.266-0.607,0.531-1.178,0.836-1.786c0.304,0.266,0.646,0.533,0.95,0.798
	C188.438,437.745,187.83,438.087,187.222,438.391L187.222,438.391z"/>
<path fill="#BFEBFB" d="M238.414,394.572c-1.254-1.216-2.508-2.432-3.801-3.61c-0.076-1.254-0.19-2.471-0.304-3.687
	c4.104-0.114,8.855-0.038,14.214,0.305c-0.228,0.607-0.456,1.178-0.685,1.786c-1.976,1.33-3.876,2.774-5.776,4.256
	C240.846,393.889,239.63,394.23,238.414,394.572L238.414,394.572z"/>
<path fill="#B3E6F9" d="M239.478,395.674c-0.342-0.341-0.722-0.722-1.064-1.102c1.216-0.342,2.432-0.684,3.649-0.95
	C241.188,394.306,240.352,394.99,239.478,395.674L239.478,395.674z"/>
<path fill="#B3E6F9" d="M242.063,393.622c1.9-1.482,3.8-2.926,5.776-4.256c-0.379,1.064-0.76,2.166-1.102,3.268
	C245.178,392.9,243.621,393.242,242.063,393.622L242.063,393.622z"/>
<path fill="#A7E2F9" d="M244.304,400.995c-1.558-1.787-3.154-3.572-4.827-5.321c0.875-0.684,1.71-1.368,2.585-2.052
	c1.558-0.38,3.116-0.722,4.674-0.988c-0.342,1.102-0.646,2.205-0.951,3.307c-0.342,1.482-0.684,2.964-0.912,4.409
	C244.685,400.577,244.494,400.805,244.304,400.995L244.304,400.995z"/>
<path fill="#9ADFF9" d="M244.685,401.451c-0.153-0.152-0.267-0.304-0.38-0.456c0.19-0.19,0.38-0.418,0.57-0.646
	C244.798,400.729,244.723,401.109,244.685,401.451L244.685,401.451z"/>
<path fill="#B3E6F9" d="M234.842,395.674c-0.039-1.558-0.115-3.154-0.229-4.712c1.292,1.178,2.547,2.395,3.801,3.61
	C237.197,394.914,236.019,395.294,234.842,395.674L234.842,395.674z"/>
<path fill="#A7E2F9" d="M235.259,399.437l-0.342-0.228c0-1.178-0.038-2.356-0.075-3.534c1.177-0.38,2.355-0.76,3.572-1.102
	c0.342,0.38,0.722,0.761,1.064,1.102C238.033,396.891,236.627,398.145,235.259,399.437L235.259,399.437z"/>
<path fill="#9ADFF9" d="M234.879,399.741c0-0.19,0-0.38,0.038-0.532l0.342,0.228C235.145,399.513,234.993,399.627,234.879,399.741
	L234.879,399.741z"/>
<path fill="#9ADFF9" d="M238.11,400.729c-0.456-0.114-0.95-0.228-1.406-0.342c-0.495-0.343-0.989-0.646-1.445-0.951
	c1.369-1.292,2.774-2.546,4.219-3.762c1.673,1.749,3.269,3.534,4.827,5.321c-0.19,0.228-0.379,0.456-0.57,0.684
	C241.873,401.489,239.972,401.147,238.11,400.729L238.11,400.729z"/>
<path fill="#90DBF7" d="M236.704,400.387c-0.608-0.19-1.216-0.343-1.825-0.533c0-0.038,0-0.075,0-0.114
	c0.114-0.114,0.266-0.228,0.379-0.304C235.715,399.741,236.209,400.044,236.704,400.387L236.704,400.387z"/>
<path fill="#90DBF7" d="M243.734,401.679c0.19-0.228,0.38-0.456,0.57-0.684c0.114,0.152,0.228,0.304,0.38,0.456
	c-0.038,0.114-0.038,0.228-0.076,0.342C244.342,401.755,244,401.718,243.734,401.679L243.734,401.679z"/>
<path fill="#B3E6F9" d="M234.613,390.962c-1.292-1.216-2.66-2.356-4.028-3.496c1.178-0.076,2.432-0.152,3.724-0.19
	C234.423,388.491,234.537,389.708,234.613,390.962L234.613,390.962z"/>
<path fill="#A7E2F9" d="M231.307,396.966c-1.862-1.102-3.762-2.166-5.7-3.154c0.684-1.976,1.254-3.991,1.786-6.081v-0.038
	c1.026-0.076,2.091-0.19,3.193-0.228c1.368,1.14,2.736,2.28,4.028,3.496c0.114,1.558,0.19,3.154,0.229,4.712
	C233.663,396.093,232.485,396.51,231.307,396.966L231.307,396.966z"/>
<path fill="#9ADFF9" d="M229.293,397.765c-1.482-0.646-2.927-1.368-4.295-2.167c0.19-0.608,0.418-1.177,0.608-1.786
	c1.938,0.988,3.838,2.052,5.7,3.154C230.623,397.232,229.977,397.499,229.293,397.765L229.293,397.765z"/>
<path fill="#9ADFF9" d="M234.917,399.208c-1.216-0.76-2.394-1.52-3.61-2.242c1.179-0.456,2.356-0.874,3.535-1.292
	C234.879,396.853,234.917,398.031,234.917,399.208L234.917,399.208z"/>
<path fill="#90DBF7" d="M234.803,399.817c-1.9-0.57-3.724-1.254-5.51-2.052c0.684-0.266,1.33-0.532,2.014-0.798
	c1.217,0.722,2.394,1.482,3.61,2.242c-0.038,0.152-0.038,0.342-0.038,0.532C234.879,399.779,234.842,399.817,234.803,399.817
	L234.803,399.817z"/>
<path fill="#87D8F7" d="M234.879,399.854c0,0-0.038,0-0.076-0.038c0.039,0,0.076-0.038,0.076-0.076
	C234.879,399.779,234.879,399.817,234.879,399.854L234.879,399.854z"/>
<path fill="#9ADFF9" d="M225.606,393.813c-2.889-1.482-5.814-2.889-8.855-4.143l0,0c2.661-0.836,6.195-1.52,10.641-1.976v0.038
	C226.86,389.822,226.291,391.836,225.606,393.813L225.606,393.813z"/>
<path fill="#90DBF7" d="M224.998,395.598c-3.002-1.709-5.776-3.686-8.247-5.928c3.041,1.254,5.967,2.66,8.855,4.143
	C225.417,394.421,225.188,394.99,224.998,395.598L224.998,395.598z"/>
<path fill="#9ADFF9" d="M271.174,436.111c-3.079-5.017-6.537-9.805-10.376-14.29c0.836-2.432,1.559-4.94,2.204-7.448
	c1.254-5.055,2.091-10.071,2.471-15.088c2.584-0.874,5.093-1.976,7.448-3.306c5.815,3.534,11.212,7.524,16.114,12.009
	c0.608,1.026,1.141,1.938,1.482,2.47c0.038,0.076,0.076,0.19,0.152,0.266l0.038,0.038c0,0,0,0.038,0.038,0.038
	c0.38,0.532,1.178,1.444,2.394,6.309c1.787,7.146,1.787,8.932,1.71,13.188c-0.039,1.254-0.039,2.584-0.039,3.915
	C286.717,433.451,278.698,434.134,271.174,436.111L271.174,436.111z"/>
<path fill="#90DBF7" d="M264.75,438.125c-1.406-4.484-3.116-8.893-5.092-13.149c0.38-1.063,0.798-2.089,1.14-3.154
	c3.839,4.485,7.297,9.273,10.376,14.29C268.969,436.681,266.841,437.365,264.75,438.125L264.75,438.125z"/>
<path fill="#8AD4ED" d="M289.302,471.379c-1.521-0.494-3.003-1.026-4.447-1.596c-2.697-11.896-7.334-23.297-13.681-33.672
	c7.524-1.977,15.543-2.661,23.638-1.9c0,3.192,0.039,6.461,0.115,9.196c0.038,3.877,0.075,10.11,0.075,10.11
	s-1.178-1.977-1.482,0.038c-0.342,2.053,0.494,8.362,0.19,7.753c-0.342-0.608-0.798-5.169-0.798-2.243s-0.532,6.005-0.532,6.005
	s-3.915,0.494-3.8,2.926C288.617,469.023,288.883,469.973,289.302,471.379L289.302,471.379z"/>
<path fill="#83D1EB" d="M284.854,469.783c-5.776-2.281-11.059-5.283-15.771-8.893c-0.57-7.792-2.052-15.43-4.333-22.765
	c2.09-0.76,4.219-1.444,6.423-2.014C277.52,446.486,282.157,457.888,284.854,469.783L284.854,469.783z"/>
<path fill="#87D8F7" d="M253.311,443.598c-0.532-0.874-1.064-1.749-1.558-2.661c3.116-5.016,5.776-10.337,7.905-15.962
	c1.976,4.256,3.687,8.666,5.092,13.149C260.76,439.607,256.921,441.432,253.311,443.598L253.311,443.598z"/>
<path fill="#79CFEB" d="M269.083,460.89c-6.347-4.827-11.667-10.717-15.772-17.292c3.61-2.167,7.449-3.991,11.439-5.473
	C267.031,445.46,268.513,453.099,269.083,460.89L269.083,460.89z"/>
<path fill="#9ADFF9" d="M245.672,402.667c-0.228-0.266-0.456-0.57-0.684-0.836c0.608,0.038,1.217,0.076,1.863,0.114
	C246.47,402.173,246.053,402.439,245.672,402.667L245.672,402.667z"/>
<path fill="#90DBF7" d="M260.798,421.821c-2.128-2.508-4.37-4.94-6.726-7.258c-2.509-4.143-5.321-8.133-8.399-11.896
	c0.38-0.228,0.798-0.494,1.179-0.722c6.46,0.342,12.77-0.608,18.622-2.661c-0.379,5.017-1.216,10.033-2.471,15.088
	C262.356,416.881,261.634,419.39,260.798,421.821L260.798,421.821z"/>
<path fill="#87D8F7" d="M259.658,424.976c-1.672-3.572-3.534-7.068-5.586-10.413c2.356,2.318,4.598,4.75,6.726,7.258
	C260.457,422.886,260.038,423.912,259.658,424.976L259.658,424.976z"/>
<path fill="#90DBF7" d="M244.38,403.503c0.076-0.57,0.151-1.14,0.228-1.71c0.152,0,0.266,0,0.38,0.038
	c0.229,0.266,0.456,0.57,0.684,0.836C245.254,402.933,244.836,403.2,244.38,403.503L244.38,403.503z"/>
<path fill="#87D8F7" d="M254.072,414.563c-3.116-3.117-6.423-6.043-9.919-8.779c0.076-0.761,0.152-1.521,0.228-2.281
	c0.456-0.304,0.874-0.57,1.292-0.836C248.75,406.43,251.563,410.42,254.072,414.563L254.072,414.563z"/>
<path fill="#7ED6F6" d="M251.753,440.938c-5.853-10.565-8.666-22.727-7.601-35.153c3.497,2.735,6.803,5.662,9.919,8.779
	c2.052,3.344,3.915,6.841,5.586,10.413C257.53,430.6,254.869,435.921,251.753,440.938L251.753,440.938z"/>
<path fill="#B3E6F9" d="M265.776,391.456c0-0.38,0-0.76,0-1.14c1.444,0.456,2.813,0.912,4.105,1.444
	C268.513,391.608,267.145,391.494,265.776,391.456L265.776,391.456z"/>
<path fill="#A7E2F9" d="M267.183,392.786c-0.456-0.228-0.912-0.456-1.368-0.684c-0.038-0.228,0-0.456-0.038-0.646
	c1.368,0.038,2.737,0.153,4.105,0.305l0.342,0.114C269.197,392.178,268.209,392.482,267.183,392.786L267.183,392.786z"/>
<path fill="#9ADFF9" d="M265.776,393.242c0.038-0.418,0.038-0.798,0.038-1.14c0.457,0.228,0.913,0.457,1.368,0.684
	C266.727,392.938,266.233,393.09,265.776,393.242L265.776,393.242z"/>
<path fill="#9ADFF9" d="M272.921,395.979c-1.862-1.103-3.8-2.167-5.738-3.193c1.027-0.304,2.014-0.608,3.041-0.912
	c1.977,0.836,3.763,1.672,5.358,2.547C274.708,394.99,273.833,395.522,272.921,395.979L272.921,395.979z"/>
<path fill="#90DBF7" d="M265.473,399.285c0.19-2.013,0.304-4.028,0.304-6.042c0.457-0.152,0.951-0.304,1.406-0.456
	c1.938,1.026,3.876,2.09,5.738,3.193C270.565,397.309,268.057,398.411,265.473,399.285L265.473,399.285z"/>
<path fill="#B3E6F9" d="M247.838,389.366c0.229-0.607,0.457-1.178,0.685-1.786c0.608,0.038,1.178,0.075,1.786,0.114
	C249.473,388.226,248.674,388.796,247.838,389.366L247.838,389.366z"/>
<path fill="#A7E2F9" d="M246.737,392.634c0.342-1.102,0.722-2.204,1.102-3.268c0.836-0.57,1.635-1.14,2.471-1.672
	c0.836,0.076,1.71,0.152,2.584,0.228c1.558,0.114,3.041,0.305,4.447,0.495c-1.33,1.063-2.622,2.166-3.876,3.307
	C251.183,391.912,248.941,392.216,246.737,392.634L246.737,392.634z"/>
<path fill="#9ADFF9" d="M244.875,400.349c0.228-1.444,0.57-2.926,0.912-4.409c0.305-1.102,0.608-2.205,0.951-3.307
	c2.204-0.418,4.446-0.722,6.727-0.911C250.423,394.421,247.535,397.309,244.875,400.349L244.875,400.349z"/>
<path fill="#A7E2F9" d="M264.37,391.38c-2.166-1.025-4.332-1.977-6.574-2.889c2.926,0.457,5.586,1.103,7.98,1.825
	c0,0.38,0,0.76,0,1.14C265.321,391.418,264.827,391.38,264.37,391.38L264.37,391.38z"/>
<path fill="#9ADFF9" d="M253.463,391.723c1.254-1.141,2.547-2.243,3.876-3.307l0.456,0.075c2.242,0.912,4.409,1.863,6.574,2.889
	C260.684,391.266,257.036,391.38,253.463,391.723L253.463,391.723z"/>
<path fill="#9ADFF9" d="M265.814,392.102c-0.494-0.266-0.988-0.494-1.444-0.722c0.457,0,0.951,0.038,1.406,0.076
	C265.814,391.646,265.776,391.874,265.814,392.102L265.814,392.102z"/>
<path fill="#90DBF7" d="M244.988,401.832c-0.114-0.114-0.19-0.266-0.304-0.38c0.038-0.342,0.114-0.722,0.19-1.102
	c2.661-3.04,5.548-5.928,8.589-8.626c3.573-0.343,7.221-0.457,10.907-0.343c0.457,0.229,0.951,0.457,1.444,0.722
	c0,0.342,0,0.722-0.038,1.14c-6.65,2.166-12.997,5.093-18.925,8.703C246.205,401.907,245.597,401.869,244.988,401.832
	L244.988,401.832z"/>
<path fill="#87D8F7" d="M246.851,401.945c5.928-3.61,12.275-6.537,18.925-8.703c0,2.015-0.114,4.029-0.304,6.042
	C259.621,401.337,253.311,402.287,246.851,401.945L246.851,401.945z"/>
<path fill="#87D8F7" d="M244.608,401.793c0.039-0.114,0.039-0.228,0.076-0.342c0.114,0.114,0.19,0.267,0.304,0.38
	C244.875,401.793,244.761,401.793,244.608,401.793L244.608,401.793z"/>
<path fill="#95CFCF" d="M223.858,556.509c-0.418-0.19-0.836-0.38-1.292-0.607c1.444-0.989,2.888-2.016,4.294-3.042
	c0.418,0.495,0.875,0.989,1.331,1.482C226.708,555.026,225.264,555.748,223.858,556.509L223.858,556.509z"/>
<path fill="#7EC3BD" d="M229.521,559.625c-1.824-1.141-3.724-2.166-5.663-3.116c1.406-0.761,2.851-1.482,4.333-2.167
	c1.14,1.254,2.318,2.471,3.496,3.687C231.002,558.561,230.243,559.093,229.521,559.625L229.521,559.625z"/>
<path fill="#A7D8E2" d="M237.501,543.663c0.076-0.076,0.152-0.152,0.228-0.228c0.038,0,0.076,0.038,0.114,0.038
	C237.729,543.549,237.616,543.625,237.501,543.663L237.501,543.663z"/>
<path fill="#8CCDCF" d="M228.191,554.342c-0.456-0.494-0.913-0.987-1.331-1.482c3.725-2.85,7.297-5.89,10.641-9.196
	c0.114-0.076,0.228-0.114,0.342-0.189c1.558,0.456,3.117,0.873,4.712,1.216c0.532,0.152,1.026,0.266,1.558,0.342
	c0.417,0.379,0.798,0.721,1.216,1.026c-1.064,1.101-2.205,2.166-3.344,3.268C237.197,550.618,232.599,552.29,228.191,554.342
	L228.191,554.342z"/>
<path fill="#75C1BD" d="M231.687,558.028c-1.177-1.216-2.356-2.432-3.496-3.687c4.408-2.052,9.006-3.724,13.795-5.016
	C238.869,552.252,235.449,555.216,231.687,558.028L231.687,558.028z"/>
<path fill="#9AD6E2" d="M237.844,543.474c-0.038,0-0.076-0.038-0.114-0.038c0.684-0.647,1.33-1.292,1.977-1.977
	c0.266,0.19,0.494,0.381,0.76,0.571C239.592,542.485,238.717,542.979,237.844,543.474L237.844,543.474z"/>
<path fill="#83CACF" d="M242.556,544.689c-1.596-0.343-3.154-0.76-4.712-1.216c0.874-0.495,1.749-0.989,2.622-1.444
	c0.495,0.342,0.988,0.722,1.482,1.063c0.722,0.685,1.444,1.33,2.166,1.939C243.621,544.956,243.088,544.842,242.556,544.689
	L242.556,544.689z"/>
<path fill="#90D3E2" d="M240.466,542.029c-0.266-0.19-0.494-0.381-0.76-0.571c0.114-0.114,0.189-0.19,0.304-0.304
	c0.228,0.228,0.456,0.494,0.722,0.723C240.618,541.915,240.542,541.991,240.466,542.029L240.466,542.029z"/>
<path fill="#79C6CF" d="M241.948,543.093c-0.494-0.342-0.988-0.722-1.482-1.063c0.076-0.038,0.152-0.114,0.266-0.152
	C241.15,542.295,241.53,542.713,241.948,543.093L241.948,543.093z"/>
<path fill="#7EC4C6" d="M245.331,546.096c-0.418-0.343-0.799-0.685-1.216-1.064c0.38,0.076,0.722,0.151,1.103,0.228
	c0.19,0.114,0.38,0.266,0.569,0.379L245.331,546.096z"/>
<path fill="#75C1C6" d="M244.114,545.032c-0.722-0.609-1.444-1.254-2.166-1.939c1.064,0.76,2.166,1.483,3.269,2.167
	C244.836,545.183,244.494,545.107,244.114,545.032L244.114,545.032z"/>
<path fill="#75C1C6" d="M245.786,545.639c-0.189-0.114-0.379-0.266-0.569-0.379c0.266,0.076,0.494,0.114,0.759,0.152
	L245.786,545.639z"/>
<path fill="#90D3E2" d="M245.178,539.749c-0.304-1.103-0.607-2.166-0.95-3.269c1.482-1.786,2.964-3.611,4.371-5.473
	c1.824,1.862,3.725,3.649,5.701,5.359l-0.038,0.076C251.145,537.354,248.105,538.457,245.178,539.749L245.178,539.749z"/>
<path fill="#79C6CF" d="M246.47,544.918c-0.379-1.748-0.798-3.459-1.292-5.169c2.927-1.292,5.967-2.396,9.083-3.307
	C252.057,538.951,249.473,541.839,246.47,544.918L246.47,544.918z"/>
<path fill="#83CAD6" d="M240.731,541.877c-0.266-0.229-0.494-0.495-0.722-0.723c1.444-1.521,2.85-3.078,4.218-4.674
	c0.343,1.103,0.646,2.166,0.95,3.269C243.658,540.396,242.176,541.117,240.731,541.877L240.731,541.877z"/>
<path fill="#6EBFC6" d="M245.217,545.259c-1.103-0.684-2.205-1.406-3.269-2.167c-0.418-0.38-0.798-0.798-1.217-1.215
	c1.445-0.761,2.927-1.482,4.447-2.128c0.494,1.709,0.913,3.421,1.292,5.169l-0.494,0.493
	C245.71,545.373,245.483,545.335,245.217,545.259L245.217,545.259z"/>
<path fill="#87CFE2" d="M254.299,536.367c-1.976-1.71-3.876-3.497-5.701-5.359c4.066-5.511,7.677-11.439,10.642-17.71
	c2.888,3.307,5.245,6.993,7.068,10.907c-2.318,1.977-4.294,3.611-5.625,4.941C259.24,530.552,257.111,533.135,254.299,536.367
	L254.299,536.367z"/>
<path fill="#91CAC6" d="M193.948,579.425c-1.862-1.369-3.61-2.851-5.244-4.409c1.748,0.494,3.534,0.95,5.32,1.368
	c1.444,0.342,2.888,0.646,4.333,0.913C196.761,578.057,195.279,578.78,193.948,579.425L193.948,579.425z"/>
<path fill="#95CFCF" d="M210.747,565.325c0.722-1.103,1.406-2.281,2.052-3.42c2.774-1.52,5.473-3.155,8.095-4.865
	c-0.76,0.836-1.52,1.672-2.242,2.546C215.915,561.334,213.292,563.273,210.747,565.325L210.747,565.325z"/>
<path fill="#7EC3BD" d="M204.589,574.18c2.205-2.812,4.257-5.777,6.157-8.855c2.546-2.052,5.168-3.991,7.905-5.738
	c-2.889,3.458-5.473,7.221-7.678,11.25C208.808,572.015,206.642,573.155,204.589,574.18L204.589,574.18z"/>
<path fill="#7EC3BD" d="M218.652,559.587c0.722-0.875,1.481-1.71,2.242-2.546c0.57-0.38,1.141-0.759,1.673-1.139
	c0.456,0.228,0.874,0.417,1.292,0.607C222.11,557.497,220.361,558.484,218.652,559.587L218.652,559.587z"/>
<path fill="#6BBAAF" d="M210.974,570.836c2.205-4.029,4.789-7.792,7.678-11.25c1.709-1.103,3.458-2.09,5.206-3.078
	c1.938,0.95,3.838,1.976,5.663,3.116c-1.14,0.798-2.28,1.596-3.497,2.356C221.16,565.135,215.991,568.138,210.974,570.836
	L210.974,570.836z"/>
<path fill="#87C6C6" d="M194.024,576.385c-1.786-0.418-3.572-0.875-5.32-1.368c-0.912-0.875-1.749-1.786-2.584-2.698
	c9.386-2.357,18.318-5.891,26.679-10.413c-0.646,1.139-1.33,2.317-2.052,3.42c-4.104,3.421-7.904,7.259-11.287,11.439l-1.103,0.533
	C196.913,577.03,195.469,576.727,194.024,576.385L194.024,576.385z"/>
<path fill="#72BCB6" d="M199.459,576.765c3.383-4.181,7.183-8.019,11.287-11.439c-1.9,3.078-3.953,6.043-6.157,8.855
	C202.804,575.093,201.093,575.967,199.459,576.765L199.459,576.765z"/>
<path fill="#A7D8E2" d="M222.148,555.71c-1.672-0.759-3.421-1.444-5.168-2.052c1.253-2.888,2.394-5.853,3.419-8.854
	c1.787,2.431,3.687,4.826,5.663,7.145C224.732,553.165,223.402,554.417,222.148,555.71L222.148,555.71z"/>
<path fill="#8CCDCF" d="M222.566,555.901c-0.114-0.04-0.267-0.115-0.418-0.191c1.254-1.292,2.584-2.545,3.914-3.761
	c0.267,0.304,0.532,0.607,0.798,0.911C225.455,553.886,224.011,554.913,222.566,555.901L222.566,555.901z"/>
<path fill="#95CFD8" d="M180.989,550.884c2.774-11.287,3.269-22.612,1.787-33.481c2.432-3.573,5.358-6.765,8.665-9.463
	c5.092,8.475,11.857,16.038,19.915,22.194c2.622,5.094,5.663,9.996,9.044,14.671c-1.026,3.002-2.166,5.966-3.419,8.854
	c-2.433-0.874-4.941-1.596-7.488-2.205C199.84,549.212,190.148,549.136,180.989,550.884L180.989,550.884z"/>
<path fill="#87C6CD" d="M175.859,552.063c-1.406-6.461-1.368-13.302,0.341-20.142c1.331-5.321,3.61-10.224,6.576-14.518
	c1.482,10.869,0.988,22.194-1.787,33.481C179.279,551.226,177.569,551.605,175.859,552.063L175.859,552.063z"/>
<path fill="#8CCDD6" d="M211.355,530.133c-8.058-6.156-14.822-13.719-19.915-22.194c3.041-2.508,6.385-4.637,9.919-6.347
	C203.374,511.549,206.756,521.165,211.355,530.133L211.355,530.133z"/>
<path fill="#9AD6E2" d="M226.062,551.949c-1.976-2.319-3.876-4.714-5.663-7.145c0.798-2.433,1.521-4.866,2.167-7.374l0.038-0.152
	c4.75,2.509,9.805,4.6,15.125,6.158c-0.076,0.076-0.152,0.152-0.228,0.228C233.435,546.058,229.597,548.831,226.062,551.949
	L226.062,551.949z"/>
<path fill="#83CACF" d="M226.86,552.859c-0.266-0.304-0.532-0.607-0.798-0.911c3.535-3.118,7.373-5.891,11.439-8.286
	C234.157,546.969,230.585,550.009,226.86,552.859L226.86,552.859z"/>
<path fill="#8CCDD6" d="M220.399,544.804c-3.382-4.675-6.423-9.577-9.044-14.671c3.496,2.661,7.258,5.055,11.249,7.145l-0.038,0.152
	C221.92,539.938,221.198,542.371,220.399,544.804L220.399,544.804z"/>
<path fill="#90D3E2" d="M237.729,543.436c-5.321-1.558-10.375-3.649-15.125-6.158c0.836-3.42,1.521-6.877,1.976-10.298
	c4.409,5.358,9.463,10.223,15.126,14.479C239.06,542.144,238.414,542.789,237.729,543.436L237.729,543.436z"/>
<path fill="#83CAD6" d="M222.604,537.278c-3.991-2.09-7.753-4.484-11.249-7.145c-4.599-8.968-7.981-18.584-9.995-28.541
	c2.546-1.216,5.168-2.205,7.905-2.964c3.23,10.299,8.437,19.914,15.315,28.352C224.125,530.4,223.44,533.858,222.604,537.278
	L222.604,537.278z"/>
<path fill="#87D1E2" d="M239.706,541.458c-5.663-4.256-10.717-9.121-15.126-14.479c0.457-3.192,0.722-6.385,0.836-9.54
	c3.002,8.818,8.019,16.912,14.593,23.715C239.896,541.269,239.82,541.345,239.706,541.458L239.706,541.458z"/>
<path fill="#87D1E2" d="M222.148,498.172c-0.418-0.457-0.836-0.913-1.254-1.369c0.418,0,0.836,0,1.254,0
	C222.148,497.26,222.148,497.716,222.148,498.172L222.148,498.172z"/>
<path fill="#79C8D6" d="M224.58,526.979c-6.879-8.438-12.085-18.052-15.315-28.352c3.724-1.064,7.639-1.672,11.629-1.824
	c0.418,0.456,0.836,0.912,1.254,1.369c0.076,6.65,1.178,13.111,3.269,19.268C225.302,520.594,225.037,523.787,224.58,526.979
	L224.58,526.979z"/>
<path fill="#87CFE2" d="M244.228,536.48c-4.104-12.921-10.755-24.969-19.572-35.42c-0.19-1.406-0.417-2.851-0.645-4.257
	c0.95,0.038,1.899,0.076,2.85,0.152c4.75,12.656,12.162,24.247,21.738,34.052C247.192,532.87,245.71,534.695,244.228,536.48
	L244.228,536.48z"/>
<path fill="#7BC8D6" d="M240.01,541.155c-6.575-6.803-11.591-14.897-14.593-23.715c0.228-5.548-0.038-11.021-0.761-16.379
	c8.817,10.451,15.468,22.499,19.572,35.42C242.86,538.077,241.454,539.634,240.01,541.155L240.01,541.155z"/>
<path fill="#7BC8D6" d="M224.656,501.061c-0.798-0.989-1.634-1.938-2.508-2.888c0-0.457,0-0.913,0-1.369
	c0.646-0.038,1.254,0,1.863,0C224.238,498.21,224.466,499.654,224.656,501.061L224.656,501.061z"/>
<path fill="#6EBFCD" d="M225.417,517.44c-2.09-6.156-3.193-12.617-3.269-19.268c0.874,0.95,1.71,1.899,2.508,2.888
	C225.378,506.419,225.644,511.892,225.417,517.44L225.417,517.44z"/>
<path fill="#7ECCE1" d="M248.599,531.008c-9.577-9.805-16.988-21.396-21.738-34.052c2.318,0.228,4.636,0.608,6.954,1.14
	c10.338,2.394,19.117,7.867,25.426,15.201C256.275,519.568,252.665,525.497,248.599,531.008L248.599,531.008z"/>
<path fill="#8CCDCF" d="M212.799,561.905c1.521-2.66,2.888-5.435,4.181-8.247c1.747,0.607,3.496,1.292,5.168,2.052
	c-0.418,0.457-0.836,0.875-1.254,1.331C218.272,558.75,215.573,560.385,212.799,561.905L212.799,561.905z"/>
<path fill="#75C1BF" d="M220.894,557.041c0.418-0.456,0.836-0.874,1.254-1.331c0.152,0.076,0.304,0.152,0.418,0.191
	C222.034,556.281,221.464,556.661,220.894,557.041L220.894,557.041z"/>
<path fill="#7EC4C6" d="M186.12,572.318c-3.269-3.763-5.929-7.982-7.829-12.504c0.988-2.736,1.862-5.586,2.584-8.437
	c0.038-0.19,0.076-0.341,0.114-0.494c9.159-1.748,18.851-1.672,28.503,0.57c2.547,0.609,5.055,1.331,7.488,2.205
	c-1.293,2.812-2.661,5.587-4.181,8.247C204.438,566.428,195.506,569.961,186.12,572.318L186.12,572.318z"/>
<path fill="#72BDBD" d="M178.291,559.814c-1.026-2.507-1.824-5.091-2.432-7.752c1.71-0.457,3.42-0.836,5.13-1.179
	c-0.038,0.152-0.076,0.304-0.114,0.494C180.153,554.228,179.279,557.078,178.291,559.814L178.291,559.814z"/>
<path fill-rule="evenodd" clip-rule="evenodd" fill="#72BCAA" d="M137.246,646.692c-2.167-1.024-3.99-1.787-5.396-2.09
	c-1.064-0.266-1.863-0.266-2.319,0.114c-0.379,0.305-0.874,0.799-1.482,1.443c-1.253,1.329-3.002,3.268-5.054,5.512h24.094
	l-1.596-0.799c-2.888-1.481-5.625-2.927-8.018-4.066C137.399,646.768,137.322,646.73,137.246,646.692L137.246,646.692z"/>
<path fill-rule="evenodd" clip-rule="evenodd" fill="#62B59E" d="M226.519,604.813c-1.71,3.001-1.672,5.093,0.722,5.662
	c0,0,0.038,0,0.076,0s0.076,0,0.076,0.038c0.267-0.723,0.19-1.141,0.19-1.141s0.228,0.495,0.532,1.217
	c0.684,0.038,1.483,0,2.433-0.114l0.646-0.076c-0.874-3.115-2.812-4.598-4.256-5.624c-0.114-0.039-0.19-0.114-0.304-0.189
	C226.594,604.66,226.556,604.735,226.519,604.813L226.519,604.813z"/>
<path fill-rule="evenodd" clip-rule="evenodd" fill="#83C1BC" d="M62.34,547.768l0.076-0.114
	C62.378,547.692,62.378,547.73,62.34,547.768L62.34,547.768z M55.993,556.661c2.091-2.926,4.219-5.891,6.347-8.893
	c2.166,1.558,4.294,3.192,6.346,4.902c-1.596-2.509-3.079-5.016-4.447-7.638l0.608-0.836c-1.521,0.836-2.888,1.863-3.99,3.192
	C57.817,550.96,56.488,554.875,55.993,556.661L55.993,556.661z"/>
<path d="M392.825,497.716c0,0.76-0.229,1.748-0.647,3.002c-1.025,2.927-3.04,5.284-6.118,7.069c-2.85,1.635-5.928,2.433-9.235,2.433
	c-5.625,0-9.882-2.281-12.694-6.917c-2.432-3.8-3.61-8.664-3.61-14.631c0-5.093,0.76-9.919,2.242-14.404
	c1.672-5.283,4.18-9.387,7.487-12.275c2.47-2.167,4.94-3.23,7.411-3.23c3.724,0,6.499,1.786,8.322,5.321
	c1.445,2.774,2.167,6.232,2.167,10.337c0,2.014-0.304,4.333-0.95,6.955c-0.798,3.497-1.862,5.245-3.154,5.245
	c-1.026,0-1.749-0.57-2.167-1.634c0.266-0.19,0.722-0.494,1.368-0.987c1.255-1.217,1.862-4.143,1.862-8.818
	c0-2.812-0.532-5.549-1.558-8.133c-1.368-3.344-3.23-5.054-5.549-5.054c-1.899,0-3.875,1.14-5.928,3.382
	c-1.558,1.711-2.851,3.649-3.99,5.854c-2.433,5.092-3.687,11.363-3.687,18.812c0,4.94,0.875,8.893,2.623,11.819
	c2.167,3.687,5.511,5.511,10.109,5.511c2.471,0,4.751-0.646,6.841-1.976c2.053-1.33,3.649-3.117,4.751-5.321
	c0.19-0.722,0.607-1.709,1.254-3.002c0.343-0.646,0.836-0.988,1.406-0.988C392.369,496.082,392.825,496.614,392.825,497.716
	L392.825,497.716z"/>
<path d="M418.25,494.6c0,4.142-0.95,7.753-2.775,10.831c-2.167,3.687-5.168,5.549-9.006,5.549c-3.877,0-6.803-1.521-8.742-4.561
	c-1.558-2.508-2.356-5.815-2.356-9.958c0-4.065,0.912-8.094,2.737-12.047c2.317-4.826,5.245-7.296,8.816-7.296
	c0.875,0,2.205,0.532,3.877,1.596C415.742,481.792,418.25,487.075,418.25,494.6L418.25,494.6z M414.791,494.523L414.791,494.523
	c0-3.078-0.418-5.852-1.254-8.284c-1.215-3.42-3.041-5.13-5.548-5.13c-2.888,0-5.168,1.9-6.803,5.701
	c-1.216,2.926-1.862,6.081-1.862,9.462c0,3.002,0.456,5.549,1.292,7.639c1.254,2.813,3.193,4.257,5.853,4.257
	c2.889,0,5.054-1.635,6.575-4.903C414.184,500.68,414.791,497.792,414.791,494.523L414.791,494.523z"/>
<path d="M444.7,494.6c0,4.142-0.911,7.753-2.736,10.831c-2.166,3.687-5.167,5.549-9.007,5.549c-3.914,0-6.803-1.521-8.74-4.561
	c-1.597-2.508-2.357-5.815-2.357-9.958c0-4.065,0.875-8.094,2.699-12.047c2.318-4.826,5.282-7.296,8.816-7.296
	c0.913,0,2.205,0.532,3.915,1.596C442.229,481.792,444.7,487.075,444.7,494.6L444.7,494.6z M441.242,494.523L441.242,494.523
	c0-3.078-0.419-5.852-1.215-8.284c-1.217-3.42-3.079-5.13-5.551-5.13c-2.926,0-5.167,1.9-6.802,5.701
	c-1.254,2.926-1.861,6.081-1.861,9.462c0,3.002,0.417,5.549,1.292,7.639c1.254,2.813,3.191,4.257,5.852,4.257
	c2.889,0,5.056-1.635,6.538-4.903C440.672,500.68,441.242,497.792,441.242,494.523L441.242,494.523z"/>
<path d="M469.936,491.142c0,4.75-0.684,8.74-2.052,11.971c-1.901,4.484-4.865,6.688-8.895,6.688c-2.621,0-4.939-1.216-6.916-3.686
	c-0.342,0.152-0.532,1.672-0.532,4.484c0,6.271,0.343,10.679,0.951,13.264c0.038,0.228,0.304,0.835,0.721,1.709
	c0.381,0.913,0.609,1.482,0.609,1.672c0,0.761-0.495,1.141-1.482,1.141c-1.14,0-1.938-0.152-2.394-0.493
	c-0.457-0.342-0.876-1.444-1.217-3.308c-0.267-1.596-0.418-2.812-0.418-3.724v-18.355c0-1.673,0.113-3.915,0.304-6.765
	c0.152-3.306,0.305-5.587,0.342-6.764c0.076-1.292,0.076-2.965,0-5.055c-0.037-2.661-0.076-4.333-0.076-5.131
	c0-3.306,0.875-4.979,2.623-4.979c0.874,0,1.292,0.342,1.292,0.951c0,1.216-0.114,2.964-0.304,5.282
	c-0.19,2.28-0.266,4.028-0.266,5.168h0.266c1.102-1.482,2.203-3.002,3.306-4.522c1.292-1.71,2.927-2.546,4.863-2.546
	c3.194,0,5.626,1.444,7.261,4.333C469.29,484.794,469.936,487.683,469.936,491.142L469.936,491.142z M466.439,491.407
	L466.439,491.407c0-2.547-0.267-4.712-0.837-6.537c-0.799-2.698-2.128-4.029-3.914-4.029c-1.368,0-3.002,1.178-4.901,3.497
	c-1.711,2.09-2.889,4.181-3.574,6.347c-0.531,1.634-0.948,4.028-1.292,7.221c-0.228,2.318-0.38,3.42-0.38,3.307
	c0,0.152,0.228,0.417,0.686,0.722c0.266,0.19,0.569,0.418,0.873,0.684c0.76,1.102,1.52,2.204,2.318,3.344
	c0.798,1.102,1.977,1.672,3.571,1.672c2.661,0,4.639-2.166,5.967-6.46C465.945,498.096,466.439,494.828,466.439,491.407
	L466.439,491.407z"/>
<path d="M494.677,501.669c0,2.09-1.406,3.99-4.258,5.7c-2.545,1.521-4.939,2.318-7.182,2.318c-6.46,0-9.69-4.104-9.69-12.275
	c0-3.61,0.646-7.487,1.975-11.629c1.711-5.358,3.915-8.057,6.613-8.057c2.318,0,4.827,1.177,7.563,3.497
	c2.735,2.318,4.104,4.636,4.104,6.955c0,3.002-1.179,5.586-3.611,7.79c-2.394,2.205-5.092,3.307-8.132,3.307
	c-0.267,0-0.874-0.228-1.825-0.684c-0.949-0.494-1.558-0.76-1.899-0.76c-0.646,0-0.951,0.19-0.951,0.57
	c0,5.549,1.825,8.324,5.474,8.324c1.861,0,3.61-0.647,5.206-1.901c0.95-0.722,2.015-1.825,3.154-3.383
	c0.913-1.177,1.521-1.786,1.786-1.786C494.145,499.654,494.677,500.3,494.677,501.669L494.677,501.669z M489.698,488.405
	L489.698,488.405c0-1.709-0.493-3.268-1.444-4.75c-0.951-1.444-2.205-2.167-3.801-2.167c-1.938,0-3.496,1.178-4.712,3.611
	c-0.989,1.976-1.521,4.066-1.521,6.232c0,1.406,0.456,2.585,1.33,3.535c0.912,0.95,2.052,1.406,3.458,1.406
	c1.977,0,3.611-0.836,4.902-2.546C489.089,492.205,489.698,490.419,489.698,488.405L489.698,488.405z"/>
<path d="M513.906,483.122c0,0.19-0.038,0.608-0.075,1.216c-0.646,0.951-1.217,1.444-1.786,1.444c-0.419,0-0.723-0.228-1.027-0.684
	c-0.15-3.079-1.406-4.598-3.725-4.598c-1.558,0-3.078,2.85-4.56,8.55c-0.57,2.091-0.873,4.827-0.873,8.285
	c0,4.409,0.114,7.106,0.379,8.133c0.038,0.152,0.151,0.457,0.342,0.95c0.189,0.418,0.304,0.76,0.304,0.988
	c0,1.063-0.722,1.596-2.166,1.596c-1.633,0-2.471-0.836-2.471-2.509c0-0.266,0.077-0.608,0.19-1.064
	c0.114-0.418,0.189-0.798,0.189-1.026c0-2.66-0.113-6.612-0.38-11.895c-0.228-5.283-0.341-9.273-0.341-11.896
	c0-0.988,0.152-1.558,0.493-1.749c0.342-0.228,0.989-0.342,1.938-0.342c1.217,0,1.901,0.419,2.092,1.292
	c0.075,0.95,0.113,1.9,0.151,2.813c1.255-1.938,1.976-3.002,2.167-3.23c1.063-1.216,2.165-1.824,3.306-1.824
	c0.873,0,1.748,0.266,2.623,0.798c0.456,0.304,1.14,1.026,1.938,2.242C513.488,481.792,513.906,482.666,513.906,483.122
	L513.906,483.122z"/>
<path d="M535.987,510.866c0,0.683-0.532,1.026-1.598,1.026c-1.139,0-1.861-0.494-2.089-1.444c-0.038-0.152-0.076-1.065-0.076-2.813
	c0-0.494-0.075-0.874-0.228-1.14c-2.661,1.976-5.587,2.965-8.703,2.965c-2.167,0-4.257-0.608-6.271-1.825
	c-2.317-1.33-3.457-3.002-3.457-5.016c0-1.976,1.367-3.915,4.104-5.777c2.506-1.749,4.788-2.623,6.916-2.623h7.146
	c0.266-0.266,0.418-0.76,0.418-1.52c0-3.193-0.267-5.625-0.799-7.259c-0.873-2.736-2.546-4.104-5.093-4.104
	c-1.825,0-3.534,1.14-5.054,3.458c-1.407,2.128-2.09,4.143-2.09,6.042c0,0.115,0,0.267,0,0.456c0,0.19,0,0.304,0,0.342
	c0,0.38-0.19,0.57-0.571,0.57c-0.494,0-1.025-0.266-1.597-0.836c-0.569-0.57-0.835-1.103-0.835-1.52c0-1.368,0.38-3.04,1.178-5.092
	c0.836-2.052,1.748-3.61,2.698-4.675c1.178-1.292,2.698-1.938,4.483-1.938c2.698,0,5.246,0.875,7.526,2.584
	c2.47,1.9,3.724,4.143,3.762,6.803L535.987,510.866z M532.149,499.426L532.149,499.426c0-1.938-1.483-2.888-4.447-2.888
	c-2.356,0-4.445,0.418-6.195,1.216c-2.279,1.064-3.419,2.66-3.419,4.751c0,1.292,0.606,2.318,1.822,3.04
	c0.989,0.646,2.206,0.95,3.612,0.95c2.052,0,3.99-0.684,5.852-2.014C531.236,503.151,532.149,501.44,532.149,499.426
	L532.149,499.426z"/>
<path d="M553.317,486.087c-0.38,0.304-1.292,0.532-2.736,0.722c-1.597,0.19-2.546,0.342-2.775,0.493
	c-0.037,0.533-0.037,3.193-0.037,8.02c0,3.763,0.037,6.271,0.114,7.563c0,0.533,0.113,1.369,0.38,2.546
	c0.228,1.141,0.381,2.015,0.381,2.623c0,0.417-0.268,0.798-0.761,1.178c-0.494,0.38-0.913,0.57-1.292,0.57
	c-0.951,0-1.711-0.988-2.282-2.964c-0.379-1.444-0.568-2.813-0.568-4.105c0-6.765,0.038-11.781,0.113-15.012
	c-0.304-0.228-1.406-0.228-3.306,0c-1.558,0.228-2.318-0.342-2.318-1.634c0-1.825,1.937-2.661,5.852-2.546l0.951-13.035
	c0-0.153-0.075-0.381-0.19-0.646c-0.113-0.343-0.189-0.571-0.189-0.723c0-0.266,0.189-0.532,0.569-0.798
	c0.38-0.304,0.837-0.418,1.369-0.343c1.71,0.152,2.546,0.988,2.546,2.509c0,1.215-0.152,3.002-0.493,5.434
	c-0.343,2.395-0.533,4.181-0.533,5.321c0,0.57,0.038,1.14,0.152,1.634l3.952-0.19c1.33,0,2.015,0.532,2.015,1.596
	C554.229,485.061,553.925,485.669,553.317,486.087L553.317,486.087z"/>
<path d="M564.415,469.783c0,1.634-0.799,2.47-2.318,2.47c-0.913,0-1.786-0.342-2.548-1.025c-0.759-0.685-1.14-1.444-1.14-2.319
	c0-1.634,0.837-2.432,2.471-2.432c0.95,0,1.785,0.304,2.471,0.95C564.034,468.035,564.415,468.832,564.415,469.783L564.415,469.783z
	 M563.009,480.614L563.009,480.614c0,0.836-0.191,2.166-0.571,3.876c-0.379,1.749-0.57,3.041-0.57,3.915v15.923
	c0,1.065,0.229,2.509,0.646,4.333c-0.189,0.38-0.455,0.571-0.797,0.571c-2.357,0-3.497-1.14-3.497-3.383v-26.451
	c0.608-0.342,1.216-0.532,1.786-0.532c0.569,0,1.178,0.19,1.824,0.532C562.628,479.702,563.009,480.12,563.009,480.614
	L563.009,480.614z"/>
<path d="M588.7,480.082c0.303,4.143-0.571,9.843-2.585,17.102c-2.168,8.096-4.485,12.123-6.879,12.123
	c-2.851,0-5.511-3.04-7.906-9.159c-1.52-3.687-2.735-8.057-3.762-13.111c-0.493-2.394-0.722-4.864-0.722-7.449
	c0-0.38,0.229-0.76,0.608-1.178c0.418-0.418,0.836-0.608,1.217-0.608c0.568,0,1.444,0.457,2.583,1.406
	c-0.19,0.836-0.304,1.672-0.304,2.47c0,2.926,0.57,6.5,1.747,10.604c1.064,3.763,2.319,7.106,3.726,10.11
	c0.836,1.633,1.52,2.432,2.053,2.432c1.861,0,3.496-3.762,4.902-11.326c1.064-5.852,1.595-10.603,1.595-14.289
	c0-0.266,0.229-0.57,0.686-0.912c0.418-0.342,0.836-0.494,1.177-0.494C588.015,477.802,588.661,478.562,588.7,480.082L588.7,480.082
	z"/>
<path d="M611.464,510.866c0,0.683-0.533,1.026-1.559,1.026c-1.179,0-1.862-0.494-2.091-1.444c-0.075-0.152-0.075-1.065-0.075-2.813
	c0-0.494-0.076-0.874-0.228-1.14c-2.698,1.976-5.588,2.965-8.704,2.965c-2.204,0-4.294-0.608-6.309-1.825
	c-2.279-1.33-3.458-3.002-3.458-5.016c0-1.976,1.368-3.915,4.104-5.777c2.509-1.749,4.826-2.623,6.955-2.623h7.106
	c0.305-0.266,0.418-0.76,0.418-1.52c0-3.193-0.266-5.625-0.761-7.259c-0.873-2.736-2.583-4.104-5.092-4.104
	c-1.861,0-3.534,1.14-5.093,3.458c-1.407,2.128-2.09,4.143-2.09,6.042c0,0.115,0,0.267,0,0.456c0,0.19,0,0.304,0,0.342
	c0,0.38-0.19,0.57-0.57,0.57c-0.494,0-1.026-0.266-1.596-0.836c-0.57-0.57-0.836-1.103-0.836-1.52c0-1.368,0.418-3.04,1.216-5.092
	c0.797-2.052,1.71-3.61,2.659-4.675c1.217-1.292,2.698-1.938,4.485-1.938c2.736,0,5.244,0.875,7.563,2.584
	c2.432,1.9,3.686,4.143,3.725,6.803L611.464,510.866z M607.625,499.426L607.625,499.426c0-1.938-1.482-2.888-4.446-2.888
	c-2.356,0-4.408,0.418-6.194,1.216c-2.28,1.064-3.384,2.66-3.384,4.751c0,1.292,0.571,2.318,1.787,3.04
	c1.026,0.646,2.205,0.95,3.61,0.95c2.052,0,3.991-0.684,5.853-2.014C606.713,503.151,607.625,501.44,607.625,499.426
	L607.625,499.426z"/>
<path d="M396.396,592.842c-6.499,2.354-13.338,3.533-20.559,3.533c-5.663,0-9.615-1.976-11.896-5.967
	c-1.749-3.04-2.622-7.639-2.622-13.682c0-3.572,0.304-8.817,0.874-15.771c0.57-6.993,0.875-12.238,0.875-15.772
	c0-0.685-0.077-1.709-0.191-3.154c-0.114-1.444-0.19-2.546-0.19-3.269c0-0.722,0.076-1.521,0.19-2.432
	c1.178-1.406,2.66-2.128,4.409-2.128c1.672,0,2.964,1.064,3.876,3.229c0.722,1.673,1.064,3.459,1.064,5.397
	c0,4.067-0.379,10.146-1.178,18.205c-0.76,8.057-1.141,14.099-1.141,18.128c0,7.069,2.014,10.641,6.005,10.641
	c1.824,0,4.409-0.607,7.752-1.824c3.382-1.254,5.967-1.861,7.792-1.861c1.672,0,2.964,0.722,3.838,2.241
	C396.055,589.572,396.396,591.054,396.396,592.842L396.396,592.842z"/>
<path d="M434.477,577.45c0,5.396-1.367,10.033-4.065,13.87c-3.116,4.371-7.259,6.575-12.427,6.575c-5.283,0-9.312-1.785-12.01-5.396
	c-2.471-3.191-3.687-7.524-3.687-12.997c0-5.397,1.369-10.526,4.066-15.316c3.117-5.701,7.183-8.551,12.162-8.551
	c1.558,0,3.496,0.685,5.853,2.053C431.095,561.715,434.477,568.328,434.477,577.45L434.477,577.45z M426.535,577.259
	L426.535,577.259c0-9.197-2.205-13.796-6.65-13.796c-3.193,0-5.625,1.976-7.222,5.891c-1.216,2.927-1.786,6.232-1.786,9.995
	c0,7.981,2.355,11.971,7.107,11.971c3.039,0,5.319-1.672,6.84-4.978C425.964,583.833,426.535,580.793,426.535,577.259
	L426.535,577.259z"/>
<path d="M469.745,586.114c0,2.813-1.215,5.281-3.61,7.372c-2.66,2.281-6.194,3.421-10.641,3.421
	c-1.938,0.075-3.99-0.342-6.233-1.178c-7.184-2.698-10.792-4.903-10.792-6.575c0-2.622,1.899-3.953,5.699-3.953
	c0.494,0,1.065,0.038,1.673,0.076c0.19,1.824,1.635,3.27,4.333,4.332c2.356,0.951,4.598,1.369,6.765,1.179
	c1.748-0.114,2.622-0.76,2.622-1.899c0-0.189-0.037-0.457-0.152-0.837c-0.075-0.341-0.113-0.607-0.113-0.835
	c0-0.191-1.141-0.684-3.421-1.406c-2.584-0.761-4.028-1.216-4.333-1.33c-6.879-4.105-10.299-9.008-10.299-14.823
	c0-3.458,0.987-6.65,3.003-9.615c2.204-3.23,4.979-4.864,8.285-4.864c2.432,0,5.243,0.951,8.399,2.889
	c3.153,1.899,5.091,3.991,5.852,6.194c0.456,1.596,0.684,2.888,0.684,3.876c0,1.103-0.151,2.015-0.456,2.736
	c-0.341,0.875-0.683,1.786-1.063,2.699c-1.142,0.797-2.28,1.178-3.421,1.178c-0.608,0-1.595-0.381-3.001-1.141
	c-1.444-0.723-2.129-1.368-2.129-1.938c0-0.229,0.341-1.026,1.064-2.319c0.417-0.799,0.646-1.482,0.646-2.014
	c0-3.611-1.406-5.397-4.257-5.397c-1.672,0-2.964,1.064-3.838,3.23c-0.685,1.672-0.988,3.495-0.988,5.396
	c0,2.433,1.71,4.599,5.131,6.498c3.116,1.406,6.271,2.813,9.463,4.256C468.036,582.883,469.745,584.48,469.745,586.114
	L469.745,586.114z"/>
<path d="M545.716,536.898c0,0.836-0.266,1.52-0.798,2.053c-0.912,1.025-1.405,1.558-1.443,1.634
	c-0.342,0.607-0.724,2.166-1.103,4.674c-1.521,12.276-2.242,24.361-2.242,36.333c0,6.726,1.178,10.488,3.61,11.364v2.393
	c-0.722,1.52-1.824,2.28-3.344,2.28c-3.042,0-5.359-2.66-6.918-8.02c-1.141-3.761-1.709-7.752-1.709-11.895
	c0-9.083,0.228-16.646,0.683-22.726c-1.786,7.031-3.61,14.1-5.472,21.207c-3.383,10.906-6.612,16.378-9.73,16.378
	c-3.533,0-6.688-3.192-9.386-9.614c-2.546-5.854-5.625-15.657-9.273-29.378c-0.38,4.067-0.57,8.209-0.57,12.504
	c0,8.816,0.267,15.238,0.76,19.191c0.038,0.723,0.381,1.863,0.989,3.459c0.645,1.597,0.988,2.851,0.988,3.762
	c0,1.978-1.672,2.964-4.98,2.964c-3.912,0-5.852-5.244-5.852-15.772c0-4.256,0.228-10.64,0.723-19.115
	c0.456-8.475,0.722-14.784,0.722-19.003c0-0.494-0.266-0.987-0.722-1.52c-0.495-0.532-0.723-1.063-0.723-1.558
	c0-3.344,3.003-5.054,9.007-5.054c1.405,0,3.042,0.874,4.979,2.623c0.152,1.862,0.456,4.712,0.875,8.474
	c0.607,5.283,2.014,12.276,4.219,21.017c2.964,11.249,5.509,16.836,7.677,16.836c0.493,0,1.14-0.913,1.937-2.813
	c1.482-3.61,2.964-8.665,4.371-15.202c1.103-5.244,2.167-10.451,3.269-15.696c0.456-2.431,1.331-6.004,2.584-10.641
	c1.293-3.421,3.914-5.131,7.943-5.131c1.444,0,3.191,0.343,5.244,0.988C544.5,534.733,545.716,535.758,545.716,536.898
	L545.716,536.898z"/>
<path d="M584.595,577.45c0,5.396-1.33,10.033-4.066,13.87c-3.116,4.371-7.259,6.575-12.39,6.575c-5.321,0-9.311-1.785-12.009-5.396
	c-2.471-3.191-3.688-7.524-3.688-12.997c0-5.397,1.33-10.526,4.028-15.316c3.116-5.701,7.184-8.551,12.201-8.551
	c1.558,0,3.495,0.685,5.852,2.053C581.249,561.715,584.595,568.328,584.595,577.45L584.595,577.45z M576.689,577.259
	L576.689,577.259c0-9.197-2.242-13.796-6.689-13.796c-3.192,0-5.585,1.976-7.219,5.891c-1.179,2.927-1.788,6.232-1.788,9.995
	c0,7.981,2.357,11.971,7.146,11.971c3.04,0,5.321-1.672,6.841-4.978C576.12,583.833,576.689,580.793,576.689,577.259
	L576.689,577.259z"/>
<path d="M621.231,585.012c0,1.862-1.444,4.067-4.257,6.575c-2.547,2.355-4.79,3.837-6.803,4.408
	c-2.015,0.607-3.916,0.912-5.701,0.912c-4.75,0-8.475-1.483-11.173-4.484c-2.66-3.003-3.991-6.879-3.991-11.667
	c0-4.598,1.216-9.767,3.687-15.468c2.927-6.841,6.385-10.299,10.299-10.299c2.13,0,4.751,0.835,7.83,2.508
	c3.23,1.9,5.13,3.762,5.661,5.625c0.495,1.596,0.761,3.458,0.761,5.471c0,1.863-0.418,3.991-1.217,6.31
	c-0.949,3.002-2.127,4.522-3.571,4.522c-1.026,0-1.978-0.304-2.888-0.913c-1.103-0.646-1.635-1.444-1.635-2.432
	c0-0.038,0.266-0.761,0.798-2.053c0.304-0.607,0.455-2.279,0.455-4.978c0-2.205-0.075-3.649-0.265-4.333
	c-0.381-1.863-1.217-2.774-2.509-2.774c-2.965,0-5.244,2.546-6.879,7.638c-1.215,3.801-1.786,7.64-1.786,11.477
	c0,6.424,2.016,9.616,6.12,9.616c1.633,0,3.495-0.836,5.584-2.508c1.939-1.559,3.27-3.154,4.067-4.788
	c0.95-1.901,2.128-2.889,3.497-2.889c0.913,0,1.786,0.532,2.623,1.597C620.813,583.112,621.231,584.099,621.231,585.012
	L621.231,585.012z"/>
<path d="M654.978,596.641c-1.139,1.141-2.659,1.71-4.521,1.71c-1.255,0-2.547-0.797-3.839-2.355
	c0.039-5.283,0.076-9.349,0.076-12.237c0-13.34-1.977-20.028-5.854-20.028c-4.026,0-6.042,5.396-6.042,16.151
	c0,0.608,0.038,1.481,0.076,2.622c0,1.141,0,2.015,0,2.623c0,0.875,0.151,2.243,0.456,4.104c0.305,1.824,0.457,3.193,0.457,4.067
	c0,0.798-0.496,1.481-1.406,2.127c-0.913,0.646-1.787,0.951-2.585,0.951c-1.482,0-2.774-0.607-3.801-1.861
	c-1.063-1.217-1.597-2.584-1.597-4.105l0.533-52.066c0-0.19-0.037-0.456-0.076-0.759c-0.077-0.305-0.077-0.495-0.077-0.609
	c0-2.165,1.179-3.229,3.611-3.229c1.141,0,2.433,0.531,3.953,1.558c1.52,1.065,2.24,2.128,2.24,3.192
	c0,1.33-0.265,3.308-0.873,5.891c-0.531,2.584-0.836,4.523-0.836,5.815c0,1.71,0.075,4.371,0.189,8.057
	c1.33-0.798,2.433-1.216,3.345-1.216c2.317,0,4.865,0.608,7.639,1.749c3.535,1.482,6.005,3.914,7.411,7.297
	c0.988,2.507,1.52,6.004,1.52,10.451V596.641z"/>
<path d="M688.916,563.044c0,1.825-0.189,4.638-0.646,8.399c-0.455,3.763-0.686,6.613-0.686,8.513c0,1.673,0.077,4.219,0.23,7.563
	c0.15,3.306,0.228,5.777,0.228,7.411c0,1.369-1.179,2.052-3.536,2.052c-2.393,0-3.915-1.177-4.598-3.496
	c-2.281,1.482-4.483,2.243-6.651,2.243c-1.747,0-3.724-0.457-5.966-1.368c-2.204-0.951-3.763-2.091-4.675-3.383
	c-1.748-2.546-2.622-6.612-2.622-12.161c0-1.939,0.076-5.321,0.19-10.109c0.189-4.294,0.228-7.602,0.189-10.034
	c1.785-1.292,3.308-1.938,4.483-1.938c2.889,0,4.333,1.406,4.333,4.219c0,0.95-0.152,2.395-0.379,4.333
	c-0.267,1.899-0.419,3.344-0.419,4.294v12.732c0,1.444,0.38,2.926,1.179,4.484c0.949,1.825,2.09,2.698,3.42,2.698
	c2.584,0,4.484-1.633,5.777-4.94c0.836-2.281,1.254-5.017,1.254-8.285v-10.832c0-1.368-0.38-3.078-1.104-5.129
	c1.521-1.369,2.965-2.053,4.372-2.053c1.405,0,2.698,0.417,3.876,1.33C688.346,560.499,688.916,561.64,688.916,563.044
	L688.916,563.044z"/>
<path d="M723.119,587.255c0,3.002-2.051,5.357-6.118,7.03c-3.192,1.329-6.536,1.976-9.995,1.976
	c-9.271,0-13.909-5.244-13.909-15.771c0-4.332,1.063-9.121,3.154-14.403c2.584-6.5,5.738-9.73,9.387-9.73
	c3.307,0,6.842,1.482,10.681,4.409c3.799,2.926,5.7,6.004,5.7,9.196c0,3.953-1.749,7.107-5.321,9.464
	c-3.116,2.09-6.841,3.154-11.136,3.154c-0.837,0-2.203-0.493-4.065-1.521c0.228,5.701,1.899,8.551,5.054,8.551
	c2.623,0,5.245-0.721,7.791-2.241c2.546-1.521,4.181-2.243,4.903-2.243C721.827,585.125,723.119,585.848,723.119,587.255
	L723.119,587.255z M713.314,570.229L713.314,570.229c0-1.483-0.456-2.926-1.329-4.257c-0.875-1.368-2.015-2.053-3.459-2.053
	c-1.977,0-3.533,0.875-4.598,2.585c-0.913,1.52-1.369,3.306-1.369,5.358c0,1.141,0.38,2.052,1.179,2.813
	c0.759,0.722,1.785,1.063,2.964,1.063C711.11,575.738,713.314,573.914,713.314,570.229L713.314,570.229z"/>
<path d="M738.056,592.764c0,1.064-0.455,2.014-1.33,2.736c-0.875,0.76-1.862,1.14-3.002,1.14c-3.763,0-5.663-4.978-5.663-14.897
	c0-4.484,0.038-11.25,0.114-20.257c0.075-9.007,0.152-15.772,0.152-20.294c0-0.722-0.114-1.748-0.305-3.116
	c-0.151-1.406-0.228-2.433-0.228-3.116c1.976-1.292,3.533-1.977,4.675-1.977c1.329,0,2.584,0.457,3.8,1.331
	c1.178,0.874,1.786,1.977,1.786,3.269c0,0.683-0.151,1.444-0.455,2.355c-0.419,1.444-0.686,2.243-0.724,2.357
	c-0.76,3.725-1.141,9.006-1.141,15.848c0,10.87,0,16.494,0,16.76c0.152,7.6,0.799,12.883,1.864,15.885
	C737.904,591.625,738.056,592.271,738.056,592.764L738.056,592.764z"/>
<path d="M774.464,577.45c0,5.396-1.367,10.033-4.065,13.87c-3.118,4.371-7.26,6.575-12.429,6.575c-5.282,0-9.273-1.785-12.01-5.396
	c-2.432-3.191-3.686-7.524-3.686-12.997c0-5.397,1.368-10.526,4.066-15.316c3.116-5.701,7.183-8.551,12.161-8.551
	c1.558,0,3.497,0.685,5.854,2.053C771.081,561.715,774.464,568.328,774.464,577.45L774.464,577.45z M766.521,577.259
	L766.521,577.259c0-9.197-2.205-13.796-6.652-13.796c-3.191,0-5.624,1.976-7.221,5.891c-1.215,2.927-1.785,6.232-1.785,9.995
	c0,7.981,2.356,11.971,7.106,11.971c3.078,0,5.359-1.672,6.841-4.978C765.951,583.833,766.521,580.793,766.521,577.259
	L766.521,577.259z"/>
<path d="M809.731,586.114c0,2.813-1.216,5.281-3.61,7.372c-2.622,2.281-6.195,3.421-10.642,3.421
	c-1.938,0.075-3.989-0.342-6.194-1.178c-7.221-2.698-10.832-4.903-10.832-6.575c0-2.622,1.902-3.953,5.701-3.953
	c0.494,0,1.064,0.038,1.673,0.076c0.19,1.824,1.635,3.27,4.333,4.332c2.355,0.951,4.598,1.369,6.764,1.179
	c1.75-0.114,2.623-0.76,2.623-1.899c0-0.189-0.039-0.457-0.152-0.837c-0.075-0.341-0.114-0.607-0.114-0.835
	c0-0.191-1.14-0.684-3.42-1.406c-2.585-0.761-4.028-1.216-4.332-1.33c-6.88-4.105-10.3-9.008-10.3-14.823
	c0-3.458,0.988-6.65,3.001-9.615c2.205-3.23,4.98-4.864,8.286-4.864c2.471,0,5.245,0.951,8.398,2.889
	c3.154,1.899,5.131,3.991,5.854,6.194c0.456,1.596,0.685,2.888,0.685,3.876c0,1.103-0.152,2.015-0.419,2.736
	c-0.38,0.875-0.723,1.786-1.102,2.699c-1.141,0.797-2.281,1.178-3.421,1.178c-0.607,0-1.597-0.381-3.003-1.141
	c-1.405-0.723-2.127-1.368-2.127-1.938c0-0.229,0.342-1.026,1.063-2.319c0.457-0.799,0.646-1.482,0.646-2.014
	c0-3.611-1.405-5.397-4.256-5.397c-1.672,0-2.926,1.064-3.839,3.23c-0.684,1.672-0.988,3.495-0.988,5.396
	c0,2.433,1.712,4.599,5.131,6.498c3.116,1.406,6.272,2.813,9.464,4.256C808.021,582.883,809.731,584.48,809.731,586.114
	L809.731,586.114z"/>
<path fill-rule="evenodd" clip-rule="evenodd" fill="#A7E2F9" d="M286.146,403.086c0,0-3.153-4.523-10.565-8.665
	c-0.874,0.569-1.748,1.102-2.661,1.558c5.815,3.534,11.212,7.524,16.114,12.009c0.608,1.026,1.141,1.938,1.482,2.47
	c0.038,0.076,0.076,0.19,0.152,0.266l0.038,0.038l0.038,0.038c0.114,0.152,0.228,0.343,0.418,0.608
	C289.453,406.734,286.146,403.086,286.146,403.086z"/>
</svg>
