<svg width="283.46" height="354.325" xmlns="http://www.w3.org/2000/svg">

 <g>
  <title>background</title>
  <rect fill="none" id="canvas_background" height="402" width="582" y="-1" x="-1"/>
 </g>
 <g>
  <title>Layer 1</title>
  <rect id="svg_5" height="223.001767" width="201.001593" y="87.161793" x="41.729203" stroke-width="0" stroke="#443f26" fill="#25ba83"/>
  <path stroke-width="4" stroke="#2b2818" id="svg_1" d="m277.502495,74.022991c0,-8.774949 -7.111848,-15.886797 -15.888063,-15.886797l-57.671908,0l-1.97699,-22.651849c-1.280867,-14.62365 -13.764254,-26.079306 -28.41828,-26.079306l-63.680084,0c-14.655292,0 -27.136148,11.455656 -28.41828,26.079306l-1.982053,22.651849l-57.623812,0c-8.774949,0 -15.885531,7.111848 -15.885531,15.886797c0,8.744573 7.067549,15.833639 15.801997,15.881734c-0.135428,1.042919 -0.168335,2.104823 -0.087332,3.170525l17.785315,237.289412c0.612588,8.209191 7.454847,14.555303 15.689351,14.555303l175.797686,0c8.234505,0 15.0717,-6.346112 15.688085,-14.555303l17.78658,-237.289412c0.0848,-1.149236 0.03797,-2.290878 -0.124036,-3.409738c7.49788,-1.275804 13.207356,-7.785189 13.207356,-15.642521zm-108.538263,81.085696c-2.476933,3.392018 -5.122201,5.868951 -7.835816,7.581414c2.017492,-14.56796 -0.682201,-30.247186 -7.987697,-45.051828c-0.036705,-0.0848 -0.103786,-0.053158 -0.073409,0.030376c5.547469,16.532293 5.899328,33.329113 1.266944,48.070471c-0.155678,0.49488 -0.312623,0.983432 -0.478426,1.468187c-0.075941,0.215165 -0.146819,0.421471 -0.221494,0.630308c-0.136693,0.399954 -0.284778,0.796112 -0.430331,1.193535c-0.091129,0.249339 -0.184789,0.499943 -0.282246,0.74675c-0.131631,0.341733 -0.270855,0.682201 -0.405017,1.018871c-0.116442,0.287309 -0.231619,0.56829 -0.346796,0.845473c-0.116442,0.272121 -0.236682,0.546773 -0.35439,0.813831c-0.372109,0.848005 -0.759407,1.688415 -1.16569,2.5187c-0.003797,0.005063 -0.006328,0.010125 -0.010125,0.013922c-0.96065,1.95927 -2.02382,3.867914 -3.188244,5.712007c-1.040388,1.656773 -3.228746,2.147856 -4.880456,1.107469c-0.340468,-0.215165 -0.627777,-0.477161 -0.870787,-0.768267c-0.92268,-1.149236 -1.066967,-2.803478 -0.237948,-4.118518c2.256705,-3.573011 4.088142,-7.406751 5.50317,-11.427812c-6.099305,-1.112531 -11.636648,-4.898176 -15.38812,-9.538153c-7.715576,-9.54195 -7.323216,-23.873229 1.801061,-31.683731l0.007594,0.003797c6.8739,-5.561391 10.719032,-13.445303 11.427812,-21.508941c0.179726,-2.033945 1.737777,-1.51122 2.551608,-1.178347c6.128415,2.512372 12.178359,6.984014 17.152476,13.128883c11.194927,13.845258 12.973205,28.771405 4.446329,40.391599zm-56.122718,-113.932585l57.728864,0l1.48211,16.961358l-60.694349,0l1.483375,-16.961358zm-20.914072,197.510402c-18.623194,-2.833854 -33.008896,-19.497778 -30.748394,-37.793161l-0.010125,0.007594c2.041539,-13.41999 -1.735245,-26.350161 -9.274892,-36.233845c-1.903581,-2.48959 0.405017,-3.508461 1.668164,-3.974231c9.553342,-3.493273 21.041906,-4.690605 33.04307,-2.862965c25.667961,3.908415 42.700197,17.7195 46.361805,37.953902c-3.395816,2.692098 -6.466352,5.715804 -9.195155,9.048336c-12.218861,-13.563011 -28.258805,-24.570617 -47.046537,-31.917881c-0.130365,-0.051893 -0.173398,0.048096 -0.051893,0.113911c17.738485,9.85837 32.239364,22.984722 42.581223,38.126035c-2.71488,4.36406 -4.932349,9.147059 -6.603045,14.331278c-1.350479,4.151426 -2.31366,8.223113 -2.893341,12.201141c-5.842372,1.606146 -12.066979,1.873204 -17.830879,0.999886zm139.934685,-32.454529c-12.035337,10.429191 -20.155931,25.635053 -21.093799,43.001428l-0.001266,0.017719c-1.933957,23.544152 -24.330139,40.692831 -48.427392,39.394244c-11.721449,-0.635371 -24.140287,-5.10195 -32.941815,-13.533901c-4.781734,6.886557 -8.777481,14.223695 -11.877127,21.941803c-1.141642,2.840183 -3.942589,4.515941 -6.837195,4.360263c-0.745485,-0.03797 -1.492235,-0.201243 -2.221266,-0.49488c-3.569213,-1.432748 -5.299396,-5.490513 -3.867914,-9.057196c1.602349,-3.981825 3.418598,-7.875052 5.42723,-11.665759c0.007594,-0.010125 0.011391,-0.017719 0.017719,-0.026579c0.851802,-1.608677 1.746636,-3.193307 2.66805,-4.766545c0.293637,-0.501209 0.587275,-1.003683 0.888506,-1.501095c0.308826,-0.508803 0.627777,-1.018871 0.941665,-1.525143c0.383501,-0.610057 0.769533,-1.220114 1.161893,-1.826374c0.287309,-0.437925 0.575884,-0.874584 0.86699,-1.312509c0.459441,-0.687263 0.925211,-1.377058 1.402372,-2.06179c0.248073,-0.355656 0.497412,-0.715108 0.750547,-1.075827c0.584743,-0.825222 1.182144,-1.642851 1.789669,-2.456682c18.15869,-24.369375 45.340402,-43.171029 78.084772,-53.383789c0.170867,-0.051893 0.141756,-0.189852 -0.031642,-0.162007c-32.012807,5.42723 -60.123528,19.201609 -81.016083,39.205658c-0.396157,-6.301813 0.497412,-13.369362 3.054082,-21.233023c8.69268,-26.985532 34.532773,-41.353515 69.506003,-39.465122c15.524813,0.837879 29.627003,5.332304 40.696628,12.207469c1.465656,0.91382 4.09447,2.78829 1.059373,5.419635z" fill="#f9cb40"/>
 </g>
</svg>