<svg viewBox="0 0 2481 3508" xmlns="http://www.w3.org/2000/svg" fill-rule="evenodd" clip-rule="evenodd" stroke-linejoin="round" stroke-miterlimit="1.414"><path d="M1303.73 2456.72c0 30.623-24.825 55.455-55.455 55.455-30.619 0-55.451-24.832-55.451-55.455 0-30.626 24.832-55.454 55.451-55.454 30.63 0 55.455 24.828 55.455 55.454" fill="#1d1d1b" fill-rule="nonzero"/><path d="M1282.36 2456.72c0 18.826-15.259 34.082-34.082 34.082-18.822 0-34.075-15.256-34.075-34.082 0-18.825 15.253-34.082 34.075-34.082 18.823 0 34.082 15.257 34.082 34.082" fill="#5e5e5f" fill-rule="nonzero"/><path d="M1265.18 2458.88c0 9.333-7.563 16.897-16.897 16.897-9.333 0-16.893-7.564-16.893-16.897 0-9.333 7.56-16.897 16.893-16.897 9.334 0 16.897 7.564 16.897 16.897" fill="#1d1d1b" fill-rule="nonzero"/><path d="M1235.28 2376.14l2.599 84.048s-2.599 10.396 10.396 11.262c0 0 8.663 1.734 13.865-9.529l32.924-80.582-59.784-5.199z" fill="#f9cb40" fill-rule="nonzero"/><path d="M1221.42 2355.34l7.803 29.46h74.512v-25.994l-82.315-3.466z" fill="#e5af29" fill-rule="nonzero"/><path d="M1254.35 2457.72a6.493 6.493 0 0 1-6.498 6.498 6.5 6.5 0 0 1-6.501-6.498 6.505 6.505 0 0 1 6.501-6.498 6.497 6.497 0 0 1 6.498 6.498" fill="#c35d17" fill-rule="nonzero"/><path d="M1985.02 2460.04c0 30.622-24.825 55.454-55.454 55.454-30.623 0-55.452-24.832-55.452-55.454 0-30.626 24.829-55.455 55.452-55.455 30.629 0 55.454 24.829 55.454 55.455" fill="#1d1d1b" fill-rule="nonzero"/><path d="M1963.65 2460.04c0 18.825-15.26 34.082-34.082 34.082-18.82 0-34.076-15.257-34.076-34.082 0-18.826 15.256-34.083 34.076-34.083 18.822 0 34.082 15.257 34.082 34.083" fill="#5e5e5f" fill-rule="nonzero"/><path d="M1946.46 2462.21c0 9.333-7.567 16.896-16.9 16.896-9.333 0-16.893-7.563-16.893-16.896 0-9.334 7.56-16.897 16.893-16.897 9.333 0 16.9 7.563 16.9 16.897" fill="#1d1d1b" fill-rule="nonzero"/><path d="M1916.57 2379.46l2.6 84.048s-2.6 10.395 10.395 11.262c0 0 8.663 1.733 13.865-9.529l32.924-80.582-59.784-5.199z" fill="#f9cb40" fill-rule="nonzero"/><path d="M1902.7 2358.66l7.803 29.461h74.512v-25.994l-82.315-3.467z" fill="#e5af29" fill-rule="nonzero"/><path d="M1935.63 2461.05a6.492 6.492 0 0 1-6.497 6.498 6.499 6.499 0 0 1 0-12.995 6.496 6.496 0 0 1 6.497 6.497" fill="#c35d17" fill-rule="nonzero"/><path d="M1882.07 1719.03l313.387-.84-66.235-79.716s-17.764-21.946-59.765-21.946H1145.454c-42.008 0-59.771 21.946-59.771 21.946l-66.235 79.716 313.393.84v1.471l274.61-.734 274.619.734v-1.471z" fill="#e5af29" fill-rule="nonzero"/><path d="M2064.41 1700.53l-38.877-46.786s-14.237-17.587-47.891-17.587h-740.394c-33.654 0-47.895 17.587-47.895 17.587l-38.87 46.786h913.927z" fill="#322507" fill-rule="nonzero"/><path fill="#e5af29" d="M961.293 1837.18h111.46v39.856h-111.46z"/><path d="M1072.75 1877.04h-58.151l-8.084-39.856h66.235v39.856z" fill="#e5af29" fill-rule="nonzero"/><path fill="#e5af29" d="M2143.76 1837.18h111.467v39.856H2143.76z"/><path d="M2143.76 1877.04h58.157l8.072-39.856h-66.229v39.856z" fill="#e5af29" fill-rule="nonzero"/><path d="M1608.26 1753.26v-.989l-35.865.528-40.869-.528.024 1.129-512.106 7.536s75.117 542.407 77.544 547.603c2.427 5.199 0 53.724 84.805 62.387h858.585c84.806-8.663 82.378-57.188 84.806-62.387 2.427-5.196 77.544-547.603 77.544-547.603l-594.468-7.676z" fill="#f9cb40" fill-rule="nonzero"/><path d="M1021.89 1778.52h1178.4c1.564-11.262 2.444-17.584 2.444-17.584l-594.467-7.673v-.992l-35.866.528-40.868-.528.023 1.129-512.106 7.536s.88 6.322 2.444 17.584M1033.98 1788.66l72.69 490.418s-2.42 77.982 106.619 83.182h462.814l-327.119-34.66s-94.501-3.466-111.467-84.912c-16.956-81.448-60.571-455.761-60.571-455.761l-142.966 1.733z" fill="#e5af29" fill-rule="nonzero"/><path d="M1121.51 1761.8l13.33 54.588h12.113l7.882-55.455-33.325.867zM1356.56 1761.8l13.331 54.588h12.112l7.872-55.455-33.315.867zM1591.6 1761.8l13.324 54.588h12.119l7.875-55.455-33.318.867zM1826.64 1761.8l13.324 54.588h12.115l7.876-55.455-33.315.867zM2061.68 1761.8l13.324 54.588h12.119l7.872-55.455-33.315.867z" fill="#e5af29" fill-rule="nonzero"/><path fill="#a66a0f" d="M1002.68 1733.78H2212.6v8.088H1002.68z"/><path fill="#f9cb40" d="M992.364 1741.29h1230.55v26.572H992.364zM992.364 1710.1h1230.55v26.572H992.364z"/><path fill="#ffd876" d="M992.364 1709.89h1230.55v17.162H992.364z"/><path d="M1047.68 1702.01l51.7-62.384s20.997-20.797 72.683-19.639h505.621l-465.234 6.93s-14.536-3.467-30.692 9.243-51.686 64.698-51.686 64.698l-82.392 1.152z" fill="#f9cb40" fill-rule="nonzero"/><path d="M507.374 2067.56s24.274 180.438 24.274 200.804c0 20.363-6.415 68.384-20.672 123.37-14.254 54.986-24.437 154.779-24.437 154.779l-55.295.903s.306-188.267-3.765-222.89c-4.074-34.62-36.659-224.023-30.549-232.17 6.109-8.145 96.309-39.734 110.444-24.796" fill="#51331d" fill-rule="nonzero"/><path d="M352.556 2228.89s-7.746-30.988-12.175-42.057c-4.426-11.067-20.144-90.244 15.273-121.232 32.342-28.302 90.974 22.734 90.974 22.734l-94.072 140.555z" fill="#5b3d23" fill-rule="nonzero"/><path d="M431.978 2562.09s-1.467 13.932-3.665 17.601c-2.202 3.665-5.133 6.597-3.669 13.198 1.467 6.6 16.867 28.597 36.665 14.665 19.799-13.932 19.799-37.399 19.799-37.399l2.935-25.665-52.799 2.935.734 14.665z" fill="#f4b77f" fill-rule="nonzero"/><path d="M587.806 2636.84s3.327 16.406-25.433 23.292c-19.301 4.612-65.299-2.822-82.601-4.542-17.295-1.72-48.887-4.732-52.091-7.172-3.191-2.414-9.19-3.174-6.272-19.974 2.912-16.837 166.397 8.396 166.397 8.396" fill="#ebedeb" fill-rule="nonzero"/><path d="M433.683 2591.56l-9.479-7.636s-7.251 11.537-3.147 47.625c0 0 37.412 6.358 52.788 9.768 15.416 3.453 56.905 8.367 67.67 9.058 9.801.634 19.851-1.727 29.194-4.29 6.143-1.673 17.631-3.227 17.349-11.541-.21-5.684-5.104-12.796-9.891-15.731-1.883-1.136-4.054-1.767-6.193-2.341-7.347-1.989-16.176-3.559-22.202-8.5-3.397-2.799-7.344-4.791-11.146-7.055-9.419-5.562-18.746-11.316-28.043-17.11a2774.28 2774.28 0 0 1-30.602-19.244s-11.933 13.414-7.55 22.239c0 0-33.747 27.512-38.748 4.758" fill="#68d65f" fill-rule="nonzero"/><path d="M468.077 2577.59c-1.205 4.124.594 8.47 4.529 10.575 17.892 9.572 71.388 33.332 78.022 33.684 7.981.422 13.075-2.158 12.261-6.378-.747-3.865-57.187-30.171-75.585-50.687-2.434-2.716-7.181-2.347-10.253-.199-3.283 2.298-7.005 6.269-8.974 13.005" fill="#7ae56e" fill-rule="nonzero"/><path d="M330.919 2567.09s-4.635 15.24-6.661 16.937c-2.028 1.7-3.864 8.018 1.637 17.74 5.498 9.721-1.557 25.994 24.444 14.27 26.004-11.727 25.851-26.462 24.968-34.481-.887-8.018 7.699-10.442 7.699-10.442l7.252-30.184-56.152-10.731-3.187 36.891z" fill="#f4b77f" fill-rule="nonzero"/><path d="M486.171 2641.9s2.008 18.812-26.951 24.819c-19.433 4.02-64.362-7.122-81.604-9.367-17.236-2.244-53.728-6.009-56.856-8.546-3.118-2.507-7.623-4.595-4.197-21.299 3.424-16.741 169.608 14.393 169.608 14.393" fill="#ebedeb" fill-rule="nonzero"/><path d="M333.498 2591.95l-9.24-7.922s-18.484 12.58-7.693 43.482c0 0 40.294 11.517 55.561 15.399 15.303 3.918 56.623 10.093 67.364 11.113 9.775.929 19.895-1.123 29.311-3.4 6.189-1.484 17.72-2.69 17.693-11.007-.039-5.687-4.714-12.949-9.409-16.023-1.846-1.196-4.001-1.893-6.116-2.53-7.285-2.212-16.063-4.051-21.937-9.174-3.307-2.902-7.195-5.014-10.923-7.391-9.247-5.847-18.55-9.313-27.664-15.386-10.041-6.664-19.905-15.95-29.849-22.733 0 0-12.338 13.041-8.225 21.996 0 0-34.57 26.472-38.873 3.576" fill="#68d65f" fill-rule="nonzero"/><path d="M369.555 2580.43c-.973 3.898.707 7.975 4.217 9.924 15.97 8.865 63.632 35.069 69.485 35.341 7.046.328 11.462-6.428 10.655-10.396-.737-3.636-51.039-27.933-67.686-47.104-2.205-2.537-6.378-2.151-9.041-.096-2.846 2.191-6.04 5.966-7.63 12.331" fill="#7ae56e" fill-rule="nonzero"/><path d="M464.886 2083.54s6.876 149.151 4.489 169.378c-2.388 20.224-16.097 84.228-36.699 137.166-20.605 52.937-45.534 163.362-45.534 163.362l-53.953-4.981s24.427-200.054 24.44-234.913c.017-34.862-15.416-144.798-8.394-152.173 7.023-7.374 103.366-94.331 115.651-77.839" fill="#5b3d23" fill-rule="nonzero"/><path d="M525.3 1772.74c9.084 13.998 26.983 32.601 26.983 32.601l-31.452 48.87 11.81 23.737c-22.614-22.684-74.125-37.187-74.125-37.187l-18.125 97.316 79.812 56.889.007.04c-.322 1.796-10.555 59.1-13.886 69.861-3.36 10.92-121.859 38.079-159.656 5.883-25.128-21.405.226-201.169 3.357-229.441 3.087-28.262 42.777-91.419 42.777-91.419 8.49 10.986 7.265 8.858 19.434 6.458 12.168-2.401 46.516 3.459 52.904 3.785 6.385.325 11.568-13.361 11.568-13.361 7.311.946 39.507 11.969 48.592 25.968" fill="#68d65f" fill-rule="nonzero"/><path d="M520.832 1854.21s44.049 21.05 54.817 24.739c10.771 3.688 32.731 5.166 36.595 5.989 3.862.824 24.716-43.461 24.716-43.461s-48.449-30.075-84.676-36.138c-36.227-6.063-31.452 48.871-31.452 48.871" fill="#f4b77f" fill-rule="nonzero"/><path d="M577.953 1789.81l201.774 77.734 142.733-263.248-201.767-77.73-142.74 263.244z" fill="url(#_Linear1)" fill-rule="nonzero"/><path d="M601.636 1781.46l170.082 65.525 127.065-234.342-170.082-65.524-127.065 234.341z" fill="url(#_Linear2)" fill-rule="nonzero"/><path d="M760.277 1817.62l104.674-193.048-124.811-48.084-104.674 193.048 124.811 48.084z" fill="#daf1fa" fill-rule="nonzero"/><clipPath id="a"><path d="M635.466 1769.53l124.811 48.083 104.673-193.044-124.811-48.084-104.673 193.045z" clip-rule="nonzero"/></clipPath><g clip-path="url(#a)" fill-rule="nonzero"><path d="M700.278 1616.89c2.132 1.726 4.752 3.802 7.913 6.01 3.147 2.217 6.74 4.688 10.807 7.188 2.032 1.255 4.147 2.566 6.338 3.921a6953.05 6953.05 0 0 1 6.946 3.971c4.745 2.762 9.904 5.439 15.237 8.234 5.378 2.716 10.933 5.528 16.661 8.261 5.773 2.649 11.64 5.342 17.507 8.032l17.783 7.556c5.867 2.491 11.79 4.675 17.438 6.936 5.638 2.275 11.203 4.27 16.472 6.166 5.256 1.929 10.263 3.676 14.884 5.279 4.619 1.617 8.922 2.962 12.72 4.187 3.812 1.199 7.132 2.241 9.868 3.101a532.886 532.886 0 0 0 8.656 2.583s-2.892-1.414-8.009-3.788c-5.116-2.374-12.467-5.678-21.332-9.549-4.406-1.982-9.181-4.121-14.274-6.302l-15.963-6.953c-11.057-4.827-22.85-9.977-34.64-15.126-5.871-2.604-11.741-5.213-17.521-7.78a18078.4 18078.4 0 0 1-16.857-7.693c-5.372-2.629-10.738-4.93-15.628-7.391-4.948-2.39-9.606-4.668-13.859-6.843-2.155-1.049-4.14-2.154-6.069-3.16-1.923-1.013-3.782-1.936-5.446-2.899a287.27 287.27 0 0 1-8.672-4.97c-2.331-1.471-4.184-2.617-5.376-3.473-1.195-.847-1.789-1.355-1.789-1.355s1.969 2.364 6.205 5.857M872.913 1680.52c-5.618-3.99-12.172-8.649-19.194-13.636l-10.761-7.716a526.933 526.933 0 0 1-11-8.052 426.86 426.86 0 0 1-10.857-8.167c-3.483-2.783-7.019-5.416-10.257-8.132-3.243-2.712-6.411-5.302-9.26-7.885-1.461-1.268-2.802-2.553-4.11-3.795a81.995 81.995 0 0 1-3.735-3.632c-1.206-1.166-2.238-2.358-3.261-3.473-1.059-1.093-1.956-2.192-2.792-3.234l-1.229-1.511c-.358-.505-.7-.996-1.036-1.464-.667-.937-1.331-1.786-1.766-2.627-.488-.823-.923-1.557-1.305-2.198-.302-.674-.564-1.248-.773-1.713l-.648-1.447s.09.541.256 1.557l.328 1.892c.226.721.489 1.548.777 2.474.263.95.738 1.919 1.209 3.001.442 1.103 1.036 2.238 1.733 3.417 1.305 2.41 3.002 5.023 5.073 7.723a90.115 90.115 0 0 0 7.079 8.43 134.808 134.808 0 0 0 8.752 8.729c3.178 2.902 6.478 5.883 10.027 8.722a397.872 397.872 0 0 0 10.864 8.473 509.938 509.938 0 0 0 11.312 7.975c3.749 2.607 7.594 4.997 11.279 7.335 3.672 2.357 7.348 4.489 10.821 6.521 3.456 2.045 6.813 3.874 9.914 5.551a295.702 295.702 0 0 0 15.27 7.72c3.761 1.756 5.966 2.676 5.966 2.676s-7.404-5.538-18.676-13.514" fill="#8ac63f"/><path d="M861.675 1682.31c-3.022-1.736-6.292-3.619-9.755-5.611l-10.837-6.312c-3.729-2.224-7.584-4.518-11.502-6.853-3.871-2.397-7.882-4.714-11.747-7.241-3.914-2.45-7.888-4.821-11.644-7.364a212.515 212.515 0 0 0-5.671-3.666c-1.889-1.185-3.668-2.46-5.465-3.662-3.566-2.44-7.088-4.701-10.286-7.032-3.194-2.328-6.378-4.346-9.107-6.455a369.636 369.636 0 0 0-7.637-5.561c-2.227-1.717-4.17-3.214-5.773-4.443a250.882 250.882 0 0 0-5.12-3.808s1.481 1.78 4.167 4.821c1.358 1.504 2.961 3.39 4.927 5.415a361.63 361.63 0 0 0 6.8 6.611c2.463 2.464 5.372 4.854 8.41 7.441 3.001 2.626 6.298 5.236 9.794 7.835 3.45 2.66 7.079 5.329 10.891 7.879 3.752 2.633 7.709 5.103 11.624 7.63 3.951 2.487 8.045 4.758 11.999 7.112 4.001 2.281 8.045 4.369 11.94 6.411 3.914 2.012 7.739 3.895 11.428 5.575 3.649 1.747 7.182 3.267 10.459 4.635 3.24 1.428 6.318 2.56 9.004 3.622a219.788 219.788 0 0 0 7.072 2.557c3.958 1.358 6.282 2.005 6.282 2.005s-8.101-4.615-20.253-11.541M881.172 1675.96l-9.343-6.726c-3.815-2.799-8.221-6.056-12.534-9.832a68.102 68.102 0 0 1-3.184-2.921 106.906 106.906 0 0 1-3.071-3.135c-2.006-2.141-3.865-4.435-5.472-6.843-1.667-2.374-3.078-4.88-4.114-7.45-1.013-2.573-1.833-5.163-2.122-7.753-.093-.458-.096-1.338-.149-1.979.003-.614.003-1.222.003-1.823.063-1.245.216-2.477.465-3.669a24.967 24.967 0 0 1 2.45-6.56 26.2 26.2 0 0 1 3.716-5.014c1.311-1.404 2.689-2.46 3.855-3.313 1.202-.787 2.178-1.438 2.902-1.783.707-.379 1.089-.581 1.089-.581s-.425.106-1.212.308c-.801.186-1.956.545-3.387 1.143-1.391.64-3.134 1.457-4.841 2.772-1.736 1.272-3.566 2.918-5.146 4.994-1.584 2.065-2.985 4.525-3.892 7.271a28.955 28.955 0 0 0-1.059 4.3c-.086.76-.192 1.59-.219 2.327.007.75-.056 1.285.01 2.231.169 3.052.744 6.173 1.899 9.128 1.119 2.964 2.637 5.82 4.433 8.483 1.843 2.636 3.938 5.096 6.169 7.367 1.076 1.136 2.344 2.281 3.469 3.224a79.284 79.284 0 0 0 3.626 2.912c2.407 1.863 4.904 3.463 7.295 4.927 2.38 1.478 4.721 2.746 6.899 3.872 4.353 2.264 8.118 3.918 10.768 5.046 2.656 1.119 4.21 1.71 4.21 1.71s-1.262-.982-3.513-2.633" fill="#65a243"/><path d="M877.34 1706.63a318.475 318.475 0 0 0-16.92-4.678c-3.533-.88-7.368-1.819-11.468-2.686-4.094-.883-8.41-1.833-12.929-2.629-4.509-.821-9.171-1.704-13.962-2.388a656.266 656.266 0 0 0-14.556-1.995c-4.91-.535-9.841-.993-14.712-1.375-4.867-.405-9.701-.558-14.386-.68-4.678-.137-9.23-.073-13.557.132-4.319.137-8.423.505-12.195 1.003-3.775.448-7.228 1.076-10.246 1.823-1.514.325-2.922.691-4.2 1.129-1.279.408-2.457.74-3.48 1.195-1.023.422-1.939.797-2.732 1.126-.751.401-1.392.747-1.913 1.026l-1.564.856 1.723-.534c.555-.173 1.239-.379 2.042-.628.824-.176 1.77-.378 2.826-.607 1.039-.273 2.234-.406 3.513-.595.641-.093 1.301-.192 1.992-.295.694-.067 1.414-.136 2.158-.206 1.484-.15 3.058-.299 4.731-.339 1.667-.076 3.414-.199 5.246-.192 1.83-.04 3.729-.06 5.704.003 1.969.02 4.001.036 6.093.136 4.18.123 8.58.448 13.135.74 4.555.286 9.23.821 14.008 1.216 4.768.448 9.602.989 14.426 1.577 4.841.534 9.676 1.105 14.423 1.74 4.755.614 9.437 1.221 13.965 1.809 9.071 1.212 17.538 2.341 24.796 3.31 14.529 1.966 24.344 3.062 24.344 3.062s-2.268-.807-6.305-2.056" fill="#8ac63f"/><path d="M869.911 1699.43a322.872 322.872 0 0 0-8.467-3.43c-3.307-1.248-7.012-2.729-11.146-4.14-4.107-1.474-8.573-3.038-13.367-4.545-4.765-1.574-9.841-3.121-15.121-4.652-5.292-1.497-10.757-3.071-16.375-4.496-5.651-1.348-11.345-2.845-17.126-4.107-5.797-1.215-11.571-2.493-17.331-3.526-5.731-1.125-11.425-2.048-16.96-2.852-5.515-.87-10.877-1.594-16.007-2.102-5.113-.554-9.931-1.142-14.446-1.364a632.982 632.982 0 0 0-12.275-.737c-3.666-.146-6.883-.117-9.519-.153-5.276-.027-8.287.023-8.287.023s2.941.505 8.074 1.278c2.567.376 5.685.827 9.26 1.349 3.55.617 7.554 1.301 11.93 1.978 4.383.631 9.061 1.637 14.051 2.464 4.997.827 10.2 1.926 15.612 2.942 2.699.534 5.465 1.006 8.224 1.613a361.61 361.61 0 0 0 8.394 1.753c5.677 1.089 11.368 2.444 17.086 3.702 5.747 1.176 11.415 2.59 17.042 3.852 5.602 1.331 11.113 2.646 16.452 3.914l15.356 3.782c4.878 1.219 9.496 2.378 13.753 3.443 17.069 4.33 28.444 7.218 28.444 7.218s-2.59-1.245-7.251-3.207M860.992 1712.82c-2.746-.949-6.691-2.267-11.575-3.562-2.434-.648-5.103-1.315-7.985-1.863-2.879-.564-5.95-1.109-9.197-1.421a95.931 95.931 0 0 0-4.98-.408 57.128 57.128 0 0 0-5.163-.103c-3.5.066-7.076.342-10.652.89-3.562.6-7.112 1.5-10.505 2.725-3.41 1.199-6.587 2.876-9.433 4.765-.889.578-1.328.966-2.008 1.454-.644.502-1.318 1.109-1.943 1.664a33.994 33.994 0 0 0-3.164 3.486 24.864 24.864 0 0 0-3.977 7.241 19.93 19.93 0 0 0-1.113 6.548c-.063 1.949.346 3.592.681 4.9.402 1.302.833 2.275 1.192 2.906l.514.972s-.066-.375-.192-1.072c-.163-.687-.216-1.733-.299-3.018.007-1.302.053-2.869.455-4.625.382-1.747 1.046-3.676 2.065-5.651 1.053-1.966 2.494-3.961 4.28-5.854a30.569 30.569 0 0 1 2.988-2.696c.538-.395 1.083-.793 1.634-1.195.607-.385 1.401-.96 1.872-1.202 2.514-1.507 5.369-2.679 8.344-3.722 2.982-1.019 6.152-1.76 9.373-2.251 3.214-.555 6.488-.867 9.718-.989a143.22 143.22 0 0 1 4.821-.097c1.567 0 3.165.043 4.708.116 6.206.283 12.013.957 17.023 1.558 5.024.644 9.214 1.178 12.146 1.554 2.955.351 4.661.514 4.661.514s-1.547-.604-4.289-1.564" fill="#65a243"/><path d="M704.39 1715.03c2.477 4.24 18.567-1.431 26.12-6.316 7.551-4.884 11.664-12.278 9.188-16.521-2.474-4.243-10.602-3.719-18.156 1.165-7.546 4.881-19.629 17.432-17.152 21.672" fill="#ec74a3"/><path d="M698.159 1694.03c-.225-4.874 16.485-8.456 25.543-8.261 9.058.2 16.585 4.31 16.814 9.187.229 4.875-6.93 8.666-15.987 8.47-9.058-.199-26.14-4.518-26.37-9.396" fill="#f49dc3"/><path d="M734.13 1614.4c-2.649 4.429 10.98 12.693 19.44 15.193 8.457 2.504 17.465.94 20.111-3.489 2.653-4.433-2.055-10.054-10.515-12.558-8.457-2.503-26.386-3.579-29.036.854" fill="#ec74a3"/><path d="M750.39 1596.86c4.406-3.181 16.419 6.826 20.944 13.569 4.525 6.744 4.622 14.792.216 17.973-4.406 3.177-11.648.289-16.173-6.458-4.526-6.743-9.396-21.907-4.987-25.084" fill="#f49dc3"/><path d="M676.455 1749.86c2.135 1.723 4.751 3.802 7.912 6.006 3.144 2.222 6.74 4.692 10.808 7.192 2.032 1.252 4.147 2.563 6.338 3.918 2.241 1.282 4.559 2.606 6.942 3.971 4.748 2.766 9.908 5.442 15.24 8.237 5.379 2.713 10.934 5.529 16.665 8.258l17.504 8.035 17.783 7.557c5.864 2.49 11.79 4.674 17.438 6.932 5.638 2.275 11.202 4.273 16.471 6.169 5.253 1.926 10.26 3.676 14.885 5.279 4.619 1.617 8.925 2.962 12.72 4.187 3.812 1.199 7.135 2.241 9.868 3.101 5.491 1.68 8.659 2.58 8.659 2.58s-2.899-1.414-8.012-3.788c-5.116-2.374-12.467-5.675-21.332-9.549-4.406-1.979-9.181-4.121-14.274-6.302-5.077-2.208-10.426-4.539-15.964-6.949l-34.64-15.127-17.521-7.78c-5.737-2.619-11.388-5.199-16.856-7.693-5.369-2.632-10.741-4.933-15.632-7.394-4.941-2.39-9.602-4.665-13.852-6.839-2.162-1.05-4.147-2.158-6.076-3.161-1.919-1.016-3.782-1.939-5.445-2.902a278.796 278.796 0 0 1-8.673-4.97c-2.327-1.468-4.18-2.613-5.372-3.47-1.195-.85-1.793-1.358-1.793-1.358s1.976 2.364 6.209 5.86M849.09 1813.49c-5.617-3.991-12.171-8.649-19.194-13.636-3.493-2.504-7.098-5.09-10.764-7.716a529.33 529.33 0 0 1-11-8.052 444.163 444.163 0 0 1-10.857-8.168c-3.48-2.782-7.019-5.415-10.256-8.131-3.241-2.713-6.408-5.302-9.257-7.885-1.461-1.269-2.806-2.557-4.11-3.799a79.936 79.936 0 0 1-3.736-3.629c-1.205-1.165-2.238-2.357-3.26-3.473-1.059-1.092-1.956-2.191-2.793-3.234-.425-.521-.833-1.026-1.228-1.51-.359-.505-.704-.996-1.036-1.465-.671-.939-1.331-1.786-1.766-2.626l-1.305-2.198c-.302-.674-.565-1.248-.774-1.713l-.647-1.448.255 1.557c.09.515.2 1.146.326 1.89.229.723.488 1.55.78 2.476.262.95.734 1.92 1.209 3.002.441 1.102 1.036 2.238 1.733 3.417 1.305 2.41 3.001 5.023 5.07 7.719a89.981 89.981 0 0 0 7.082 8.433 135.568 135.568 0 0 0 8.752 8.729c3.177 2.902 6.478 5.884 10.024 8.723a399.487 399.487 0 0 0 10.864 8.476 546.667 546.667 0 0 0 11.312 7.972c3.751 2.606 7.593 4.997 11.282 7.334 3.672 2.361 7.347 4.489 10.817 6.521 3.46 2.046 6.813 3.875 9.914 5.552a296.572 296.572 0 0 0 15.27 7.723c3.762 1.756 5.97 2.672 5.97 2.672s-7.408-5.538-18.677-13.513" fill="#8ac63f"/><path d="M837.851 1815.29a16188.4 16188.4 0 0 0-9.754-5.612l-10.838-6.311c-3.732-2.225-7.583-4.519-11.501-6.857-3.868-2.394-7.885-4.714-11.744-7.238-3.917-2.45-7.892-4.824-11.647-7.367a234.894 234.894 0 0 0-5.671-3.663c-1.889-1.185-3.669-2.463-5.465-3.662-3.566-2.44-7.092-4.705-10.286-7.032s-6.378-4.346-9.107-6.455c-2.76-2.075-5.343-3.924-7.637-5.564-2.228-1.717-4.17-3.211-5.77-4.443-3.228-2.447-5.124-3.805-5.124-3.805s1.481 1.78 4.167 4.821c1.358 1.504 2.959 3.387 4.928 5.416a373.396 373.396 0 0 0 6.796 6.61c2.467 2.464 5.375 4.854 8.41 7.441 3.005 2.623 6.302 5.236 9.798 7.836 3.453 2.659 7.079 5.329 10.891 7.875 3.748 2.633 7.709 5.103 11.624 7.633 3.951 2.487 8.048 4.758 11.999 7.109 4.001 2.281 8.045 4.373 11.94 6.415 3.914 2.008 7.739 3.891 11.431 5.574 3.646 1.747 7.178 3.264 10.452 4.635 3.241 1.428 6.319 2.56 9.008 3.623a215.783 215.783 0 0 0 7.075 2.556c3.955 1.355 6.279 2.006 6.279 2.006s-8.101-4.619-20.254-11.541M846.087 1832.41a299.214 299.214 0 0 0-8.467-3.429c-3.307-1.252-7.012-2.73-11.142-4.144-4.107-1.474-8.576-3.035-13.371-4.542-4.764-1.574-9.838-3.121-15.117-4.655-5.296-1.494-10.761-3.068-16.382-4.496-5.648-1.348-11.342-2.845-17.122-4.107-5.794-1.215-11.571-2.493-17.332-3.523-5.727-1.128-11.425-2.048-16.96-2.855-5.518-.87-10.877-1.594-16.003-2.102-5.12-.554-9.934-1.139-14.45-1.364a632.72 632.72 0 0 0-12.278-.737c-3.662-.143-6.88-.117-9.512-.15-5.28-.026-8.291.02-8.291.02s2.938.505 8.078 1.278c2.567.376 5.681.83 9.257 1.348 3.552.615 7.553 1.305 11.933 1.976 4.382.634 9.057 1.64 14.051 2.47 4.99.824 10.196 1.923 15.612 2.942 2.696.534 5.458 1.006 8.221 1.61 2.759.611 5.561 1.199 8.393 1.757 5.678 1.089 11.369 2.44 17.086 3.702 5.747 1.175 11.418 2.586 17.039 3.848 5.605 1.335 11.12 2.646 16.455 3.918 5.326 1.308 10.473 2.576 15.357 3.778l13.752 3.443 28.448 7.222s-2.593-1.245-7.255-3.208" fill="#65a243"/><path d="M710.308 1747.37c-2.649 4.429 10.98 12.693 19.44 15.197 8.457 2.5 17.461.939 20.111-3.493 2.649-4.433-2.055-10.054-10.515-12.557-8.46-2.504-26.386-3.58-29.036.853" fill="#ec74a3"/><path d="M726.566 1729.83c4.409-3.181 16.418 6.827 20.947 13.57 4.525 6.747 4.622 14.792.212 17.972-4.405 3.181-11.647.293-16.169-6.454-4.529-6.747-9.396-21.907-4.99-25.088" fill="#f49dc3"/></g><path d="M633.008 1685.33c-45.454 10.701-74.708 51.619-65.345 91.396 9.363 39.773 53.797 63.34 99.251 52.642 45.454-10.701 74.719-51.616 65.356-91.393-9.363-39.773-53.808-63.346-99.262-52.645" fill="#fcde11" fill-rule="nonzero"/><path d="M663.856 1720.92s.747-22.474-4.194-37.747c0 0 .123-.1.366-.259 28.753 1.547 54.083 16.375 66.295 39.348-4.934-2.52-21.031-7.843-62.467-1.342" fill="#be202e" fill-rule="nonzero"/><path d="M694.345 1818.24c12.657-44.302-27.817-97.356-27.817-97.356 28.514-12.73 53.267-1.886 59.887 1.544 2.56 4.848 4.556 10.04 5.854 15.555 7.301 31.011-8.888 62.723-37.924 80.257" fill="#3bb54a" fill-rule="nonzero"/><path d="M658.638 1721.56s-60.757 56.786-61.471 96.503c-14.636-9.688-25.413-23.962-29.504-41.337-4.306-18.284-.435-36.808 9.41-52.533 40.47-29.656 81.565-2.633 81.565-2.633" fill="#ef4137" fill-rule="nonzero"/><path d="M633.008 1685.33a96.003 96.003 0 0 1 20.875-2.56c3.645.113 5.78.398 5.78.398 5.05 12.899 4.217 40.68 4.217 40.68-30.427-15.692-79.742.498-88.78 3.692 11.199-20.048 31.888-36.084 57.908-42.21" fill="#662f91" fill-rule="nonzero"/><path d="M659.602 1702.85c-12.809 3.015-21.292 13.55-18.945 23.531 2.351 9.98 14.646 15.631 27.455 12.617 12.806-3.018 21.289-13.557 18.942-23.541-2.351-9.98-14.642-15.621-27.452-12.607" fill="#f3f4f5" fill-rule="nonzero"/><path d="M733.384 1743.98c4.041 29.048-11.876 57.851-39.039 74.257 3.749-13.129 2.832-27.034-.315-40.095-10.1 7.779-22.252 13.695-35.865 16.9-18.972 4.465-37.765 2.958-53.898-3.201-4.226 9.034-6.956 17.992-7.102 26.223-13.799-9.134-24.178-22.358-28.74-38.412 10.801 38 54.163 60.153 98.488 49.717 43.173-10.163 71.734-47.579 66.471-85.389M733.336 1743.62c.02.123.036.236.05.358-.01-.116-.033-.245-.05-.358M733.323 1743.53c.007.03.007.063.014.093-.007-.03-.007-.063-.014-.093M733.266 1743.17c.017.113.037.236.057.349-.02-.113-.037-.226-.057-.349M733.216 1742.8l.033.259-.033-.259M733.196 1742.72a.691.691 0 0 1 .017.076c-.007-.03-.01-.053-.017-.076M733.18 1742.61c.007.03.014.053.02.083-.006-.03-.013-.053-.02-.083M733.159 1742.44c.003.054.016.113.023.17-.007-.057-.02-.116-.023-.17M733.139 1742.36c.007.023.01.047.017.066-.004-.013-.01-.043-.017-.066M733.125 1742.26l.013.06-.013-.06M733.082 1742c.01.077.027.153.037.23-.01-.077-.027-.153-.037-.23M733.066 1741.9c.007.023.003.053.01.076-.007-.03-.003-.047-.01-.076M733 1741.54c.007.023.01.043.017.066-.007-.023-.01-.036-.017-.066M732.986 1741.44c.007.023.003.046.007.069-.004-.023 0-.046-.007-.069M732.963 1741.35a.34.34 0 0 1 .013.06l-.013-.06M732.937 1741.19c.009.046.019.083.019.123 0-.04-.01-.077-.019-.123M732.922 1741.09c.003.017.01.037.003.054.007-.017 0-.037-.003-.054M732.897 1740.99l.014.053-.014-.053M568.392 1779.56c.007.03.013.06.03.087-.017-.027-.023-.057-.03-.087M568.334 1779.35l.02.089-.02-.089M732.832 1740.63c.003.017.01.037.013.053-.003-.016-.01-.036-.013-.053M568.226 1778.96c.039.126.069.252.106.378-.037-.126-.067-.252-.106-.378M732.817 1740.54c.004.017.007.023 0 .04-.003-.017.004-.033 0-.04M732.768 1740.29c.003.007.006.03.01.036a.483.483 0 0 1-.01-.036M732.743 1740.18c.004.007.007.023.01.037-.003-.014-.006-.03-.01-.037M568.18 1778.77l.016.067-.016-.067M732.727 1740.07c.003.007-.007.017-.003.024-.004-.007.006-.017.003-.024M568.147 1778.67l.016.066-.016-.066M732.693 1739.93l.01.037-.01-.037M568.12 1778.56c.007.023.01.043.017.066-.007-.023-.01-.043-.017-.066M732.667 1739.82l.01.043-.01-.043M568.045 1778.27l.033.143-.033-.143M732.623 1739.59c.003.007.003.017.006.024-.003-.007-.003-.017-.006-.024M732.603 1739.47c-.006.01-.003.023 0 .04-.003-.017-.006-.03 0-.04M732.577 1739.36l.01.036a.286.286 0 0 1-.01-.036M567.99 1778.08c.004.014.01.037.024.057-.014-.02-.02-.043-.024-.057M567.964 1777.97c.007.023.01.037.013.06-.003-.013-.006-.037-.013-.06M732.552 1739.26c.003.007.003.013.007.03-.004-.017-.004-.023-.007-.03M567.939 1777.86l.014.053-.014-.053M732.52 1739.12c.004.007.007.023.01.037l-.01-.037M567.915 1777.76c.003.013.006.03.013.053-.007-.023-.01-.04-.013-.053M732.503 1739.01c.003.013.006.023 0 .04.006-.017.003-.027 0-.04M567.88 1777.65c.013.014.016.027.02.044-.004-.017-.007-.03-.02-.044M732.478 1738.9c.003.017.007.023.01.037a.264.264 0 0 0-.01-.037M567.852 1777.53c.003.007.006.03.01.036-.004-.013-.007-.029-.01-.036M732.422 1738.66c.003.006.003.016.006.03-.003-.014-.003-.024-.006-.03M567.818 1777.39l.01.043-.01-.043M732.395 1738.55l.007.03-.007-.03zM567.792 1777.27c.006.023.006.03.013.053-.003-.017-.01-.037-.013-.053M732.369 1738.44a.107.107 0 0 1 .006.03c0-.007-.003-.013-.006-.03M567.767 1777.17l.01.043-.01-.043M732.339 1738.31l.007.023-.007-.023M732.294 1738.08c.004.006.007.023 0 .033.007-.01.004-.027 0-.033" fill="#d8bd27" fill-rule="nonzero"/><path d="M567.628 1776.58l.007.023-.007-.023z" fill="#c5c6c7" fill-rule="nonzero"/><path d="M567.628 1776.58l.007.023-.007-.023z" fill="#d8bd27" fill-rule="nonzero"/><path d="M732.219 1737.8c.003.017.007.023.007.03l.003.007a.182.182 0 0 1-.01-.037" fill="#c5c6c7" fill-rule="nonzero"/><path d="M567.603 1776.47l-.003-.007.003.007zm164.624-38.641c-.003-.017-.01-.04-.013-.053l.013.053z" fill="#d8bd27" fill-rule="nonzero"/><path d="M732.187 1737.67l.01.036-.01-.036" fill="#c5c6c7" fill-rule="nonzero"/><path d="M732.168 1737.58a65.48 65.48 0 0 0-5.751-15.157c-.372-.189-.79-.398-1.258-.627 0-.033.003-.057.007-.09.441.189.826.375 1.155.548a55.049 55.049 0 0 0-1.112-2.002c.006-.02.003-.027.003-.033a65.126 65.126 0 0 1 6.956 17.361m.03.126a1.3 1.3 0 0 1-.023-.096l.023.096z" fill="#d8bd27" fill-rule="nonzero"/><path d="M725.21 1720.25c-.014.485-.024.97-.047 1.455.442.189.83.375 1.159.551a56.088 56.088 0 0 0-1.112-2.006" fill="#a52432" fill-rule="nonzero"/><path d="M733.384 1743.98a4.245 4.245 0 0 0-.049-.359c-.007-.03-.004-.063-.01-.093l-.004-.007a10.662 10.662 0 0 0-.056-.351l-.003-.014c.003-.026-.004-.056-.007-.076l-.003-.017a5.763 5.763 0 0 1-.037-.259l-.02-.083c0-.006-.003-.016.003-.023-.006-.03-.009-.053-.016-.083-.007-.056-.02-.116-.023-.169l-.02-.083c0-.007-.004-.024 0-.04l-.02-.09c-.01-.076-.027-.149-.037-.229a.084.084 0 0 1-.006-.03c-.007-.02-.004-.053-.01-.076l-.027-.113a.776.776 0 0 0-.026-.149c.006-.01.006-.017.003-.027l-.023-.096c-.004-.023 0-.047-.007-.07l-.03-.126c0-.04-.01-.077-.02-.123l-.01-.043a.157.157 0 0 0-.003-.057l-.027-.103c-.003-.023 0-.046-.006-.069l-.03-.126c-.003-.017 0-.04-.003-.057l-.04-.163c.006-.016.003-.026 0-.039l-.03-.137a.175.175 0 0 1-.01-.076l-.053-.222c0-.01.006-.02.003-.027l-.06-.252c.004-.027-.003-.05-.006-.07l-.057-.239c-.003-.017-.006-.03 0-.04l-.099-.428a.056.056 0 0 0-.004-.04l-.209-.89c.007-.01.003-.023.003-.03l-.026-.106a.795.795 0 0 0-.04-.139l-.06-.256a65.442 65.442 0 0 0-5.754-15.157 64.688 64.688 0 0 0-1.258-.627c-1.036 21.588-12.64 42.093-31.127 56.341 3.147 13.061 4.064 26.966.315 40.095 27.163-16.406 43.08-45.209 39.039-74.257" fill="#399f48" fill-rule="nonzero"/><path d="M604.268 1791.84c-16.352-6.242-29.972-17.258-38.302-31.682-.136 5.403.372 10.864 1.637 16.306v.01c.01.037.016.073.026.103l.004.023.245 1.046c.014.013.017.03.02.043l.093.392c.003.013.007.037.023.057l.073.315c.014.02.02.043.024.063l.053.219c.003.013.003.02.016.033l.044.18.003.016c.036.126.066.253.106.379v.006c.01.03.017.06.023.09 0 .007.01.013.014.02l.02.083.003.013c.007.03.013.06.03.09v.007c4.565 16.053 14.944 29.277 28.743 38.411.146-8.231 2.875-17.189 7.102-26.223" fill="#cd4238" fill-rule="nonzero"/><path d="M676.042 1728.14c-3.649.863-5.804 4.927-4.818 9.08l2.938 12.408c.983 4.154 4.732 6.82 8.381 5.957l29.626-10.363c3.649-.863 5.993-4.15 5.239-7.341l-2.261-9.536c-.753-3.19-4.326-5.076-7.975-4.213l-31.13 4.008z" fill="#414043" fill-rule="nonzero"/><path d="M714.967 1688.83c-7.291 1.723-11.983 8.297-10.469 14.682l24.275 102.465c1.514 6.382 8.655 10.157 15.947 8.43l22.454-5.309c7.292-1.726 11.983-8.3 10.469-14.682l-24.274-102.465c-1.514-6.385-8.656-10.157-15.947-8.434l-22.455 5.313z" fill="#f89520" fill-rule="nonzero"/><path d="M748.901 1663.31c-7.292 1.723-11.977 8.297-10.463 14.678l35.046 147.923c1.51 6.382 8.645 10.157 15.937 8.434l22.454-5.313c7.298-1.726 11.983-8.297 10.472-14.682l-35.045-147.919c-1.514-6.385-8.649-10.16-15.947-8.434l-22.454 5.313z" fill="#4db358" fill-rule="nonzero"/><path d="M758.514 1653.82a37.097 37.097 0 0 1 2.613-.731c33.554-7.938 72.095 33.485 86.08 92.525 13.988 59.037-1.873 113.33-35.427 121.268-.88.206-1.776.376-2.666.518l-50.6-213.58z" fill="#8fd926" fill-rule="nonzero"/><path d="M749.549 1655.22l50.832 214.563c.834 3.51 4.758 5.585 8.769 4.639 4.014-.95 6.587-4.566 5.757-8.075l-50.836-214.563c-.83-3.51-4.754-5.588-8.765-4.639-4.014.95-6.587 4.565-5.757 8.075" fill="#414043" fill-rule="nonzero"/><path d="M738.484 1783.19c-3.642.86-5.986 4.147-5.233 7.338l2.421 10.209c.757 3.191 4.326 5.077 7.968 4.217l10.459-2.474c3.642-.863 5.99-4.15 5.233-7.341l-2.417-10.206c-.757-3.191-4.33-5.08-7.972-4.217l-10.459 2.474z" fill="#fbb041" fill-rule="nonzero"/><path d="M739.764 1784.77c-3.045.721-5.01 3.47-4.379 6.139l2.022 8.536c.63 2.667 3.622 4.244 6.67 3.523l8.742-2.068c3.048-.721 5.014-3.47 4.383-6.136l-2.026-8.536c-.63-2.67-3.622-4.247-6.667-3.526l-8.745 2.068z" fill="#f3f4f5" fill-rule="nonzero"/><path d="M731.552 1753.94c-3.642.86-5.986 4.147-5.232 7.337l2.42 10.21c.757 3.191 4.326 5.077 7.969 4.217l10.458-2.474c3.643-.863 5.99-4.15 5.233-7.341l-2.417-10.206c-.757-3.191-4.33-5.08-7.972-4.217l-10.459 2.474z" fill="#fbb041" fill-rule="nonzero"/><path d="M732.832 1755.52c-3.044.72-5.01 3.469-4.379 6.139l2.022 8.536c.631 2.666 3.622 4.243 6.67 3.523l8.742-2.069c3.048-.72 5.014-3.469 4.383-6.135l-2.025-8.537c-.631-2.669-3.623-4.246-6.667-3.526l-8.746 2.069z" fill="#f3f4f5" fill-rule="nonzero"/><path d="M724.621 1724.68c-3.643.86-5.987 4.147-5.233 7.338l2.42 10.209c.757 3.191 4.327 5.08 7.969 4.217l10.462-2.474c3.639-.863 5.986-4.15 5.229-7.341l-2.417-10.206c-.757-3.191-4.329-5.08-7.972-4.217l-10.458 2.474z" fill="#fbb041" fill-rule="nonzero"/><path d="M725.901 1726.26c-3.045.72-5.014 3.469-4.379 6.139l2.022 8.536c.63 2.666 3.622 4.243 6.67 3.523l8.742-2.069c3.048-.72 5.014-3.469 4.383-6.139l-2.026-8.536c-.63-2.666-3.622-4.243-6.667-3.523l-8.745 2.069z" fill="#f3f4f5" fill-rule="nonzero"/><path d="M717.689 1695.42c-3.642.86-5.986 4.147-5.233 7.337l2.421 10.21c.757 3.191 4.326 5.08 7.968 4.217l10.462-2.474c3.639-.863 5.987-4.15 5.23-7.341l-2.417-10.206c-.757-3.191-4.33-5.08-7.972-4.217l-10.459 2.474z" fill="#fbb041" fill-rule="nonzero"/><path d="M718.969 1697c-3.044.721-5.013 3.47-4.379 6.14l2.022 8.536c.631 2.666 3.622 4.243 6.67 3.523l8.742-2.069c3.048-.72 5.014-3.47 4.383-6.139l-2.025-8.536c-.631-2.666-3.623-4.244-6.667-3.523l-8.746 2.068z" fill="#f3f4f5" fill-rule="nonzero"/><path d="M539.109 1546.2c-.372 3.044-.794 6.753-.986 11-.219 4.243-.402 9.041-.299 14.247l.126 8.128.475 8.659c.269 5.956.903 12.182 1.524 18.636.744 6.428 1.491 13.079 2.443 19.802 1.063 6.704 2.142 13.51 3.224 20.32l3.895 20.174c1.288 6.654 2.932 13.121 4.316 19.42 1.355 6.305 2.952 12.338 4.463 18.052 1.464 5.727 2.951 11.119 4.336 16.09 1.365 4.973 2.809 9.486 4.037 13.496 1.269 4.001 2.378 7.488 3.287 10.36 1.873 5.73 3.025 8.984 3.025 8.984s-.445-3.426-1.361-9.383c-.913-5.956-2.344-14.433-4.177-24.57-.853-5.083-1.786-10.584-2.885-16.375-1.056-5.8-2.172-11.916-3.327-18.241-2.288-12.644-4.728-26.127-7.172-39.611-1.172-6.746-2.344-13.49-3.493-20.13-1.076-6.654-2.131-13.198-3.151-19.533-.816-6.362-1.975-12.468-2.653-18.308-.786-5.83-1.504-11.342-2.055-16.448-.338-2.55-.504-5.004-.734-7.335-.219-2.33-.491-4.545-.591-6.627-.298-4.17-.491-7.809-.577-10.82-.023-3.009-.057-5.383.043-7.003.086-1.617.216-2.49.216-2.49s-1.136 3.407-1.949 9.506M586.939 1734.62c.419-7.603.907-16.468 1.428-25.971.282-4.738.574-9.635.873-14.609.273-4.973.641-10.02 1.059-15.063.352-5.044.761-10.084 1.275-15.034.578-4.948.96-9.828 1.631-14.523.66-4.695 1.245-9.244 2.032-13.527.348-2.148.786-4.223 1.208-6.232.362-2.019.817-3.948 1.282-5.797.405-1.866.949-3.616 1.427-5.296.429-1.693.97-3.26 1.495-4.734.255-.741.508-1.458.747-2.149.285-.68.561-1.331.826-1.959.522-1.261.963-2.447 1.541-3.436l1.404-2.739 1.249-1.939c.697-1.063 1.066-1.63 1.066-1.63l-1.431 1.401c-.469.461-1.05 1.036-1.734 1.71-.587.733-1.268 1.577-2.032 2.523-.803.94-1.49 2.062-2.294 3.274-.84 1.198-1.62 2.55-2.37 4.014-1.624 2.902-3.198 6.272-4.609 10.01a106.475 106.475 0 0 0-4.024 12.179 151.561 151.561 0 0 0-3.231 13.762c-.899 4.791-1.799 9.742-2.39 14.785a420.568 420.568 0 0 0-1.587 15.273c-.326 5.12-.598 10.23-.777 15.257-.216 5.03-.153 9.967-.14 14.742-.016 4.778.206 9.383.395 13.745.166 4.367.489 8.477.797 12.272a274.038 274.038 0 0 0 2.079 18.265c.66 4.392 1.168 6.879 1.168 6.879s.834-10.229 1.637-25.453" fill="#8ac63f" fill-rule="nonzero"/><path d="M576.464 1721.56c-.385-4.576-.797-9.53-1.238-14.769-.412-5.236-.847-10.761-1.295-16.475-.399-5.714-.807-11.617-1.222-17.617-.319-6.006-.824-12.092-1.006-18.205-.296-6.099-.717-12.195-.807-18.211a323.829 323.829 0 0 0-.319-8.938c-.143-2.945-.113-5.861-.176-8.729-.059-5.734-.272-11.276-.186-16.545.087-5.263-.126-10.246.063-14.848.14-4.605.176-8.832.206-12.584.153-3.755.283-7.022.392-9.718.183-5.402.209-8.506.209-8.506s-.74 3.051-1.899 8.426c-.551 2.69-1.311 5.953-1.959 9.715-.581 3.759-1.232 8.009-1.846 12.654-.734 4.641-1.082 9.675-1.54 15.004-.518 5.329-.817 10.947-.963 16.754-.239 5.813-.362 11.813-.233 17.896-.003 6.092.306 12.255.528 18.427.286 6.162.89 12.295 1.315 18.341.525 6.039 1.278 11.956 1.969 17.677.74 5.717 1.544 11.229 2.453 16.432.814 5.216 1.777 10.113 2.706 14.622.85 4.525 1.88 8.626 2.706 12.272a284.713 284.713 0 0 0 2.414 9.386c1.425 5.186 2.407 8.101 2.407 8.101l-2.679-30.562M597.037 1737.83c.192-3.068.461-7.45.786-12.71.376-5.226.834-11.285 1.883-17.663.256-1.591.554-3.221.92-4.815.381-1.729.763-3.223 1.205-4.884a63.885 63.885 0 0 1 3.446-9.658c1.348-3.168 2.992-6.226 4.954-9.028 1.986-2.789 4.107-5.428 6.581-7.646.412-.425 1.311-1.103 1.935-1.634l1.873-1.391a38.155 38.155 0 0 1 4.077-2.434c2.793-1.384 5.631-2.4 8.347-3.031a36.17 36.17 0 0 1 7.594-.824c2.304-.01 4.29.296 5.933.585 1.6.375 2.912.664 3.739.986l1.311.438-1.112-.744c-.721-.504-1.843-1.165-3.393-1.866-1.574-.637-3.556-1.427-6.027-1.802a31.44 31.44 0 0 0-8.509-.346 36.264 36.264 0 0 0-10.031 2.411 45.11 45.11 0 0 0-5.11 2.43c-.84.508-1.759 1.059-2.536 1.601-.767.577-1.358.936-2.288 1.713-3.025 2.47-5.857 5.322-8.135 8.516a55.887 55.887 0 0 0-5.813 10.074 69.49 69.49 0 0 0-3.526 10.631c-.459 1.737-.804 3.639-1.036 5.273a79.537 79.537 0 0 0-.615 5.159c-.338 3.377-.341 6.624-.282 9.675.04 3.058.279 5.924.545 8.55.528 5.253 1.301 9.562 1.876 12.574.591 3.008 1.006 4.718 1.006 4.718s.182-1.773.402-4.858" fill="#65a243" fill-rule="nonzero"/><path d="M563.004 1758.17a273.878 273.878 0 0 0-6.288-17.275c-1.414-3.533-2.965-7.358-4.761-11.339-1.78-3.987-3.633-8.207-5.777-12.477-2.122-4.28-4.267-8.729-6.704-13.132a560.035 560.035 0 0 0-7.5-13.307 422.206 422.206 0 0 0-8.231-12.966c-2.779-4.246-5.794-8.277-8.736-12.165a151.84 151.84 0 0 0-9.031-10.874 107.12 107.12 0 0 0-9.034-9.107c-2.929-2.713-5.84-5.03-8.59-6.903-1.328-.976-2.626-1.836-3.917-2.533-1.259-.727-2.374-1.425-3.513-1.906-1.103-.508-2.085-.96-2.945-1.351l-2.311-.761a509.466 509.466 0 0 1-1.906-.614l1.683.986c.538.319 1.202.714 1.983 1.176.72.531 1.55 1.142 2.48 1.822.956.631 1.879 1.498 2.912 2.391.514.441 1.052.903 1.61 1.384l1.627 1.591c1.129 1.086 2.311 2.244 3.45 3.572 1.175 1.289 2.443 2.61 3.642 4.101 1.238 1.451 2.507 2.975 3.732 4.618 1.275 1.607 2.593 3.267 3.861 5.037 2.613 3.483 5.166 7.291 7.853 11.199 2.692 3.905 5.216 8.098 7.938 12.272 2.67 4.203 5.283 8.529 7.846 12.889a520.152 520.152 0 0 1 7.666 13.005l7.302 12.687c4.704 8.271 9.094 15.99 12.859 22.607 7.513 13.265 12.822 22.05 12.822 22.05s-.657-2.454-2.022-6.677" fill="#8ac63f" fill-rule="nonzero"/><path d="M565.528 1746.66a291.234 291.234 0 0 0-2.025-9.479c-.89-3.632-1.797-7.76-3.058-12.189-1.176-4.452-2.501-9.263-4.098-14.297-1.504-5.06-3.243-10.352-5.133-15.797-1.935-5.429-3.901-11.06-6.119-16.701-2.324-5.601-4.515-11.359-7.009-17.003-2.556-5.621-5.03-11.275-7.749-16.724-2.597-5.505-5.386-10.817-8.188-15.917-2.726-5.13-5.498-10.024-8.337-14.563-2.789-4.565-5.346-8.914-8.075-12.743-2.616-3.881-5.096-7.394-7.291-10.502-2.258-3.077-4.396-5.661-6.089-7.819-3.434-4.293-5.459-6.697-5.459-6.697s1.408 2.769 3.981 7.521c1.298 2.364 2.879 5.232 4.688 8.523 1.7 3.347 3.616 7.115 5.794 11.172 2.225 4.034 4.257 8.59 6.68 13.261 2.431 4.675 4.712 9.732 7.215 14.892 1.222 2.593 2.55 5.189 3.735 7.888 1.186 2.7 2.418 5.419 3.706 8.142 2.603 5.425 4.944 11.069 7.401 16.661 2.56 5.551 4.827 11.219 7.218 16.74l6.766 16.312c2.145 5.316 4.22 10.452 6.189 15.327 1.943 4.884 3.782 9.502 5.482 13.765 6.74 17.133 11.236 28.551 11.236 28.551s-.422-3.048-1.461-8.324M545.919 1749.67c-.827-2.952-2.055-7.155-3.931-12.092-.93-2.471-1.996-5.14-3.324-7.893-1.308-2.759-2.759-5.664-4.565-8.536a81.297 81.297 0 0 0-2.852-4.343c-.937-1.358-2.099-2.905-3.281-4.256a69.222 69.222 0 0 0-7.898-7.942 55.965 55.965 0 0 0-9.695-6.422c-3.467-1.842-7.272-3.134-11.08-3.994-1.179-.282-1.869-.335-2.816-.511-.936-.14-2.002-.223-2.981-.306a45.733 45.733 0 0 0-5.661.107 36.251 36.251 0 0 0-10.047 2.317 31.382 31.382 0 0 0-7.464 4.104c-2.042 1.441-3.463 3.028-4.589 4.303-1.075 1.318-1.786 2.41-2.204 3.184-.432.757-.664 1.159-.664 1.159s.342-.339.979-.976c.598-.658 1.637-1.501 2.905-2.55 1.342-.99 2.982-2.148 5.047-3.168a35.886 35.886 0 0 1 7.165-2.649c2.713-.651 5.708-1.006 8.822-1.013 1.56.017 3.148.143 4.735.359l2.301.411c.79.196 1.902.399 2.46.595 3.201.883 6.278 2.301 9.3 3.911 3.001 1.633 5.84 3.636 8.46 5.867a63.835 63.835 0 0 1 7.391 7.112 112.859 112.859 0 0 1 3.26 3.831 78.222 78.222 0 0 1 2.972 3.898c3.778 5.239 6.896 10.459 9.562 14.971 2.636 4.562 4.834 8.36 6.371 11.023a167.33 167.33 0 0 0 2.53 4.167s-.395-1.713-1.208-4.668" fill="#65a243" fill-rule="nonzero"/><path d="M608.43 1715.13l15.661 174.933-35.799 8.427-64.017-163.551 39.521-9.304 5.113-1.202 39.521-9.303z" fill="#f49dc3" fill-rule="nonzero"/><path d="M526.775 1593.66l3.978 16.893c.76 3.227 4.399 5.16 8.091 4.29l10.273-2.417c3.689-.87 6.09-4.224 5.329-7.451l-3.977-16.893c-.761-3.227-4.403-5.16-8.092-4.293l-10.273 2.42c-3.692.867-6.089 4.22-5.329 7.451" fill="#cdba7e" fill-rule="nonzero"/><path d="M539.258 1608.05c-1.859-7.899-1.757-15.878.013-23.521l-7.168 1.687 6.743 28.637 1.906-.448-1.494-6.355z" fill="#ae9866" fill-rule="nonzero"/><path d="M549.592 1588.88c-2.085-4.987-7.46-4.234-7.46-4.234 5.249 1.335 7.46 4.234 7.46 4.234" fill="#fff" fill-rule="nonzero"/><path d="M647.756 1565.18l3.978 16.893c.76 3.228 4.399 5.16 8.091 4.29l10.273-2.417c3.689-.87 6.086-4.223 5.325-7.451l-3.974-16.893c-.76-3.227-4.402-5.16-8.095-4.293l-10.272 2.42c-3.689.867-6.086 4.22-5.326 7.451" fill="#cdba7e" fill-rule="nonzero"/><path d="M670.292 1583.89l-6.736-28.617-.2.036-5.335 1.259c4.993 6.049 8.646 13.141 10.505 21.043l1.494 6.352.077-.017.195-.056z" fill="#ae9866" fill-rule="nonzero"/><path d="M670.573 1560.4c-2.085-4.987-7.464-4.233-7.464-4.233 5.252 1.334 7.464 4.233 7.464 4.233" fill="#fff" fill-rule="nonzero"/><path d="M650.454 1576.65l-1.285-5.455c-.132-.568-.773-.907-1.424-.754l-94.925 22.345c-.648.153-1.069.744-.937 1.312l1.285 5.455c.133.568.774.906 1.421.754l94.929-22.345c.648-.153 1.069-.744.936-1.312" fill="#a5a8a8" fill-rule="nonzero"/><path d="M593.261 1876.54l3.978 16.893c.76 3.227 4.399 5.16 8.091 4.29l10.273-2.418c3.689-.869 6.086-4.22 5.326-7.45l-3.974-16.893c-.761-3.228-4.403-5.16-8.092-4.29l-10.273 2.417c-3.692.87-6.089 4.223-5.329 7.451" fill="#cdba7e" fill-rule="nonzero"/><path d="M602.472 1876.59l-1.876-7.966-2.005.472 6.74 28.634 6.501-1.531c-4.409-5.727-7.643-12.325-9.36-19.609" fill="#ae9866" fill-rule="nonzero"/><path d="M616.079 1871.76c-2.085-4.987-7.464-4.237-7.464-4.237 5.253 1.335 7.464 4.237 7.464 4.237" fill="#fff" fill-rule="nonzero"/><path d="M714.242 1848.06l3.978 16.893c.76 3.227 4.399 5.16 8.091 4.29l10.273-2.417c3.689-.87 6.086-4.22 5.325-7.451l-3.974-16.893c-.76-3.228-4.402-5.16-8.095-4.29l-10.269 2.417c-3.692.87-6.089 4.223-5.329 7.451" fill="#cdba7e" fill-rule="nonzero"/><path d="M736.779 1866.78l-6.737-28.617-.176.033 1.873 7.965c1.716 7.285 1.763 14.633.371 21.728l4.473-1.056.196-.053z" fill="#ae9866" fill-rule="nonzero"/><path d="M737.059 1843.28c-2.085-4.987-7.461-4.236-7.461-4.236 5.25 1.335 7.461 4.236 7.461 4.236" fill="#fff" fill-rule="nonzero"/><path d="M716.941 1859.53l-1.285-5.455c-.133-.568-.774-.907-1.425-.754l-94.925 22.345c-.647.153-1.072.74-.936 1.308l1.281 5.459c.136.564.777.906 1.425.753l94.925-22.348c.651-.153 1.072-.741.94-1.308" fill="#a5a8a8" fill-rule="nonzero"/><path d="M731.74 1846.16l-63.214-268.54c-7.324-31.107-42.399-49.711-77.949-41.344-35.55 8.371-58.642 40.667-51.321 71.774l63.217 268.54c7.321 31.107 42.396 49.711 77.946 41.34 35.55-8.367 58.642-40.663 51.321-71.77" fill="#0098c7" fill-rule="nonzero"/><path d="M680.418 1917.93c-35.546 8.367-70.624-10.237-77.945-41.341l-63.214-268.543c-7.325-31.104 15.771-63.403 51.317-71.77l89.842 381.654z" fill="#007aa3" fill-rule="nonzero"/><path d="M723.315 1846.35l-62.28-264.576c-6.495-27.585-37.595-44.08-69.118-36.659-31.522 7.421-52.001 36.058-45.507 63.639l62.281 264.579c6.495 27.581 37.595 44.08 69.117 36.659 31.523-7.421 52.002-36.058 45.507-63.642" fill="#00b4e6" fill-rule="nonzero"/><path d="M695.255 1903.16a65.994 65.994 0 0 1-17.445 6.83 65.894 65.894 0 0 1-18.756 1.663l-84.665-359.664a65.911 65.911 0 0 1 17.527-6.879 66.077 66.077 0 0 1 18.66-1.67l84.679 359.72z" fill="#fbad29" fill-rule="nonzero"/><path d="M677.508 1910.06c-31.419 7.244-62.344-9.234-68.815-36.729l-1.743-7.407 39.169-9.221 12.935 54.95a65.92 65.92 0 0 0 18.454-1.593m.601-.143a65.79 65.79 0 0 0 17.146-6.757l-12.942-54.976 39.258-9.24 1.743 7.404c6.475 27.495-13.855 56.039-45.205 63.569m-.541.129c-.02.004-.036.007-.053.014.017-.007.033-.01.053-.014m.485-.116l.05-.01-.05.01m-.409.1l-.043.01.043-.01m.332-.08l.04-.01-.04.01m-.083.02c.01-.003.02-.007.03-.007-.01.004-.02.004-.03.007m-.166.04c-.013.003-.023.003-.033.006.01-.003.02-.003.033-.006" fill="#00a5d1" fill-rule="nonzero"/><path d="M678.016 1909.94l.036-.01a.283.283 0 0 0 .05-.013h.004a66.029 66.029 0 0 0 17.149-6.757l-12.943-54.976-36.194 8.519 12.936 54.95a65.92 65.92 0 0 0 18.454-1.593l.06-.014.036-.01.206-.046.206-.05z" fill="#eb9f26" fill-rule="nonzero"/><path d="M592.032 1545.09c-.01.004-.02.004-.033.007.013-.003.023-.003.033-.007m-.229.053c.01 0 .02-.003.03-.006-.01.003-.02.006-.03.006m-.093.024l.04-.01-.04.01zm.412-.097c-.013 0-.027.004-.04.007.013-.003.027-.007.04-.007m.09-.023a.225.225 0 0 1-.054.013c.02-.003.037-.01.054-.013m-.591.14c.016-.004.036-.007.053-.014-.017.007-.037.01-.053.014m-5.08 58.436l-39.169 9.22-.963-4.084c-6.471-27.495 13.855-56.039 45.208-63.572a66.064 66.064 0 0 0-17.228 6.806l12.152 51.63zm75.455-17.764l-39.258 9.241-12.162-51.653a66.095 66.095 0 0 0-18.361 1.6c31.419-7.248 62.347 9.234 68.818 36.728l.963 4.084z" fill="#00a5d1" fill-rule="nonzero"/><path d="M610.577 1543.45a66.116 66.116 0 0 0-18.364 1.6l-.595.14a66.064 66.064 0 0 0-17.228 6.806l12.152 51.63 18.098-4.264 18.095-4.259-12.158-51.653z" fill="#eb9f26" fill-rule="nonzero"/><path d="M658.14 1866.73c1.514-.355 2.487-1.72 2.174-3.045-.312-1.321-1.789-2.108-3.303-1.749-1.514.355-2.487 1.719-2.175 3.041.312 1.325 1.79 2.108 3.304 1.753M660.789 1877.99c1.514-.355 2.487-1.719 2.175-3.044-.312-1.322-1.79-2.108-3.304-1.75-1.514.355-2.486 1.717-2.174 3.041.312 1.325 1.789 2.109 3.303 1.753M676.115 1862.5c1.514-.355 2.487-1.72 2.175-3.044-.312-1.322-1.789-2.109-3.303-1.75-1.514.355-2.487 1.72-2.175 3.041.312 1.325 1.789 2.109 3.303 1.753M678.765 1873.76c1.514-.355 2.486-1.72 2.174-3.044-.312-1.322-1.789-2.109-3.303-1.75-1.514.355-2.487 1.716-2.175 3.041.312 1.325 1.79 2.108 3.304 1.753M590.778 1580.57c1.514-.356 2.487-1.72 2.175-3.042-.312-1.325-1.79-2.111-3.304-1.753-1.514.355-2.487 1.717-2.175 3.041.312 1.325 1.79 2.109 3.304 1.754M593.427 1591.83c1.514-.355 2.487-1.719 2.175-3.041-.312-1.325-1.79-2.112-3.304-1.753-1.514.355-2.487 1.717-2.175 3.041.313 1.325 1.79 2.109 3.304 1.753M608.753 1576.34c1.514-.355 2.487-1.72 2.175-3.041-.312-1.325-1.79-2.112-3.304-1.754-1.514.356-2.486 1.717-2.174 3.042.312 1.325 1.789 2.108 3.303 1.753M611.402 1587.6c1.515-.355 2.487-1.72 2.175-3.042-.312-1.324-1.789-2.111-3.303-1.753-1.514.356-2.487 1.717-2.175 3.042.312 1.325 1.789 2.108 3.303 1.753" fill="#fff" fill-rule="nonzero"/><path d="M646.118 1856.71l-39.168 9.22-7.896-33.534s6.551-15.187 35.195-26.114l11.869 50.428zm75.456-17.763l-39.262 9.243-11.87-50.427c30.53-3.005 43.237 7.65 43.237 7.65l7.895 33.534z" fill="#02bee3" fill-rule="nonzero"/><path d="M670.442 1797.76c-5.528.545-11.637 1.534-18.367 3.118-6.727 1.584-12.64 3.426-17.827 5.402l11.87 50.427 24.374-5.737 11.82-2.782-11.87-50.428z" fill="#fdc05e" fill-rule="nonzero"/><path d="M646.118 1856.71l36.194-8.52-36.194 8.52z" fill="#f0b45c" fill-rule="nonzero"/><path d="M598.409 1654.04c-30.463 2.972-43.143-7.659-43.143-7.659l-7.895-33.535 39.172-9.223 11.866 50.417zm36.201-8.496l-11.873-50.441 39.258-9.24 7.896 33.534s-6.564 15.217-35.281 26.147" fill="#02bee3" fill-rule="nonzero"/><path d="M634.61 1645.54l-11.873-50.441-36.194 8.523 11.866 50.415c5.552-.542 11.694-1.534 18.458-3.128 6.693-1.574 12.577-3.403 17.743-5.369" fill="#fdc05e" fill-rule="nonzero"/><path d="M615.957 1647.06l-18.182 4.28-3.745-15.907 18.183-4.28 3.744 15.907zM637.879 1658.69l-18.178 4.28-3.745-15.907 18.178-4.28 3.745 15.907zM623.447 1678.88l-18.182 4.28-3.745-15.908 18.182-4.279 3.745 15.907zM645.372 1690.51l-18.182 4.281-3.745-15.907 18.182-4.281 3.745 15.907zM630.936 1710.7l-18.182 4.28-3.744-15.907 18.182-4.28 3.744 15.907zM652.861 1722.32l-18.181 4.281-3.745-15.907 18.181-4.281 3.745 15.907zM638.426 1742.51l-18.182 4.28-3.745-15.907 18.183-4.28 3.744 15.907zM660.351 1754.14l-18.181 4.28-3.745-15.907 18.181-4.28 3.745 15.907z" fill="#00b4e6"/><path d="M645.916 1774.33l-18.182 4.28-3.745-15.911 18.182-4.28 3.745 15.911zM667.838 1785.96l-18.179 4.28-3.745-15.907 18.179-4.28 3.745 15.907zM653.405 1806.15l-18.182 4.28-3.744-15.907 18.182-4.28 3.744 15.907zM675.328 1817.78l-18.179 4.28-3.745-15.907 18.178-4.28 3.746 15.907z" fill="#00b4e6"/><path d="M405.542 1738.56l-5.777-13.964s-3.247-18.996-23.521-47.722c-7.57-10.731-13.818-23.607-14.034-36.997-.292-18.272 19.104-39.674 31.134-52.47 16.246-17.282 38.295-35.975 63.429-35.686 43.399.495 35.719 50.849 35.719 50.849s-51.669 128.523-86.95 135.99" fill="#1c1814" fill-rule="nonzero"/><path d="M532.642 1877.95c-42.317 17.823-62.474 55.797-62.474 55.797 9.705 13.075 50.033 61.222 50.033 61.222l-79.809-56.886 18.125-97.319s51.507 14.506 74.125 37.186" fill="#68d65f" fill-rule="nonzero"/><path d="M496.661 1607.45s5.714 20.509 9.549 23.082c3.838 2.57 12.543 21.379 12.543 21.379s8.958 3.227 6.598 8.131c-2.361 4.904-2.165 11.521-2.165 11.521s-.448 8.968 2.749 11.11c3.197 2.145 5.724 14.961 1.009 21.993-4.711 7.032-16.285 24.298-38.488 24.241 0 0-9.728 6.946-11.733 17.866-2.002 10.921-13.577 28.186-25.105 28.797-11.531.611-43.352 5.229-49.531-.764-6.175-5.993-9.283-24.898-9.283-24.898s7.391-10.609 6.358-24.275c0 0 19.297-8.43 24.855-11.192 5.558-2.759 1.511-6.401-4.455-11.325-5.967-4.928-15.094-25.872-3.135-27.123 11.96-1.252 21.748 11.796 21.748 11.796s10.701-10.432 8.586-18.337c-2.115-7.906-7.434-15.177-8.068-18.381-.631-3.204 22.428-4.426 21.591-11.475-.833-7.049-13.649-4.519-13.41-14.552.236-10.034 37.651-31.287 39.57-30.002 1.919 1.285 7.448 9.625 10.217 12.408" fill="#f4b77f" fill-rule="nonzero"/><path d="M470.169 1933.75s-22.046-26.296-40.131-49.674c0 0 32.754 66.963 38.392 92.124 5.641 25.157 1.739-42.45 1.739-42.45" fill="#62cc56" fill-rule="nonzero"/><path d="M488.456 1728.91s-27.717 6.966-48.927-11.75c0 0 10.306 24.911 38.565 24.722 0 0 5.754-10.668 10.362-12.972" fill="#eda870" fill-rule="nonzero"/><path d="M336.422 1992.43s-3.815 82.634 0 84.543c3.815 1.906 51.487 10.17 68.653 8.898 17.162-1.271-68.653-93.441-68.653-93.441" fill="#68d65f" fill-rule="nonzero"/><path d="M799.732 1977.79l106.227-91.074-34.563-146.824-115.873 50.099-.803-3.413-203.365 80.824 27.751 117.878 220.626-7.49z" fill="#eaa765" fill-rule="nonzero"/><path d="M757.586 1787.1l44.744 190.076 103.627-90.463-27.322-120.773-121.049 21.16z" fill="#e09a5a" fill-rule="nonzero"/><path d="M515.586 1872.89l211.25-6.484 32.817-82.199-217.718 14.011-26.349 74.672z" fill="#f0b26f" fill-rule="nonzero"/><path d="M757.586 1787.1l81.758 32.408 96.439-74.356-74.413-24.527-103.784 66.475z" fill="#f0b26f" fill-rule="nonzero"/><path d="M815.723 1872.44c12.129 32.847-23.212 61.129-37.303 68.138-14.134 7.019-44.398 14.237-79.665 28.239-35.311 14.011-132.179 37.359-148.458 40.573-15.993 3.154-29.616-13.816-30.088-14.38l-.006-.04s-40.328-48.146-50.033-61.222c0 0 20.157-37.973 62.47-55.796 22.618 22.68 25.719 54.458 30.593 57.722 4.871 3.267 4.871 3.267 34.162-1.816 29.317-5.07 128.32-17.591 134.024-20.831 5.701-3.241 33.412-19.978 39.391-28.896 5.993-8.941 16.03-11.641 18.74-8.626 2.702 2.978-14.725 28.976-14.725 28.976s16.242-6.01 29.277-20.851c14.905-16.967 11.621-11.19 11.621-11.19" fill="#f4b77f" fill-rule="nonzero"/><path d="M235.665 1138.28c17.919 14.104 35.842 28.208 53.761 42.313 48.774 38.385 97.545 76.77 146.319 115.159 72.146 56.779 144.291 113.561 216.436 170.341l264.105 207.859 289.328 227.715c97.372 76.634 194.741 153.269 292.11 229.899 90.815 71.478 181.634 142.953 272.449 214.428 77.075 60.66 154.151 121.324 231.23 181.985l165.447 130.216c26.117 20.555 52.208 41.147 78.355 61.667 1.118.876 2.234 1.759 3.353 2.639 21.113 16.618 49.827 20.602 70.432 0 17.275-17.278 21.253-53.705 0-70.432l-53.761-42.313c-48.774-38.385-97.548-76.774-146.319-115.159l-216.436-170.344-264.105-207.86-289.328-227.711-292.11-229.903c-90.819-71.475-181.634-142.949-272.449-214.424-77.075-60.664-154.151-121.324-231.23-181.988l-165.447-130.216c-26.121-20.553-52.208-41.148-78.355-61.664-1.118-.88-2.234-1.76-3.353-2.639-21.117-16.621-49.827-20.606-70.432 0-17.275 17.275-21.253 53.704 0 70.432" fill="#f43306" fill-rule="nonzero"/><path d="M2248.56 1067.84l-53.761 42.313c-48.774 38.385-97.545 76.77-146.319 115.159-72.146 56.779-144.291 113.562-216.436 170.341l-264.105 207.86c-96.442 75.903-192.885 151.811-289.328 227.714-97.372 76.635-194.741 153.269-292.11 229.9l-272.449 214.427c-77.075 60.66-154.151 121.324-231.23 181.985l-165.448 130.216c-26.043 20.499-53.127 40.158-78.354 61.667-1.079.919-2.237 1.76-3.353 2.639-21.153 16.648-17.431 53.001 0 70.432 20.891 20.888 49.226 16.691 70.432 0a478636.42 478636.42 0 0 0 53.761-42.313c48.774-38.385 97.549-76.77 146.323-115.158l216.432-170.342 264.105-207.859 289.331-227.715c97.369-76.634 194.738-153.268 292.111-229.899 90.815-71.478 181.63-142.953 272.445-214.427l231.23-181.986c55.149-43.405 110.302-86.81 165.451-130.216 26.044-20.499 53.127-40.158 78.351-61.666 1.082-.92 2.237-1.76 3.353-2.64 21.157-16.648 17.435-53.001 0-70.432-20.888-20.891-49.222-16.691-70.432 0" fill="#f43306" fill-rule="nonzero"/><defs><linearGradient id="_Linear1" x2="1" gradientUnits="userSpaceOnUse" gradientTransform="scale(-374.586 374.586) rotate(-24.708 9.493 7.533)"><stop offset="0" stop-color="#d8b699"/><stop offset="1" stop-color="#c09c80"/></linearGradient><linearGradient id="_Linear2" x2="1" gradientUnits="userSpaceOnUse" gradientTransform="scale(-317.23 317.23) rotate(-24.708 11.182 8.77)"><stop offset="0" stop-color="#fff"/><stop offset=".9" stop-color="#f3f1f2"/><stop offset="1" stop-color="#e7e4e4"/></linearGradient></defs></svg>
