<?xml version="1.0" encoding="UTF-8" standalone="no"?><!DOCTYPE svg PUBLIC "-//W3C//DTD SVG 1.1//EN" "http://www.w3.org/Graphics/SVG/1.1/DTD/svg11.dtd"><svg width="100%" height="100%" viewBox="0 0 2481 3508" version="1.1" xmlns="http://www.w3.org/2000/svg" xmlns:xlink="http://www.w3.org/1999/xlink" xml:space="preserve" xmlns:serif="http://www.serif.com/" style="fill-rule:evenodd;clip-rule:evenodd;stroke-linejoin:round;stroke-miterlimit:1.41421;"><path d="M1303.73,2456.72c0,30.623 -24.825,55.455 -55.455,55.455c-30.619,0 -55.451,-24.832 -55.451,-55.455c0,-30.626 24.832,-55.454 55.451,-55.454c30.63,0 55.455,24.828 55.455,55.454" style="fill:#1d1d1b;fill-rule:nonzero;"/><path d="M1282.36,2456.72c0,18.826 -15.259,34.082 -34.082,34.082c-18.822,0 -34.075,-15.256 -34.075,-34.082c0,-18.825 15.253,-34.082 34.075,-34.082c18.823,0 34.082,15.257 34.082,34.082" style="fill:#5e5e5f;fill-rule:nonzero;"/><path d="M1265.18,2458.88c0,9.333 -7.563,16.897 -16.897,16.897c-9.333,0 -16.893,-7.564 -16.893,-16.897c0,-9.333 7.56,-16.897 16.893,-16.897c9.334,0 16.897,7.564 16.897,16.897" style="fill:#1d1d1b;fill-rule:nonzero;"/><path d="M1235.28,2376.14l2.599,84.048c0,0 -2.599,10.396 10.396,11.262c0,0 8.663,1.734 13.865,-9.529l32.924,-80.582l-59.784,-5.199Z" style="fill:#f9cb40;fill-rule:nonzero;"/><path d="M1221.42,2355.34l7.803,29.46l74.512,0l0,-25.994l-82.315,-3.466Z" style="fill:#e5af29;fill-rule:nonzero;"/><path d="M1254.35,2457.72c0,3.592 -2.905,6.498 -6.498,6.498c-3.585,0 -6.501,-2.906 -6.501,-6.498c0,-3.586 2.916,-6.498 6.501,-6.498c3.593,0 6.498,2.912 6.498,6.498" style="fill:#c35d17;fill-rule:nonzero;"/><path d="M1985.02,2460.04c0,30.622 -24.825,55.454 -55.454,55.454c-30.623,0 -55.452,-24.832 -55.452,-55.454c0,-30.626 24.829,-55.455 55.452,-55.455c30.629,0 55.454,24.829 55.454,55.455" style="fill:#1d1d1b;fill-rule:nonzero;"/><path d="M1963.65,2460.04c0,18.825 -15.26,34.082 -34.082,34.082c-18.82,0 -34.076,-15.257 -34.076,-34.082c0,-18.826 15.256,-34.083 34.076,-34.083c18.822,0 34.082,15.257 34.082,34.083" style="fill:#5e5e5f;fill-rule:nonzero;"/><path d="M1946.46,2462.21c0,9.333 -7.567,16.896 -16.9,16.896c-9.333,0 -16.893,-7.563 -16.893,-16.896c0,-9.334 7.56,-16.897 16.893,-16.897c9.333,0 16.9,7.563 16.9,16.897" style="fill:#1d1d1b;fill-rule:nonzero;"/><path d="M1916.57,2379.46l2.6,84.048c0,0 -2.6,10.395 10.395,11.262c0,0 8.663,1.733 13.865,-9.529l32.924,-80.582l-59.784,-5.199Z" style="fill:#f9cb40;fill-rule:nonzero;"/><path d="M1902.7,2358.66l7.803,29.461l74.512,0l0,-25.994l-82.315,-3.467Z" style="fill:#e5af29;fill-rule:nonzero;"/><path d="M1935.63,2461.05c0,3.593 -2.905,6.498 -6.497,6.498c-3.593,0 -6.501,-2.905 -6.501,-6.498c0,-3.586 2.908,-6.497 6.501,-6.497c3.592,0 6.497,2.911 6.497,6.497" style="fill:#c35d17;fill-rule:nonzero;"/><path d="M1882.07,1719.03l313.387,-0.84l-66.235,-79.716c0,0 -17.764,-21.946 -59.765,-21.946l-187.387,0l-549.229,0l-187.387,0c-42.008,0 -59.771,21.946 -59.771,21.946l-66.235,79.716l313.393,0.84l0,1.471l274.61,-0.734l274.619,0.734l0,-1.471Z" style="fill:#e5af29;fill-rule:nonzero;"/><path d="M2064.41,1700.53l-38.877,-46.786c0,0 -14.237,-17.587 -47.891,-17.587l-740.394,0c-33.654,0 -47.895,17.587 -47.895,17.587l-38.87,46.786l913.927,0Z" style="fill:#322507;fill-rule:nonzero;"/><rect x="961.293" y="1837.18" width="111.46" height="39.856" style="fill:#e5af29;"/><path d="M1072.75,1877.04l-58.151,0l-8.084,-39.856l66.235,0l0,39.856Z" style="fill:#e5af29;fill-rule:nonzero;"/><rect x="2143.76" y="1837.18" width="111.467" height="39.856" style="fill:#e5af29;"/><path d="M2143.76,1877.04l58.157,0l8.072,-39.856l-66.229,0l0,39.856Z" style="fill:#e5af29;fill-rule:nonzero;"/><path d="M1608.26,1753.26l0,-0.989l-35.865,0.528l-40.869,-0.528l0.024,1.129l-512.106,7.536c0,0 75.117,542.407 77.544,547.603c2.427,5.199 0,53.724 84.805,62.387l858.585,0c84.806,-8.663 82.378,-57.188 84.806,-62.387c2.427,-5.196 77.544,-547.603 77.544,-547.603l-594.468,-7.676Z" style="fill:#f9cb40;fill-rule:nonzero;"/><path d="M1021.89,1778.52l1178.4,0c1.564,-11.262 2.444,-17.584 2.444,-17.584l-594.467,-7.673l0,-0.992l-35.866,0.528l-40.868,-0.528l0.023,1.129l-512.106,7.536c0,0 0.88,6.322 2.444,17.584" style="fill:#e5af29;fill-rule:nonzero;"/><path d="M1033.98,1788.66l72.69,490.418c0,0 -2.42,77.982 106.619,83.182l462.814,0l-327.119,-34.66c0,0 -94.501,-3.466 -111.467,-84.912c-16.956,-81.448 -60.571,-455.761 -60.571,-455.761l-142.966,1.733Z" style="fill:#e5af29;fill-rule:nonzero;"/><path d="M1121.51,1761.8l13.33,54.588l12.113,0l7.882,-55.455l-33.325,0.867Z" style="fill:#e5af29;fill-rule:nonzero;"/><path d="M1356.56,1761.8l13.331,54.588l12.112,0l7.872,-55.455l-33.315,0.867Z" style="fill:#e5af29;fill-rule:nonzero;"/><path d="M1591.6,1761.8l13.324,54.588l12.119,0l7.875,-55.455l-33.318,0.867Z" style="fill:#e5af29;fill-rule:nonzero;"/><path d="M1826.64,1761.8l13.324,54.588l12.115,0l7.876,-55.455l-33.315,0.867Z" style="fill:#e5af29;fill-rule:nonzero;"/><path d="M2061.68,1761.8l13.324,54.588l12.119,0l7.872,-55.455l-33.315,0.867Z" style="fill:#e5af29;fill-rule:nonzero;"/><rect x="1002.68" y="1733.78" width="1209.92" height="8.088" style="fill:#a66a0f;"/><rect x="992.364" y="1741.29" width="1230.55" height="26.572" style="fill:#f9cb40;"/><rect x="992.364" y="1710.1" width="1230.55" height="26.572" style="fill:#f9cb40;"/><rect x="992.364" y="1709.89" width="1230.55" height="17.162" style="fill:#ffd876;"/><path d="M1047.68,1702.01l51.7,-62.384c0,0 20.997,-20.797 72.683,-19.639l505.621,0l-465.234,6.93c0,0 -14.536,-3.467 -30.692,9.243c-16.156,12.71 -51.686,64.698 -51.686,64.698l-82.392,1.152Z" style="fill:#f9cb40;fill-rule:nonzero;"/><path d="M507.374,2067.56c0,0 24.274,180.438 24.274,200.804c0,20.363 -6.415,68.384 -20.672,123.37c-14.254,54.986 -24.437,154.779 -24.437,154.779l-55.295,0.903c0,0 0.306,-188.267 -3.765,-222.89c-4.074,-34.62 -36.659,-224.023 -30.549,-232.17c6.109,-8.145 96.309,-39.734 110.444,-24.796" style="fill:#51331d;fill-rule:nonzero;"/><path d="M352.556,2228.89c0,0 -7.746,-30.988 -12.175,-42.057c-4.426,-11.067 -20.144,-90.244 15.273,-121.232c32.342,-28.302 90.974,22.734 90.974,22.734l-94.072,140.555Z" style="fill:#5b3d23;fill-rule:nonzero;"/><path d="M431.978,2562.09c0,0 -1.467,13.932 -3.665,17.601c-2.202,3.665 -5.133,6.597 -3.669,13.198c1.467,6.6 16.867,28.597 36.665,14.665c19.799,-13.932 19.799,-37.399 19.799,-37.399l2.935,-25.665l-52.799,2.935l0.734,14.665Z" style="fill:#f4b77f;fill-rule:nonzero;"/><path d="M587.806,2636.84c0,0 3.327,16.406 -25.433,23.292c-19.301,4.612 -65.299,-2.822 -82.601,-4.542c-17.295,-1.72 -48.887,-4.732 -52.091,-7.172c-3.191,-2.414 -9.19,-3.174 -6.272,-19.974c2.912,-16.837 166.397,8.396 166.397,8.396" style="fill:#ebedeb;fill-rule:nonzero;"/><path d="M433.683,2591.56l-9.479,-7.636c0,0 -7.251,11.537 -3.147,47.625c0,0 37.412,6.358 52.788,9.768c15.416,3.453 56.905,8.367 67.67,9.058c9.801,0.634 19.851,-1.727 29.194,-4.29c6.143,-1.673 17.631,-3.227 17.349,-11.541c-0.21,-5.684 -5.104,-12.796 -9.891,-15.731c-1.883,-1.136 -4.054,-1.767 -6.193,-2.341c-7.347,-1.989 -16.176,-3.559 -22.202,-8.5c-3.397,-2.799 -7.344,-4.791 -11.146,-7.055c-9.419,-5.562 -18.746,-11.316 -28.043,-17.11c-10.236,-6.351 -20.459,-12.766 -30.602,-19.244c0,0 -11.933,13.414 -7.55,22.239c0,0 -33.747,27.512 -38.748,4.758" style="fill:#68d65f;fill-rule:nonzero;"/><path d="M468.077,2577.59c-1.205,4.124 0.594,8.47 4.529,10.575c17.892,9.572 71.388,33.332 78.022,33.684c7.981,0.422 13.075,-2.158 12.261,-6.378c-0.747,-3.865 -57.187,-30.171 -75.585,-50.687c-2.434,-2.716 -7.181,-2.347 -10.253,-0.199c-3.283,2.298 -7.005,6.269 -8.974,13.005" style="fill:#7ae56e;fill-rule:nonzero;"/><path d="M330.919,2567.09c0,0 -4.635,15.24 -6.661,16.937c-2.028,1.7 -3.864,8.018 1.637,17.74c5.498,9.721 -1.557,25.994 24.444,14.27c26.004,-11.727 25.851,-26.462 24.968,-34.481c-0.887,-8.018 7.699,-10.442 7.699,-10.442l7.252,-30.184l-56.152,-10.731l-3.187,36.891Z" style="fill:#f4b77f;fill-rule:nonzero;"/><path d="M486.171,2641.9c0,0 2.008,18.812 -26.951,24.819c-19.433,4.02 -64.362,-7.122 -81.604,-9.367c-17.236,-2.244 -53.728,-6.009 -56.856,-8.546c-3.118,-2.507 -7.623,-4.595 -4.197,-21.299c3.424,-16.741 169.608,14.393 169.608,14.393" style="fill:#ebedeb;fill-rule:nonzero;"/><path d="M333.498,2591.95l-9.24,-7.922c0,0 -18.484,12.58 -7.693,43.482c0,0 40.294,11.517 55.561,15.399c15.303,3.918 56.623,10.093 67.364,11.113c9.775,0.929 19.895,-1.123 29.311,-3.4c6.189,-1.484 17.72,-2.69 17.693,-11.007c-0.039,-5.687 -4.714,-12.949 -9.409,-16.023c-1.846,-1.196 -4.001,-1.893 -6.116,-2.53c-7.285,-2.212 -16.063,-4.051 -21.937,-9.174c-3.307,-2.902 -7.195,-5.014 -10.923,-7.391c-9.247,-5.847 -18.55,-9.313 -27.664,-15.386c-10.041,-6.664 -19.905,-15.95 -29.849,-22.733c0,0 -12.338,13.041 -8.225,21.996c0,0 -34.57,26.472 -38.873,3.576" style="fill:#68d65f;fill-rule:nonzero;"/><path d="M369.555,2580.43c-0.973,3.898 0.707,7.975 4.217,9.924c15.97,8.865 63.632,35.069 69.485,35.341c7.046,0.328 11.462,-6.428 10.655,-10.396c-0.737,-3.636 -51.039,-27.933 -67.686,-47.104c-2.205,-2.537 -6.378,-2.151 -9.041,-0.096c-2.846,2.191 -6.04,5.966 -7.63,12.331" style="fill:#7ae56e;fill-rule:nonzero;"/><path d="M464.886,2083.54c0,0 6.876,149.151 4.489,169.378c-2.388,20.224 -16.097,84.228 -36.699,137.166c-20.605,52.937 -45.534,163.362 -45.534,163.362l-53.953,-4.981c0,0 24.427,-200.054 24.44,-234.913c0.017,-34.862 -15.416,-144.798 -8.394,-152.173c7.023,-7.374 103.366,-94.331 115.651,-77.839" style="fill:#5b3d23;fill-rule:nonzero;"/><path d="M525.3,1772.74c9.084,13.998 26.983,32.601 26.983,32.601l-31.452,48.87l11.81,23.737c-22.614,-22.684 -74.125,-37.187 -74.125,-37.187l-18.125,97.316l79.812,56.889l0.007,0.04c-0.322,1.796 -10.555,59.1 -13.886,69.861c-3.36,10.92 -121.859,38.079 -159.656,5.883c-25.128,-21.405 0.226,-201.169 3.357,-229.441c3.087,-28.262 42.777,-91.419 42.777,-91.419c8.49,10.986 7.265,8.858 19.434,6.458c12.168,-2.401 46.516,3.459 52.904,3.785c6.385,0.325 11.568,-13.361 11.568,-13.361c7.311,0.946 39.507,11.969 48.592,25.968" style="fill:#68d65f;fill-rule:nonzero;"/><path d="M520.832,1854.21c0,0 44.049,21.05 54.817,24.739c10.771,3.688 32.731,5.166 36.595,5.989c3.862,0.824 24.716,-43.461 24.716,-43.461c0,0 -48.449,-30.075 -84.676,-36.138c-36.227,-6.063 -31.452,48.871 -31.452,48.871" style="fill:#f4b77f;fill-rule:nonzero;"/><path d="M577.953,1789.81l201.774,77.734l142.733,-263.248l-201.767,-77.73l-142.74,263.244Z" style="fill:url(#_Linear1);fill-rule:nonzero;"/><path d="M601.636,1781.46l170.082,65.525l127.065,-234.342l-170.082,-65.524l-127.065,234.341Z" style="fill:url(#_Linear2);fill-rule:nonzero;"/><path d="M760.277,1817.62l104.674,-193.048l-124.811,-48.084l-104.674,193.048l124.811,48.084Z" style="fill:#daf1fa;fill-rule:nonzero;"/><g><clipPath id="_clip3"><path d="M635.466,1769.53l124.811,48.083l104.673,-193.044l-124.811,-48.084l-104.673,193.045Z" clip-rule="nonzero"/></clipPath><g clip-path="url(#_clip3)"><path d="M700.278,1616.89c2.132,1.726 4.752,3.802 7.913,6.01c3.147,2.217 6.74,4.688 10.807,7.188c2.032,1.255 4.147,2.566 6.338,3.921c2.245,1.282 4.562,2.606 6.946,3.971c4.745,2.762 9.904,5.439 15.237,8.234c5.378,2.716 10.933,5.528 16.661,8.261c5.773,2.649 11.64,5.342 17.507,8.032c5.96,2.533 11.916,5.063 17.783,7.556c5.867,2.491 11.79,4.675 17.438,6.936c5.638,2.275 11.203,4.27 16.472,6.166c5.256,1.929 10.263,3.676 14.884,5.279c4.619,1.617 8.922,2.962 12.72,4.187c3.812,1.199 7.132,2.241 9.868,3.101c5.492,1.68 8.656,2.583 8.656,2.583c0,0 -2.892,-1.414 -8.009,-3.788c-5.116,-2.374 -12.467,-5.678 -21.332,-9.549c-4.406,-1.982 -9.181,-4.121 -14.274,-6.302c-5.076,-2.211 -10.429,-4.542 -15.963,-6.953c-11.057,-4.827 -22.85,-9.977 -34.64,-15.126c-5.871,-2.604 -11.741,-5.213 -17.521,-7.78c-5.741,-2.616 -11.392,-5.196 -16.857,-7.693c-5.372,-2.629 -10.738,-4.93 -15.628,-7.391c-4.948,-2.39 -9.606,-4.668 -13.859,-6.843c-2.155,-1.049 -4.14,-2.154 -6.069,-3.16c-1.923,-1.013 -3.782,-1.936 -5.446,-2.899c-3.386,-1.873 -6.301,-3.546 -8.672,-4.97c-2.331,-1.471 -4.184,-2.617 -5.376,-3.473c-1.195,-0.847 -1.789,-1.355 -1.789,-1.355c0,0 1.969,2.364 6.205,5.857" style="fill:#8ac63f;fill-rule:nonzero;"/><path d="M872.913,1680.52c-5.618,-3.99 -12.172,-8.649 -19.194,-13.636c-3.49,-2.503 -7.099,-5.09 -10.761,-7.716c-3.676,-2.61 -7.355,-5.319 -11,-8.052c-3.686,-2.692 -7.335,-5.418 -10.857,-8.167c-3.483,-2.783 -7.019,-5.416 -10.257,-8.132c-3.243,-2.712 -6.411,-5.302 -9.26,-7.885c-1.461,-1.268 -2.802,-2.553 -4.11,-3.795c-1.348,-1.219 -2.573,-2.44 -3.735,-3.632c-1.206,-1.166 -2.238,-2.358 -3.261,-3.473c-1.059,-1.093 -1.956,-2.192 -2.792,-3.234c-0.425,-0.522 -0.834,-1.026 -1.229,-1.511c-0.358,-0.505 -0.7,-0.996 -1.036,-1.464c-0.667,-0.937 -1.331,-1.786 -1.766,-2.627c-0.488,-0.823 -0.923,-1.557 -1.305,-2.198c-0.302,-0.674 -0.564,-1.248 -0.773,-1.713c-0.422,-0.943 -0.648,-1.447 -0.648,-1.447c0,0 0.09,0.541 0.256,1.557c0.089,0.514 0.199,1.145 0.328,1.892c0.226,0.721 0.489,1.548 0.777,2.474c0.263,0.95 0.738,1.919 1.209,3.001c0.442,1.103 1.036,2.238 1.733,3.417c1.305,2.41 3.002,5.023 5.073,7.723c2.022,2.729 4.377,5.588 7.079,8.43c2.646,2.892 5.568,5.834 8.752,8.729c3.178,2.902 6.478,5.883 10.027,8.722c3.53,2.852 7.169,5.694 10.864,8.473c3.752,2.716 7.537,5.396 11.312,7.975c3.749,2.607 7.594,4.997 11.279,7.335c3.672,2.357 7.348,4.489 10.821,6.521c3.456,2.045 6.813,3.874 9.914,5.551c6.195,3.36 11.514,5.957 15.27,7.72c3.761,1.756 5.966,2.676 5.966,2.676c0,0 -7.404,-5.538 -18.676,-13.514" style="fill:#8ac63f;fill-rule:nonzero;"/><path d="M861.675,1682.31c-3.022,-1.736 -6.292,-3.619 -9.755,-5.611c-3.443,-2.005 -7.079,-4.124 -10.837,-6.312c-3.729,-2.224 -7.584,-4.518 -11.502,-6.853c-3.871,-2.397 -7.882,-4.714 -11.747,-7.241c-3.914,-2.45 -7.888,-4.821 -11.644,-7.364c-1.885,-1.262 -3.778,-2.484 -5.671,-3.666c-1.889,-1.185 -3.668,-2.46 -5.465,-3.662c-3.566,-2.44 -7.088,-4.701 -10.286,-7.032c-3.194,-2.328 -6.378,-4.346 -9.107,-6.455c-2.759,-2.072 -5.339,-3.924 -7.637,-5.561c-2.227,-1.717 -4.17,-3.214 -5.773,-4.443c-3.224,-2.45 -5.12,-3.808 -5.12,-3.808c0,0 1.481,1.78 4.167,4.821c1.358,1.504 2.961,3.39 4.927,5.415c2.002,1.986 4.27,4.227 6.8,6.611c2.463,2.464 5.372,4.854 8.41,7.441c3.001,2.626 6.298,5.236 9.794,7.835c3.45,2.66 7.079,5.329 10.891,7.879c3.752,2.633 7.709,5.103 11.624,7.63c3.951,2.487 8.045,4.758 11.999,7.112c4.001,2.281 8.045,4.369 11.94,6.411c3.914,2.012 7.739,3.895 11.428,5.575c3.649,1.747 7.182,3.267 10.459,4.635c3.24,1.428 6.318,2.56 9.004,3.622c2.713,1.03 5.093,1.883 7.072,2.557c3.958,1.358 6.282,2.005 6.282,2.005c0,0 -8.101,-4.615 -20.253,-11.541" style="fill:#65a243;fill-rule:nonzero;"/><path d="M881.172,1675.96c-2.255,-1.623 -5.479,-3.944 -9.343,-6.726c-3.815,-2.799 -8.221,-6.056 -12.534,-9.832c-1.079,-0.933 -2.165,-1.919 -3.184,-2.921c-1.113,-1.086 -2.045,-2.052 -3.071,-3.135c-2.006,-2.141 -3.865,-4.435 -5.472,-6.843c-1.667,-2.374 -3.078,-4.88 -4.114,-7.45c-1.013,-2.573 -1.833,-5.163 -2.122,-7.753c-0.093,-0.458 -0.096,-1.338 -0.149,-1.979c0.003,-0.614 0.003,-1.222 0.003,-1.823c0.063,-1.245 0.216,-2.477 0.465,-3.669c0.528,-2.377 1.375,-4.598 2.45,-6.56c1.106,-1.943 2.401,-3.623 3.716,-5.014c1.311,-1.404 2.689,-2.46 3.855,-3.313c1.202,-0.787 2.178,-1.438 2.902,-1.783c0.707,-0.379 1.089,-0.581 1.089,-0.581c0,0 -0.425,0.106 -1.212,0.308c-0.801,0.186 -1.956,0.545 -3.387,1.143c-1.391,0.64 -3.134,1.457 -4.841,2.772c-1.736,1.272 -3.566,2.918 -5.146,4.994c-1.584,2.065 -2.985,4.525 -3.892,7.271c-0.458,1.378 -0.806,2.809 -1.059,4.3c-0.086,0.76 -0.192,1.59 -0.219,2.327c0.007,0.75 -0.056,1.285 0.01,2.231c0.169,3.052 0.744,6.173 1.899,9.128c1.119,2.964 2.637,5.82 4.433,8.483c1.843,2.636 3.938,5.096 6.169,7.367c1.076,1.136 2.344,2.281 3.469,3.224c1.206,1.033 2.408,1.986 3.626,2.912c2.407,1.863 4.904,3.463 7.295,4.927c2.38,1.478 4.721,2.746 6.899,3.872c4.353,2.264 8.118,3.918 10.768,5.046c2.656,1.119 4.21,1.71 4.21,1.71c0,0 -1.262,-0.982 -3.513,-2.633" style="fill:#65a243;fill-rule:nonzero;"/><path d="M877.34,1706.63c-4.041,-1.238 -9.848,-2.931 -16.92,-4.678c-3.533,-0.88 -7.368,-1.819 -11.468,-2.686c-4.094,-0.883 -8.41,-1.833 -12.929,-2.629c-4.509,-0.821 -9.171,-1.704 -13.962,-2.388c-4.784,-0.717 -9.665,-1.374 -14.556,-1.995c-4.91,-0.535 -9.841,-0.993 -14.712,-1.375c-4.867,-0.405 -9.701,-0.558 -14.386,-0.68c-4.678,-0.137 -9.23,-0.073 -13.557,0.132c-4.319,0.137 -8.423,0.505 -12.195,1.003c-3.775,0.448 -7.228,1.076 -10.246,1.823c-1.514,0.325 -2.922,0.691 -4.2,1.129c-1.279,0.408 -2.457,0.74 -3.48,1.195c-1.023,0.422 -1.939,0.797 -2.732,1.126c-0.751,0.401 -1.392,0.747 -1.913,1.026c-1.019,0.557 -1.564,0.856 -1.564,0.856c0,0 0.601,-0.186 1.723,-0.534c0.555,-0.173 1.239,-0.379 2.042,-0.628c0.824,-0.176 1.77,-0.378 2.826,-0.607c1.039,-0.273 2.234,-0.406 3.513,-0.595c0.641,-0.093 1.301,-0.192 1.992,-0.295c0.694,-0.067 1.414,-0.136 2.158,-0.206c1.484,-0.15 3.058,-0.299 4.731,-0.339c1.667,-0.076 3.414,-0.199 5.246,-0.192c1.83,-0.04 3.729,-0.06 5.704,0.003c1.969,0.02 4.001,0.036 6.093,0.136c4.18,0.123 8.58,0.448 13.135,0.74c4.555,0.286 9.23,0.821 14.008,1.216c4.768,0.448 9.602,0.989 14.426,1.577c4.841,0.534 9.676,1.105 14.423,1.74c4.755,0.614 9.437,1.221 13.965,1.809c9.071,1.212 17.538,2.341 24.796,3.31c14.529,1.966 24.344,3.062 24.344,3.062c0,0 -2.268,-0.807 -6.305,-2.056" style="fill:#8ac63f;fill-rule:nonzero;"/><path d="M869.911,1699.43c-2.328,-0.986 -5.173,-2.145 -8.467,-3.43c-3.307,-1.248 -7.012,-2.729 -11.146,-4.14c-4.107,-1.474 -8.573,-3.038 -13.367,-4.545c-4.765,-1.574 -9.841,-3.121 -15.121,-4.652c-5.292,-1.497 -10.757,-3.071 -16.375,-4.496c-5.651,-1.348 -11.345,-2.845 -17.126,-4.107c-5.797,-1.215 -11.571,-2.493 -17.331,-3.526c-5.731,-1.125 -11.425,-2.048 -16.96,-2.852c-5.515,-0.87 -10.877,-1.594 -16.007,-2.102c-5.113,-0.554 -9.931,-1.142 -14.446,-1.364c-4.492,-0.322 -8.623,-0.545 -12.275,-0.737c-3.666,-0.146 -6.883,-0.117 -9.519,-0.153c-5.276,-0.027 -8.287,0.023 -8.287,0.023c0,0 2.941,0.505 8.074,1.278c2.567,0.376 5.685,0.827 9.26,1.349c3.55,0.617 7.554,1.301 11.93,1.978c4.383,0.631 9.061,1.637 14.051,2.464c4.997,0.827 10.2,1.926 15.612,2.942c2.699,0.534 5.465,1.006 8.224,1.613c2.759,0.611 5.562,1.196 8.394,1.753c5.677,1.089 11.368,2.444 17.086,3.702c5.747,1.176 11.415,2.59 17.042,3.852c5.602,1.331 11.113,2.646 16.452,3.914c5.326,1.312 10.472,2.58 15.356,3.782c4.878,1.219 9.496,2.378 13.753,3.443c17.069,4.33 28.444,7.218 28.444,7.218c0,0 -2.59,-1.245 -7.251,-3.207" style="fill:#65a243;fill-rule:nonzero;"/><path d="M860.992,1712.82c-2.746,-0.949 -6.691,-2.267 -11.575,-3.562c-2.434,-0.648 -5.103,-1.315 -7.985,-1.863c-2.879,-0.564 -5.95,-1.109 -9.197,-1.421c-1.627,-0.173 -3.267,-0.315 -4.98,-0.408c-1.587,-0.1 -3.443,-0.156 -5.163,-0.103c-3.5,0.066 -7.076,0.342 -10.652,0.89c-3.562,0.6 -7.112,1.5 -10.505,2.725c-3.41,1.199 -6.587,2.876 -9.433,4.765c-0.889,0.578 -1.328,0.966 -2.008,1.454c-0.644,0.502 -1.318,1.109 -1.943,1.664c-1.175,1.135 -2.231,2.294 -3.164,3.486c-1.872,2.377 -3.161,4.877 -3.977,7.241c-0.827,2.364 -1.109,4.609 -1.113,6.548c-0.063,1.949 0.346,3.592 0.681,4.9c0.402,1.302 0.833,2.275 1.192,2.906c0.335,0.634 0.514,0.972 0.514,0.972c0,0 -0.066,-0.375 -0.192,-1.072c-0.163,-0.687 -0.216,-1.733 -0.299,-3.018c0.007,-1.302 0.053,-2.869 0.455,-4.625c0.382,-1.747 1.046,-3.676 2.065,-5.651c1.053,-1.966 2.494,-3.961 4.28,-5.854c0.903,-0.939 1.912,-1.839 2.988,-2.696c0.538,-0.395 1.083,-0.793 1.634,-1.195c0.607,-0.385 1.401,-0.96 1.872,-1.202c2.514,-1.507 5.369,-2.679 8.344,-3.722c2.982,-1.019 6.152,-1.76 9.373,-2.251c3.214,-0.555 6.488,-0.867 9.718,-0.989c1.644,-0.057 3.121,-0.093 4.821,-0.097c1.567,0 3.165,0.043 4.708,0.116c6.206,0.283 12.013,0.957 17.023,1.558c5.024,0.644 9.214,1.178 12.146,1.554c2.955,0.351 4.661,0.514 4.661,0.514c0,0 -1.547,-0.604 -4.289,-1.564" style="fill:#65a243;fill-rule:nonzero;"/><path d="M704.39,1715.03c2.477,4.24 18.567,-1.431 26.12,-6.316c7.551,-4.884 11.664,-12.278 9.188,-16.521c-2.474,-4.243 -10.602,-3.719 -18.156,1.165c-7.546,4.881 -19.629,17.432 -17.152,21.672" style="fill:#ec74a3;fill-rule:nonzero;"/><path d="M698.159,1694.03c-0.225,-4.874 16.485,-8.456 25.543,-8.261c9.058,0.2 16.585,4.31 16.814,9.187c0.229,4.875 -6.93,8.666 -15.987,8.47c-9.058,-0.199 -26.14,-4.518 -26.37,-9.396" style="fill:#f49dc3;fill-rule:nonzero;"/><path d="M734.13,1614.4c-2.649,4.429 10.98,12.693 19.44,15.193c8.457,2.504 17.465,0.94 20.111,-3.489c2.653,-4.433 -2.055,-10.054 -10.515,-12.558c-8.457,-2.503 -26.386,-3.579 -29.036,0.854" style="fill:#ec74a3;fill-rule:nonzero;"/><path d="M750.39,1596.86c4.406,-3.181 16.419,6.826 20.944,13.569c4.525,6.744 4.622,14.792 0.216,17.973c-4.406,3.177 -11.648,0.289 -16.173,-6.458c-4.526,-6.743 -9.396,-21.907 -4.987,-25.084" style="fill:#f49dc3;fill-rule:nonzero;"/><path d="M676.455,1749.86c2.135,1.723 4.751,3.802 7.912,6.006c3.144,2.222 6.74,4.692 10.808,7.192c2.032,1.252 4.147,2.563 6.338,3.918c2.241,1.282 4.559,2.606 6.942,3.971c4.748,2.766 9.908,5.442 15.24,8.237c5.379,2.713 10.934,5.529 16.665,8.258c5.77,2.649 11.637,5.342 17.504,8.035c5.956,2.53 11.916,5.063 17.783,7.557c5.864,2.49 11.79,4.674 17.438,6.932c5.638,2.275 11.202,4.273 16.471,6.169c5.253,1.926 10.26,3.676 14.885,5.279c4.619,1.617 8.925,2.962 12.72,4.187c3.812,1.199 7.135,2.241 9.868,3.101c5.491,1.68 8.659,2.58 8.659,2.58c0,0 -2.899,-1.414 -8.012,-3.788c-5.116,-2.374 -12.467,-5.675 -21.332,-9.549c-4.406,-1.979 -9.181,-4.121 -14.274,-6.302c-5.077,-2.208 -10.426,-4.539 -15.964,-6.949c-11.056,-4.828 -22.85,-9.978 -34.64,-15.127c-5.87,-2.607 -11.74,-5.213 -17.521,-7.78c-5.737,-2.619 -11.388,-5.199 -16.856,-7.693c-5.369,-2.632 -10.741,-4.933 -15.632,-7.394c-4.941,-2.39 -9.602,-4.665 -13.852,-6.839c-2.162,-1.05 -4.147,-2.158 -6.076,-3.161c-1.919,-1.016 -3.782,-1.939 -5.445,-2.902c-3.384,-1.869 -6.299,-3.543 -8.673,-4.97c-2.327,-1.468 -4.18,-2.613 -5.372,-3.47c-1.195,-0.85 -1.793,-1.358 -1.793,-1.358c0,0 1.976,2.364 6.209,5.86" style="fill:#8ac63f;fill-rule:nonzero;"/><path d="M849.09,1813.49c-5.617,-3.991 -12.171,-8.649 -19.194,-13.636c-3.493,-2.504 -7.098,-5.09 -10.764,-7.716c-3.672,-2.61 -7.354,-5.316 -11,-8.052c-3.682,-2.693 -7.331,-5.419 -10.857,-8.168c-3.48,-2.782 -7.019,-5.415 -10.256,-8.131c-3.241,-2.713 -6.408,-5.302 -9.257,-7.885c-1.461,-1.269 -2.806,-2.557 -4.11,-3.799c-1.348,-1.215 -2.574,-2.437 -3.736,-3.629c-1.205,-1.165 -2.238,-2.357 -3.26,-3.473c-1.059,-1.092 -1.956,-2.191 -2.793,-3.234c-0.425,-0.521 -0.833,-1.026 -1.228,-1.51c-0.359,-0.505 -0.704,-0.996 -1.036,-1.465c-0.671,-0.939 -1.331,-1.786 -1.766,-2.626c-0.488,-0.823 -0.927,-1.56 -1.305,-2.198c-0.302,-0.674 -0.565,-1.248 -0.774,-1.713c-0.421,-0.943 -0.647,-1.448 -0.647,-1.448c0,0 0.089,0.541 0.255,1.557c0.09,0.515 0.2,1.146 0.326,1.89c0.229,0.723 0.488,1.55 0.78,2.476c0.262,0.95 0.734,1.92 1.209,3.002c0.441,1.102 1.036,2.238 1.733,3.417c1.305,2.41 3.001,5.023 5.07,7.719c2.025,2.733 4.379,5.591 7.082,8.433c2.646,2.892 5.571,5.834 8.752,8.729c3.177,2.902 6.478,5.884 10.024,8.723c3.529,2.855 7.171,5.694 10.864,8.476c3.758,2.713 7.54,5.392 11.312,7.972c3.751,2.606 7.593,4.997 11.282,7.334c3.672,2.361 7.347,4.489 10.817,6.521c3.46,2.046 6.813,3.875 9.914,5.552c6.199,3.36 11.511,5.96 15.27,7.723c3.762,1.756 5.97,2.672 5.97,2.672c0,0 -7.408,-5.538 -18.677,-13.513" style="fill:#8ac63f;fill-rule:nonzero;"/><path d="M837.851,1815.29c-3.021,-1.74 -6.295,-3.623 -9.754,-5.612c-3.447,-2.008 -7.079,-4.123 -10.838,-6.311c-3.732,-2.225 -7.583,-4.519 -11.501,-6.857c-3.868,-2.394 -7.885,-4.714 -11.744,-7.238c-3.917,-2.45 -7.892,-4.824 -11.647,-7.367c-1.889,-1.259 -3.782,-2.481 -5.671,-3.663c-1.889,-1.185 -3.669,-2.463 -5.465,-3.662c-3.566,-2.44 -7.092,-4.705 -10.286,-7.032c-3.194,-2.327 -6.378,-4.346 -9.107,-6.455c-2.76,-2.075 -5.343,-3.924 -7.637,-5.564c-2.228,-1.717 -4.17,-3.211 -5.77,-4.443c-3.228,-2.447 -5.124,-3.805 -5.124,-3.805c0,0 1.481,1.78 4.167,4.821c1.358,1.504 2.959,3.387 4.928,5.416c2.002,1.985 4.269,4.226 6.796,6.61c2.467,2.464 5.375,4.854 8.41,7.441c3.005,2.623 6.302,5.236 9.798,7.836c3.453,2.659 7.079,5.329 10.891,7.875c3.748,2.633 7.709,5.103 11.624,7.633c3.951,2.487 8.048,4.758 11.999,7.109c4.001,2.281 8.045,4.373 11.94,6.415c3.914,2.008 7.739,3.891 11.431,5.574c3.646,1.747 7.178,3.264 10.452,4.635c3.241,1.428 6.319,2.56 9.008,3.623c2.709,1.029 5.093,1.882 7.075,2.556c3.955,1.355 6.279,2.006 6.279,2.006c0,0 -8.101,-4.619 -20.254,-11.541" style="fill:#65a243;fill-rule:nonzero;"/><path d="M846.087,1832.41c-2.327,-0.989 -5.173,-2.148 -8.467,-3.429c-3.307,-1.252 -7.012,-2.73 -11.142,-4.144c-4.107,-1.474 -8.576,-3.035 -13.371,-4.542c-4.764,-1.574 -9.838,-3.121 -15.117,-4.655c-5.296,-1.494 -10.761,-3.068 -16.382,-4.496c-5.648,-1.348 -11.342,-2.845 -17.122,-4.107c-5.794,-1.215 -11.571,-2.493 -17.332,-3.523c-5.727,-1.128 -11.425,-2.048 -16.96,-2.855c-5.518,-0.87 -10.877,-1.594 -16.003,-2.102c-5.12,-0.554 -9.934,-1.139 -14.45,-1.364c-4.495,-0.322 -8.622,-0.545 -12.278,-0.737c-3.662,-0.143 -6.88,-0.117 -9.512,-0.15c-5.28,-0.026 -8.291,0.02 -8.291,0.02c0,0 2.938,0.505 8.078,1.278c2.567,0.376 5.681,0.83 9.257,1.348c3.552,0.615 7.553,1.305 11.933,1.976c4.382,0.634 9.057,1.64 14.051,2.47c4.99,0.824 10.196,1.923 15.612,2.942c2.696,0.534 5.458,1.006 8.221,1.61c2.759,0.611 5.561,1.199 8.393,1.757c5.678,1.089 11.369,2.44 17.086,3.702c5.747,1.175 11.418,2.586 17.039,3.848c5.605,1.335 11.12,2.646 16.455,3.918c5.326,1.308 10.473,2.576 15.357,3.778c4.88,1.222 9.492,2.377 13.752,3.443c17.069,4.333 28.448,7.222 28.448,7.222c0,0 -2.593,-1.245 -7.255,-3.208" style="fill:#65a243;fill-rule:nonzero;"/><path d="M710.308,1747.37c-2.649,4.429 10.98,12.693 19.44,15.197c8.457,2.5 17.461,0.939 20.111,-3.493c2.649,-4.433 -2.055,-10.054 -10.515,-12.557c-8.46,-2.504 -26.386,-3.58 -29.036,0.853" style="fill:#ec74a3;fill-rule:nonzero;"/><path d="M726.566,1729.83c4.409,-3.181 16.418,6.827 20.947,13.57c4.525,6.747 4.622,14.792 0.212,17.972c-4.405,3.181 -11.647,0.293 -16.169,-6.454c-4.529,-6.747 -9.396,-21.907 -4.99,-25.088" style="fill:#f49dc3;fill-rule:nonzero;"/></g></g><path d="M633.008,1685.33c-45.454,10.701 -74.708,51.619 -65.345,91.396c9.363,39.773 53.797,63.34 99.251,52.642c45.454,-10.701 74.719,-51.616 65.356,-91.393c-9.363,-39.773 -53.808,-63.346 -99.262,-52.645" style="fill:#fcde11;fill-rule:nonzero;"/><path d="M663.856,1720.92c0,0 0.747,-22.474 -4.194,-37.747c0,0 0.123,-0.1 0.366,-0.259c28.753,1.547 54.083,16.375 66.295,39.348c-4.934,-2.52 -21.031,-7.843 -62.467,-1.342" style="fill:#be202e;fill-rule:nonzero;"/><path d="M694.345,1818.24c12.657,-44.302 -27.817,-97.356 -27.817,-97.356c28.514,-12.73 53.267,-1.886 59.887,1.544c2.56,4.848 4.556,10.04 5.854,15.555c7.301,31.011 -8.888,62.723 -37.924,80.257" style="fill:#3bb54a;fill-rule:nonzero;"/><path d="M658.638,1721.56c0,0 -60.757,56.786 -61.471,96.503c-14.636,-9.688 -25.413,-23.962 -29.504,-41.337c-4.306,-18.284 -0.435,-36.808 9.41,-52.533c40.47,-29.656 81.565,-2.633 81.565,-2.633" style="fill:#ef4137;fill-rule:nonzero;"/><path d="M633.008,1685.33c7.029,-1.654 14.028,-2.48 20.875,-2.56c3.645,0.113 5.78,0.398 5.78,0.398c5.05,12.899 4.217,40.68 4.217,40.68c-30.427,-15.692 -79.742,0.498 -88.78,3.692c11.199,-20.048 31.888,-36.084 57.908,-42.21" style="fill:#662f91;fill-rule:nonzero;"/><path d="M659.602,1702.85c-12.809,3.015 -21.292,13.55 -18.945,23.531c2.351,9.98 14.646,15.631 27.455,12.617c12.806,-3.018 21.289,-13.557 18.942,-23.541c-2.351,-9.98 -14.642,-15.621 -27.452,-12.607" style="fill:#f3f4f5;fill-rule:nonzero;"/><path d="M733.384,1743.98c4.041,29.048 -11.876,57.851 -39.039,74.257c3.749,-13.129 2.832,-27.034 -0.315,-40.095c-10.1,7.779 -22.252,13.695 -35.865,16.9c-18.972,4.465 -37.765,2.958 -53.898,-3.201c-4.226,9.034 -6.956,17.992 -7.102,26.223c-13.799,-9.134 -24.178,-22.358 -28.74,-38.412c10.801,38 54.163,60.153 98.488,49.717c43.173,-10.163 71.734,-47.579 66.471,-85.389" style="fill:#d8bd27;fill-rule:nonzero;"/><path d="M733.336,1743.62c0.02,0.123 0.036,0.236 0.05,0.358c-0.01,-0.116 -0.033,-0.245 -0.05,-0.358" style="fill:#d8bd27;fill-rule:nonzero;"/><path d="M733.323,1743.53c0.007,0.03 0.007,0.063 0.014,0.093c-0.007,-0.03 -0.007,-0.063 -0.014,-0.093" style="fill:#d8bd27;fill-rule:nonzero;"/><path d="M733.266,1743.17c0.017,0.113 0.037,0.236 0.057,0.349c-0.02,-0.113 -0.037,-0.226 -0.057,-0.349" style="fill:#d8bd27;fill-rule:nonzero;"/><path d="M733.254,1743.08c0.006,0.023 0.013,0.053 0.01,0.076c0.003,-0.023 -0.004,-0.053 -0.01,-0.076" style="fill:#d8bd27;fill-rule:nonzero;"/><path d="M733.216,1742.8c0.01,0.083 0.023,0.176 0.033,0.259c-0.01,-0.083 -0.023,-0.176 -0.033,-0.259" style="fill:#d8bd27;fill-rule:nonzero;"/><path d="M733.196,1742.72c0.007,0.023 0.013,0.053 0.017,0.076c-0.007,-0.03 -0.01,-0.053 -0.017,-0.076" style="fill:#d8bd27;fill-rule:nonzero;"/><path d="M733.18,1742.61c0.007,0.03 0.014,0.053 0.02,0.083c-0.006,-0.03 -0.013,-0.053 -0.02,-0.083" style="fill:#d8bd27;fill-rule:nonzero;"/><path d="M733.159,1742.44c0.003,0.054 0.016,0.113 0.023,0.17c-0.007,-0.057 -0.02,-0.116 -0.023,-0.17" style="fill:#d8bd27;fill-rule:nonzero;"/><path d="M733.139,1742.36c0.007,0.023 0.01,0.047 0.017,0.066c-0.004,-0.013 -0.01,-0.043 -0.017,-0.066" style="fill:#d8bd27;fill-rule:nonzero;"/><path d="M733.125,1742.26c0.006,0.023 0.01,0.046 0.013,0.06c-0.003,-0.014 -0.007,-0.037 -0.013,-0.06" style="fill:#d8bd27;fill-rule:nonzero;"/><path d="M733.082,1742c0.01,0.077 0.027,0.153 0.037,0.23c-0.01,-0.077 -0.027,-0.153 -0.037,-0.23" style="fill:#d8bd27;fill-rule:nonzero;"/><path d="M733.066,1741.9c0.007,0.023 0.003,0.053 0.01,0.076c-0.007,-0.03 -0.003,-0.047 -0.01,-0.076" style="fill:#d8bd27;fill-rule:nonzero;"/><path d="M733.043,1741.8c0.007,0.024 0.013,0.053 0.017,0.077c-0.004,-0.024 -0.01,-0.053 -0.017,-0.077" style="fill:#d8bd27;fill-rule:nonzero;"/><path d="M733.013,1741.63c0.013,0.053 0.023,0.096 0.026,0.153c-0.003,-0.047 -0.013,-0.1 -0.026,-0.153" style="fill:#d8bd27;fill-rule:nonzero;"/><path d="M733,1741.54c0.007,0.023 0.01,0.043 0.017,0.066c-0.007,-0.023 -0.01,-0.036 -0.017,-0.066" style="fill:#d8bd27;fill-rule:nonzero;"/><path d="M732.986,1741.44c0.007,0.023 0.003,0.046 0.007,0.069c-0.004,-0.023 0,-0.046 -0.007,-0.069" style="fill:#d8bd27;fill-rule:nonzero;"/><path d="M732.963,1741.35c0.007,0.024 0.01,0.037 0.013,0.06c-0.003,-0.016 -0.01,-0.043 -0.013,-0.06" style="fill:#d8bd27;fill-rule:nonzero;"/><path d="M732.937,1741.19c0.009,0.046 0.019,0.083 0.019,0.123c0,-0.04 -0.01,-0.077 -0.019,-0.123" style="fill:#d8bd27;fill-rule:nonzero;"/><path d="M732.922,1741.09c0.003,0.017 0.01,0.037 0.003,0.054c0.007,-0.017 0,-0.037 -0.003,-0.054" style="fill:#d8bd27;fill-rule:nonzero;"/><path d="M732.897,1740.99c0.007,0.023 0.01,0.036 0.014,0.053c-0.004,-0.017 -0.007,-0.03 -0.014,-0.053" style="fill:#d8bd27;fill-rule:nonzero;"/><path d="M568.392,1779.56c0.007,0.03 0.013,0.06 0.03,0.087c-0.017,-0.027 -0.023,-0.057 -0.03,-0.087" style="fill:#d8bd27;fill-rule:nonzero;"/><path d="M732.883,1740.89c0.003,0.006 0.007,0.023 0.007,0.029c0,-0.006 -0.004,-0.023 -0.007,-0.029" style="fill:#d8bd27;fill-rule:nonzero;"/><path d="M568.369,1779.46c0.007,0.023 0.014,0.053 0.02,0.083c-0.006,-0.03 -0.013,-0.06 -0.02,-0.083" style="fill:#d8bd27;fill-rule:nonzero;"/><path d="M568.334,1779.35c0.007,0.03 0.014,0.06 0.02,0.089c-0.006,-0.029 -0.013,-0.059 -0.02,-0.089" style="fill:#d8bd27;fill-rule:nonzero;"/><path d="M732.832,1740.63c0.003,0.017 0.01,0.037 0.013,0.053c-0.003,-0.016 -0.01,-0.036 -0.013,-0.053" style="fill:#d8bd27;fill-rule:nonzero;"/><path d="M568.226,1778.96c0.039,0.126 0.069,0.252 0.106,0.378c-0.037,-0.126 -0.067,-0.252 -0.106,-0.378" style="fill:#d8bd27;fill-rule:nonzero;"/><path d="M732.817,1740.54c0.004,0.017 0.007,0.023 0,0.04c-0.003,-0.017 0.004,-0.033 0,-0.04" style="fill:#d8bd27;fill-rule:nonzero;"/><path d="M732.786,1740.4c0.003,0.007 0.006,0.023 0.006,0.03c0,-0.007 -0.003,-0.023 -0.006,-0.03" style="fill:#d8bd27;fill-rule:nonzero;"/><path d="M732.768,1740.29c0.003,0.007 0.006,0.03 0.01,0.036c-0.004,-0.013 -0.007,-0.023 -0.01,-0.036" style="fill:#d8bd27;fill-rule:nonzero;"/><path d="M732.743,1740.18c0.004,0.007 0.007,0.023 0.01,0.037c-0.003,-0.014 -0.006,-0.03 -0.01,-0.037" style="fill:#d8bd27;fill-rule:nonzero;"/><path d="M568.205,1778.87c0.006,0.024 0.01,0.043 0.016,0.077c-0.006,-0.034 -0.01,-0.053 -0.016,-0.077" style="fill:#d8bd27;fill-rule:nonzero;"/><path d="M568.18,1778.77c0.006,0.024 0.01,0.044 0.016,0.067c-0.006,-0.023 -0.01,-0.043 -0.016,-0.067" style="fill:#d8bd27;fill-rule:nonzero;"/><path d="M732.727,1740.07c0.003,0.007 -0.007,0.017 -0.003,0.024c-0.004,-0.007 0.006,-0.017 0.003,-0.024" style="fill:#d8bd27;fill-rule:nonzero;"/><path d="M568.147,1778.67c0.006,0.023 0.01,0.043 0.016,0.066c-0.006,-0.023 -0.01,-0.043 -0.016,-0.066" style="fill:#d8bd27;fill-rule:nonzero;"/><path d="M732.693,1739.93c0.004,0.017 0.007,0.024 0.01,0.037c-0.003,-0.013 -0.006,-0.02 -0.01,-0.037" style="fill:#d8bd27;fill-rule:nonzero;"/><path d="M568.12,1778.56c0.007,0.023 0.01,0.043 0.017,0.066c-0.007,-0.023 -0.01,-0.043 -0.017,-0.066" style="fill:#d8bd27;fill-rule:nonzero;"/><path d="M732.667,1739.82c0.004,0.013 0.007,0.03 0.01,0.043c-0.003,-0.013 -0.006,-0.03 -0.01,-0.043" style="fill:#d8bd27;fill-rule:nonzero;"/><path d="M568.087,1778.45c0.013,0.02 0.02,0.043 0.023,0.066c-0.003,-0.023 -0.01,-0.046 -0.023,-0.066" style="fill:#d8bd27;fill-rule:nonzero;"/><path d="M732.651,1739.71c0.003,0.017 0.007,0.03 0.01,0.037c-0.003,-0.007 -0.007,-0.02 -0.01,-0.037" style="fill:#d8bd27;fill-rule:nonzero;"/><path d="M568.045,1778.27c0.01,0.046 0.023,0.096 0.033,0.143c-0.01,-0.047 -0.023,-0.097 -0.033,-0.143" style="fill:#d8bd27;fill-rule:nonzero;"/><path d="M732.623,1739.59c0.003,0.007 0.003,0.017 0.006,0.024c-0.003,-0.007 -0.003,-0.017 -0.006,-0.024" style="fill:#d8bd27;fill-rule:nonzero;"/><path d="M732.603,1739.47c-0.006,0.01 -0.003,0.023 0,0.04c-0.003,-0.017 -0.006,-0.03 0,-0.04" style="fill:#d8bd27;fill-rule:nonzero;"/><path d="M568.024,1778.18c0.006,0.024 0.01,0.044 0.013,0.06c-0.003,-0.016 -0.007,-0.036 -0.013,-0.06" style="fill:#d8bd27;fill-rule:nonzero;"/><path d="M732.577,1739.36c0.003,0.013 0.007,0.023 0.01,0.036c-0.003,-0.007 -0.007,-0.023 -0.01,-0.036" style="fill:#d8bd27;fill-rule:nonzero;"/><path d="M567.99,1778.08c0.004,0.014 0.01,0.037 0.024,0.057c-0.014,-0.02 -0.02,-0.043 -0.024,-0.057" style="fill:#d8bd27;fill-rule:nonzero;"/><path d="M567.964,1777.97c0.007,0.023 0.01,0.037 0.013,0.06c-0.003,-0.013 -0.006,-0.037 -0.013,-0.06" style="fill:#d8bd27;fill-rule:nonzero;"/><path d="M732.552,1739.26c0.003,0.007 0.003,0.013 0.007,0.03c-0.004,-0.017 -0.004,-0.023 -0.007,-0.03" style="fill:#d8bd27;fill-rule:nonzero;"/><path d="M567.939,1777.86c0.004,0.016 0.01,0.036 0.014,0.053c-0.004,-0.017 -0.01,-0.037 -0.014,-0.053" style="fill:#d8bd27;fill-rule:nonzero;"/><path d="M732.52,1739.12c0.004,0.007 0.007,0.023 0.01,0.037c-0.003,-0.014 -0.006,-0.02 -0.01,-0.037" style="fill:#d8bd27;fill-rule:nonzero;"/><path d="M567.915,1777.76c0.003,0.013 0.006,0.03 0.013,0.053c-0.007,-0.023 -0.01,-0.04 -0.013,-0.053" style="fill:#d8bd27;fill-rule:nonzero;"/><path d="M732.503,1739.01c0.003,0.013 0.006,0.023 0,0.04c0.006,-0.017 0.003,-0.027 0,-0.04" style="fill:#d8bd27;fill-rule:nonzero;"/><path d="M567.88,1777.65c0.013,0.014 0.016,0.027 0.02,0.044c-0.004,-0.017 -0.007,-0.03 -0.02,-0.044" style="fill:#d8bd27;fill-rule:nonzero;"/><path d="M732.478,1738.9c0.003,0.017 0.007,0.023 0.01,0.037c-0.003,-0.014 -0.007,-0.03 -0.01,-0.037" style="fill:#d8bd27;fill-rule:nonzero;"/><path d="M567.852,1777.53c0.003,0.007 0.006,0.03 0.01,0.036c-0.004,-0.013 -0.007,-0.029 -0.01,-0.036" style="fill:#d8bd27;fill-rule:nonzero;"/><path d="M732.422,1738.66c0.003,0.006 0.003,0.016 0.006,0.03c-0.003,-0.014 -0.003,-0.024 -0.006,-0.03" style="fill:#d8bd27;fill-rule:nonzero;"/><path d="M567.818,1777.39c0.003,0.013 0.007,0.03 0.01,0.043c-0.003,-0.013 -0.007,-0.03 -0.01,-0.043" style="fill:#d8bd27;fill-rule:nonzero;"/><path d="M732.395,1738.55l0.007,0.03l-0.007,-0.03Z" style="fill:#d8bd27;fill-rule:nonzero;"/><path d="M567.792,1777.27c0.006,0.023 0.006,0.03 0.013,0.053c-0.003,-0.017 -0.01,-0.037 -0.013,-0.053" style="fill:#d8bd27;fill-rule:nonzero;"/><path d="M732.369,1738.44c0.003,0.007 0.006,0.023 0.006,0.03c0,-0.007 -0.003,-0.013 -0.006,-0.03" style="fill:#d8bd27;fill-rule:nonzero;"/><path d="M567.767,1777.17c0.003,0.016 0.007,0.03 0.01,0.043c-0.003,-0.013 -0.007,-0.027 -0.01,-0.043" style="fill:#d8bd27;fill-rule:nonzero;"/><path d="M567.741,1777.06c0.003,0.017 0.006,0.03 0.01,0.047c-0.004,-0.017 -0.007,-0.03 -0.01,-0.047" style="fill:#d8bd27;fill-rule:nonzero;"/><path d="M732.339,1738.31c0.003,0.007 0.003,0.013 0.007,0.023c-0.004,-0.01 -0.004,-0.016 -0.007,-0.023" style="fill:#d8bd27;fill-rule:nonzero;"/><path d="M567.714,1776.94c0.004,0.017 0.007,0.03 0.01,0.047c-0.003,-0.017 -0.006,-0.03 -0.01,-0.047" style="fill:#d8bd27;fill-rule:nonzero;"/><path d="M732.311,1738.19c0.003,0.017 0.006,0.03 0.01,0.037c-0.004,-0.007 -0.007,-0.02 -0.01,-0.037" style="fill:#d8bd27;fill-rule:nonzero;"/><path d="M567.69,1776.84c0.003,0.007 0.006,0.024 0.006,0.03c0,-0.006 -0.003,-0.023 -0.006,-0.03" style="fill:#d8bd27;fill-rule:nonzero;"/><path d="M732.294,1738.08c0.004,0.006 0.007,0.023 0,0.033c0.007,-0.01 0.004,-0.027 0,-0.033" style="fill:#d8bd27;fill-rule:nonzero;"/><path d="M567.628,1776.58l0.007,0.023l-0.007,-0.023Z" style="fill:#c5c6c7;fill-rule:nonzero;"/><path d="M567.628,1776.58l0.007,0.023l-0.007,-0.023Z" style="fill:#d8bd27;fill-rule:nonzero;"/><path d="M732.219,1737.8c0.003,0.017 0.007,0.023 0.007,0.03l0.003,0.007c-0.003,-0.007 -0.007,-0.02 -0.01,-0.037" style="fill:#c5c6c7;fill-rule:nonzero;"/><path d="M567.603,1776.47l-0.003,-0.007l0.003,0.007Zm164.624,-38.641c-0.003,-0.017 -0.01,-0.04 -0.013,-0.053l0.013,0.053Z" style="fill:#d8bd27;fill-rule:nonzero;"/><path d="M732.187,1737.67c0.004,0.016 0.007,0.023 0.01,0.036c-0.003,-0.013 -0.006,-0.02 -0.01,-0.036" style="fill:#c5c6c7;fill-rule:nonzero;"/><path d="M732.168,1737.58c-1.302,-5.372 -3.257,-10.429 -5.751,-15.157c-0.372,-0.189 -0.79,-0.398 -1.258,-0.627c0,-0.033 0.003,-0.057 0.007,-0.09c0.441,0.189 0.826,0.375 1.155,0.548c-0.359,-0.681 -0.73,-1.345 -1.112,-2.002c0.006,-0.02 0.003,-0.027 0.003,-0.033c3.088,5.339 5.458,11.152 6.956,17.361m0.03,0.126c-0.01,-0.036 -0.017,-0.066 -0.023,-0.096l0.023,0.096Z" style="fill:#d8bd27;fill-rule:nonzero;"/><path d="M725.21,1720.25c-0.014,0.485 -0.024,0.97 -0.047,1.455c0.442,0.189 0.83,0.375 1.159,0.551c-0.359,-0.684 -0.73,-1.345 -1.112,-2.006" style="fill:#a52432;fill-rule:nonzero;"/><path d="M733.384,1743.98c-0.01,-0.123 -0.029,-0.239 -0.049,-0.359c-0.007,-0.03 -0.004,-0.063 -0.01,-0.093l-0.004,-0.007c-0.016,-0.116 -0.036,-0.235 -0.056,-0.351l-0.003,-0.014c0.003,-0.026 -0.004,-0.056 -0.007,-0.076l-0.003,-0.017c-0.014,-0.083 -0.027,-0.176 -0.037,-0.259l-0.02,-0.083c0,-0.006 -0.003,-0.016 0.003,-0.023c-0.006,-0.03 -0.009,-0.053 -0.016,-0.083c-0.007,-0.056 -0.02,-0.116 -0.023,-0.169l-0.02,-0.083c0,-0.007 -0.004,-0.024 0,-0.04l-0.02,-0.09c-0.01,-0.076 -0.027,-0.149 -0.037,-0.229c-0.003,-0.006 -0.006,-0.02 -0.006,-0.03c-0.007,-0.02 -0.004,-0.053 -0.01,-0.076l-0.027,-0.113c-0.003,-0.053 -0.013,-0.096 -0.026,-0.149c0.006,-0.01 0.006,-0.017 0.003,-0.027l-0.023,-0.096c-0.004,-0.023 0,-0.047 -0.007,-0.07l-0.03,-0.126c0,-0.04 -0.01,-0.077 -0.02,-0.123c-0.003,-0.013 -0.006,-0.03 -0.01,-0.043c0.004,-0.017 0,-0.04 -0.003,-0.057l-0.027,-0.103c-0.003,-0.023 0,-0.046 -0.006,-0.069l-0.03,-0.126c-0.003,-0.017 0,-0.04 -0.003,-0.057l-0.04,-0.163c0.006,-0.016 0.003,-0.026 0,-0.039l-0.03,-0.137c-0.007,-0.023 -0.013,-0.043 -0.01,-0.076l-0.053,-0.222c0,-0.01 0.006,-0.02 0.003,-0.027l-0.06,-0.252c0.004,-0.027 -0.003,-0.05 -0.006,-0.07l-0.057,-0.239c-0.003,-0.017 -0.006,-0.03 0,-0.04l-0.099,-0.428c0.003,-0.017 0.003,-0.023 -0.004,-0.04l-0.209,-0.89c0.007,-0.01 0.003,-0.023 0.003,-0.03c-0.01,-0.04 -0.016,-0.069 -0.026,-0.106c-0.01,-0.046 -0.02,-0.09 -0.04,-0.139l-0.06,-0.256c-1.301,-5.372 -3.26,-10.429 -5.754,-15.157c-0.368,-0.189 -0.787,-0.398 -1.258,-0.627c-1.036,21.588 -12.64,42.093 -31.127,56.341c3.147,13.061 4.064,26.966 0.315,40.095c27.163,-16.406 43.08,-45.209 39.039,-74.257" style="fill:#399f48;fill-rule:nonzero;"/><path d="M604.268,1791.84c-16.352,-6.242 -29.972,-17.258 -38.302,-31.682c-0.136,5.403 0.372,10.864 1.637,16.306l0,0.01c0.01,0.037 0.016,0.073 0.026,0.103l0.004,0.023l0.245,1.046c0.014,0.013 0.017,0.03 0.02,0.043l0.093,0.392c0.003,0.013 0.007,0.037 0.023,0.057l0.073,0.315c0.014,0.02 0.02,0.043 0.024,0.063l0.053,0.219c0.003,0.013 0.003,0.02 0.016,0.033l0.044,0.18l0.003,0.016c0.036,0.126 0.066,0.253 0.106,0.379l0,0.006c0.01,0.03 0.017,0.06 0.023,0.09c0,0.007 0.01,0.013 0.014,0.02c0.006,0.023 0.013,0.053 0.02,0.083l0.003,0.013c0.007,0.03 0.013,0.06 0.03,0.09l0,0.007c4.565,16.053 14.944,29.277 28.743,38.411c0.146,-8.231 2.875,-17.189 7.102,-26.223" style="fill:#cd4238;fill-rule:nonzero;"/><path d="M676.042,1728.14c-3.649,0.863 -5.804,4.927 -4.818,9.08l2.938,12.408c0.983,4.154 4.732,6.82 8.381,5.957l29.626,-10.363c3.649,-0.863 5.993,-4.15 5.239,-7.341l-2.261,-9.536c-0.753,-3.19 -4.326,-5.076 -7.975,-4.213l-31.13,4.008Z" style="fill:#414043;fill-rule:nonzero;"/><path d="M714.967,1688.83c-7.291,1.723 -11.983,8.297 -10.469,14.682l24.275,102.465c1.514,6.382 8.655,10.157 15.947,8.43l22.454,-5.309c7.292,-1.726 11.983,-8.3 10.469,-14.682l-24.274,-102.465c-1.514,-6.385 -8.656,-10.157 -15.947,-8.434l-22.455,5.313Z" style="fill:#f89520;fill-rule:nonzero;"/><path d="M748.901,1663.31c-7.292,1.723 -11.977,8.297 -10.463,14.678l35.046,147.923c1.51,6.382 8.645,10.157 15.937,8.434l22.454,-5.313c7.298,-1.726 11.983,-8.297 10.472,-14.682l-35.045,-147.919c-1.514,-6.385 -8.649,-10.16 -15.947,-8.434l-22.454,5.313Z" style="fill:#4db358;fill-rule:nonzero;"/><path d="M758.514,1653.82c0.856,-0.272 1.733,-0.521 2.613,-0.731c33.554,-7.938 72.095,33.485 86.08,92.525c13.988,59.037 -1.873,113.33 -35.427,121.268c-0.88,0.206 -1.776,0.376 -2.666,0.518l-50.6,-213.58Z" style="fill:#8fd926;fill-rule:nonzero;"/><path d="M749.549,1655.22l50.832,214.563c0.834,3.51 4.758,5.585 8.769,4.639c4.014,-0.95 6.587,-4.566 5.757,-8.075l-50.836,-214.563c-0.83,-3.51 -4.754,-5.588 -8.765,-4.639c-4.014,0.95 -6.587,4.565 -5.757,8.075" style="fill:#414043;fill-rule:nonzero;"/><path d="M738.484,1783.19c-3.642,0.86 -5.986,4.147 -5.233,7.338l2.421,10.209c0.757,3.191 4.326,5.077 7.968,4.217l10.459,-2.474c3.642,-0.863 5.99,-4.15 5.233,-7.341l-2.417,-10.206c-0.757,-3.191 -4.33,-5.08 -7.972,-4.217l-10.459,2.474Z" style="fill:#fbb041;fill-rule:nonzero;"/><path d="M739.764,1784.77c-3.045,0.721 -5.01,3.47 -4.379,6.139l2.022,8.536c0.63,2.667 3.622,4.244 6.67,3.523l8.742,-2.068c3.048,-0.721 5.014,-3.47 4.383,-6.136l-2.026,-8.536c-0.63,-2.67 -3.622,-4.247 -6.667,-3.526l-8.745,2.068Z" style="fill:#f3f4f5;fill-rule:nonzero;"/><path d="M731.552,1753.94c-3.642,0.86 -5.986,4.147 -5.232,7.337l2.42,10.21c0.757,3.191 4.326,5.077 7.969,4.217l10.458,-2.474c3.643,-0.863 5.99,-4.15 5.233,-7.341l-2.417,-10.206c-0.757,-3.191 -4.33,-5.08 -7.972,-4.217l-10.459,2.474Z" style="fill:#fbb041;fill-rule:nonzero;"/><path d="M732.832,1755.52c-3.044,0.72 -5.01,3.469 -4.379,6.139l2.022,8.536c0.631,2.666 3.622,4.243 6.67,3.523l8.742,-2.069c3.048,-0.72 5.014,-3.469 4.383,-6.135l-2.025,-8.537c-0.631,-2.669 -3.623,-4.246 -6.667,-3.526l-8.746,2.069Z" style="fill:#f3f4f5;fill-rule:nonzero;"/><path d="M724.621,1724.68c-3.643,0.86 -5.987,4.147 -5.233,7.338l2.42,10.209c0.757,3.191 4.327,5.08 7.969,4.217l10.462,-2.474c3.639,-0.863 5.986,-4.15 5.229,-7.341l-2.417,-10.206c-0.757,-3.191 -4.329,-5.08 -7.972,-4.217l-10.458,2.474Z" style="fill:#fbb041;fill-rule:nonzero;"/><path d="M725.901,1726.26c-3.045,0.72 -5.014,3.469 -4.379,6.139l2.022,8.536c0.63,2.666 3.622,4.243 6.67,3.523l8.742,-2.069c3.048,-0.72 5.014,-3.469 4.383,-6.139l-2.026,-8.536c-0.63,-2.666 -3.622,-4.243 -6.667,-3.523l-8.745,2.069Z" style="fill:#f3f4f5;fill-rule:nonzero;"/><path d="M717.689,1695.42c-3.642,0.86 -5.986,4.147 -5.233,7.337l2.421,10.21c0.757,3.191 4.326,5.08 7.968,4.217l10.462,-2.474c3.639,-0.863 5.987,-4.15 5.23,-7.341l-2.417,-10.206c-0.757,-3.191 -4.33,-5.08 -7.972,-4.217l-10.459,2.474Z" style="fill:#fbb041;fill-rule:nonzero;"/><path d="M718.969,1697c-3.044,0.721 -5.013,3.47 -4.379,6.14l2.022,8.536c0.631,2.666 3.622,4.243 6.67,3.523l8.742,-2.069c3.048,-0.72 5.014,-3.47 4.383,-6.139l-2.025,-8.536c-0.631,-2.666 -3.623,-4.244 -6.667,-3.523l-8.746,2.068Z" style="fill:#f3f4f5;fill-rule:nonzero;"/><path d="M539.109,1546.2c-0.372,3.044 -0.794,6.753 -0.986,11c-0.219,4.243 -0.402,9.041 -0.299,14.247c0.04,2.603 0.083,5.319 0.126,8.128c0.153,2.799 0.312,5.687 0.475,8.659c0.269,5.956 0.903,12.182 1.524,18.636c0.744,6.428 1.491,13.079 2.443,19.802c1.063,6.704 2.142,13.51 3.224,20.32c1.305,6.76 2.61,13.52 3.895,20.174c1.288,6.654 2.932,13.121 4.316,19.42c1.355,6.305 2.952,12.338 4.463,18.052c1.464,5.727 2.951,11.119 4.336,16.09c1.365,4.973 2.809,9.486 4.037,13.496c1.269,4.001 2.378,7.488 3.287,10.36c1.873,5.73 3.025,8.984 3.025,8.984c0,0 -0.445,-3.426 -1.361,-9.383c-0.913,-5.956 -2.344,-14.433 -4.177,-24.57c-0.853,-5.083 -1.786,-10.584 -2.885,-16.375c-1.056,-5.8 -2.172,-11.916 -3.327,-18.241c-2.288,-12.644 -4.728,-26.127 -7.172,-39.611c-1.172,-6.746 -2.344,-13.49 -3.493,-20.13c-1.076,-6.654 -2.131,-13.198 -3.151,-19.533c-0.816,-6.362 -1.975,-12.468 -2.653,-18.308c-0.786,-5.83 -1.504,-11.342 -2.055,-16.448c-0.338,-2.55 -0.504,-5.004 -0.734,-7.335c-0.219,-2.33 -0.491,-4.545 -0.591,-6.627c-0.298,-4.17 -0.491,-7.809 -0.577,-10.82c-0.023,-3.009 -0.057,-5.383 0.043,-7.003c0.086,-1.617 0.216,-2.49 0.216,-2.49c0,0 -1.136,3.407 -1.949,9.506" style="fill:#8ac63f;fill-rule:nonzero;"/><path d="M586.939,1734.62c0.419,-7.603 0.907,-16.468 1.428,-25.971c0.282,-4.738 0.574,-9.635 0.873,-14.609c0.273,-4.973 0.641,-10.02 1.059,-15.063c0.352,-5.044 0.761,-10.084 1.275,-15.034c0.578,-4.948 0.96,-9.828 1.631,-14.523c0.66,-4.695 1.245,-9.244 2.032,-13.527c0.348,-2.148 0.786,-4.223 1.208,-6.232c0.362,-2.019 0.817,-3.948 1.282,-5.797c0.405,-1.866 0.949,-3.616 1.427,-5.296c0.429,-1.693 0.97,-3.26 1.495,-4.734c0.255,-0.741 0.508,-1.458 0.747,-2.149c0.285,-0.68 0.561,-1.331 0.826,-1.959c0.522,-1.261 0.963,-2.447 1.541,-3.436c0.525,-1.026 0.996,-1.942 1.404,-2.739c0.492,-0.764 0.91,-1.411 1.249,-1.939c0.697,-1.063 1.066,-1.63 1.066,-1.63c0,0 -0.498,0.488 -1.431,1.401c-0.469,0.461 -1.05,1.036 -1.734,1.71c-0.587,0.733 -1.268,1.577 -2.032,2.523c-0.803,0.94 -1.49,2.062 -2.294,3.274c-0.84,1.198 -1.62,2.55 -2.37,4.014c-1.624,2.902 -3.198,6.272 -4.609,10.01c-1.481,3.726 -2.875,7.816 -4.024,12.179c-1.235,4.353 -2.344,8.968 -3.231,13.762c-0.899,4.791 -1.799,9.742 -2.39,14.785c-0.618,5.04 -1.149,10.157 -1.587,15.273c-0.326,5.12 -0.598,10.23 -0.777,15.257c-0.216,5.03 -0.153,9.967 -0.14,14.742c-0.016,4.778 0.206,9.383 0.395,13.745c0.166,4.367 0.489,8.477 0.797,12.272c0.608,7.587 1.428,13.875 2.079,18.265c0.66,4.392 1.168,6.879 1.168,6.879c0,0 0.834,-10.229 1.637,-25.453" style="fill:#8ac63f;fill-rule:nonzero;"/><path d="M576.464,1721.56c-0.385,-4.576 -0.797,-9.53 -1.238,-14.769c-0.412,-5.236 -0.847,-10.761 -1.295,-16.475c-0.399,-5.714 -0.807,-11.617 -1.222,-17.617c-0.319,-6.006 -0.824,-12.092 -1.006,-18.205c-0.296,-6.099 -0.717,-12.195 -0.807,-18.211c-0.066,-3.012 -0.173,-5.993 -0.319,-8.938c-0.143,-2.945 -0.113,-5.861 -0.176,-8.729c-0.059,-5.734 -0.272,-11.276 -0.186,-16.545c0.087,-5.263 -0.126,-10.246 0.063,-14.848c0.14,-4.605 0.176,-8.832 0.206,-12.584c0.153,-3.755 0.283,-7.022 0.392,-9.718c0.183,-5.402 0.209,-8.506 0.209,-8.506c0,0 -0.74,3.051 -1.899,8.426c-0.551,2.69 -1.311,5.953 -1.959,9.715c-0.581,3.759 -1.232,8.009 -1.846,12.654c-0.734,4.641 -1.082,9.675 -1.54,15.004c-0.518,5.329 -0.817,10.947 -0.963,16.754c-0.239,5.813 -0.362,11.813 -0.233,17.896c-0.003,6.092 0.306,12.255 0.528,18.427c0.286,6.162 0.89,12.295 1.315,18.341c0.525,6.039 1.278,11.956 1.969,17.677c0.74,5.717 1.544,11.229 2.453,16.432c0.814,5.216 1.777,10.113 2.706,14.622c0.85,4.525 1.88,8.626 2.706,12.272c0.877,3.639 1.694,6.796 2.414,9.386c1.425,5.186 2.407,8.101 2.407,8.101c0,0 -1.072,-12.222 -2.679,-30.562" style="fill:#65a243;fill-rule:nonzero;"/><path d="M597.037,1737.83c0.192,-3.068 0.461,-7.45 0.786,-12.71c0.376,-5.226 0.834,-11.285 1.883,-17.663c0.256,-1.591 0.554,-3.221 0.92,-4.815c0.381,-1.729 0.763,-3.223 1.205,-4.884c0.883,-3.26 2.022,-6.517 3.446,-9.658c1.348,-3.168 2.992,-6.226 4.954,-9.028c1.986,-2.789 4.107,-5.428 6.581,-7.646c0.412,-0.425 1.311,-1.103 1.935,-1.634c0.631,-0.468 1.256,-0.933 1.873,-1.391c1.325,-0.903 2.689,-1.723 4.077,-2.434c2.793,-1.384 5.631,-2.4 8.347,-3.031c2.723,-0.588 5.303,-0.824 7.594,-0.824c2.304,-0.01 4.29,0.296 5.933,0.585c1.6,0.375 2.912,0.664 3.739,0.986c0.853,0.285 1.311,0.438 1.311,0.438c0,0 -0.388,-0.259 -1.112,-0.744c-0.721,-0.504 -1.843,-1.165 -3.393,-1.866c-1.574,-0.637 -3.556,-1.427 -6.027,-1.802c-2.45,-0.432 -5.339,-0.655 -8.509,-0.346c-3.165,0.296 -6.608,1.043 -10.031,2.411c-1.71,0.68 -3.413,1.494 -5.11,2.43c-0.84,0.508 -1.759,1.059 -2.536,1.601c-0.767,0.577 -1.358,0.936 -2.288,1.713c-3.025,2.47 -5.857,5.322 -8.135,8.516c-2.314,3.178 -4.253,6.584 -5.813,10.074c-1.498,3.513 -2.653,7.088 -3.526,10.631c-0.459,1.737 -0.804,3.639 -1.036,5.273c-0.273,1.766 -0.465,3.469 -0.615,5.159c-0.338,3.377 -0.341,6.624 -0.282,9.675c0.04,3.058 0.279,5.924 0.545,8.55c0.528,5.253 1.301,9.562 1.876,12.574c0.591,3.008 1.006,4.718 1.006,4.718c0,0 0.182,-1.773 0.402,-4.858" style="fill:#65a243;fill-rule:nonzero;"/><path d="M563.004,1758.17c-1.374,-4.22 -3.449,-10.213 -6.288,-17.275c-1.414,-3.533 -2.965,-7.358 -4.761,-11.339c-1.78,-3.987 -3.633,-8.207 -5.777,-12.477c-2.122,-4.28 -4.267,-8.729 -6.704,-13.132c-2.404,-4.419 -4.927,-8.871 -7.5,-13.307c-2.673,-4.386 -5.432,-8.729 -8.231,-12.966c-2.779,-4.246 -5.794,-8.277 -8.736,-12.165c-2.932,-3.891 -5.983,-7.53 -9.031,-10.874c-2.975,-3.39 -6.046,-6.431 -9.034,-9.107c-2.929,-2.713 -5.84,-5.03 -8.59,-6.903c-1.328,-0.976 -2.626,-1.836 -3.917,-2.533c-1.259,-0.727 -2.374,-1.425 -3.513,-1.906c-1.103,-0.508 -2.085,-0.96 -2.945,-1.351c-0.91,-0.299 -1.684,-0.555 -2.311,-0.761c-1.242,-0.398 -1.906,-0.614 -1.906,-0.614c0,0 0.588,0.345 1.683,0.986c0.538,0.319 1.202,0.714 1.983,1.176c0.72,0.531 1.55,1.142 2.48,1.822c0.956,0.631 1.879,1.498 2.912,2.391c0.514,0.441 1.052,0.903 1.61,1.384c0.524,0.512 1.066,1.043 1.627,1.591c1.129,1.086 2.311,2.244 3.45,3.572c1.175,1.289 2.443,2.61 3.642,4.101c1.238,1.451 2.507,2.975 3.732,4.618c1.275,1.607 2.593,3.267 3.861,5.037c2.613,3.483 5.166,7.291 7.853,11.199c2.692,3.905 5.216,8.098 7.938,12.272c2.67,4.203 5.283,8.529 7.846,12.889c2.626,4.323 5.206,8.676 7.666,13.005c2.487,4.32 4.934,8.573 7.302,12.687c4.704,8.271 9.094,15.99 12.859,22.607c7.513,13.265 12.822,22.05 12.822,22.05c0,0 -0.657,-2.454 -2.022,-6.677" style="fill:#8ac63f;fill-rule:nonzero;"/><path d="M565.528,1746.66c-0.511,-2.639 -1.189,-5.83 -2.025,-9.479c-0.89,-3.632 -1.797,-7.76 -3.058,-12.189c-1.176,-4.452 -2.501,-9.263 -4.098,-14.297c-1.504,-5.06 -3.243,-10.352 -5.133,-15.797c-1.935,-5.429 -3.901,-11.06 -6.119,-16.701c-2.324,-5.601 -4.515,-11.359 -7.009,-17.003c-2.556,-5.621 -5.03,-11.275 -7.749,-16.724c-2.597,-5.505 -5.386,-10.817 -8.188,-15.917c-2.726,-5.13 -5.498,-10.024 -8.337,-14.563c-2.789,-4.565 -5.346,-8.914 -8.075,-12.743c-2.616,-3.881 -5.096,-7.394 -7.291,-10.502c-2.258,-3.077 -4.396,-5.661 -6.089,-7.819c-3.434,-4.293 -5.459,-6.697 -5.459,-6.697c0,0 1.408,2.769 3.981,7.521c1.298,2.364 2.879,5.232 4.688,8.523c1.7,3.347 3.616,7.115 5.794,11.172c2.225,4.034 4.257,8.59 6.68,13.261c2.431,4.675 4.712,9.732 7.215,14.892c1.222,2.593 2.55,5.189 3.735,7.888c1.186,2.7 2.418,5.419 3.706,8.142c2.603,5.425 4.944,11.069 7.401,16.661c2.56,5.551 4.827,11.219 7.218,16.74c2.304,5.555 4.572,11.023 6.766,16.312c2.145,5.316 4.22,10.452 6.189,15.327c1.943,4.884 3.782,9.502 5.482,13.765c6.74,17.133 11.236,28.551 11.236,28.551c0,0 -0.422,-3.048 -1.461,-8.324" style="fill:#65a243;fill-rule:nonzero;"/><path d="M545.919,1749.67c-0.827,-2.952 -2.055,-7.155 -3.931,-12.092c-0.93,-2.471 -1.996,-5.14 -3.324,-7.893c-1.308,-2.759 -2.759,-5.664 -4.565,-8.536c-0.89,-1.448 -1.823,-2.885 -2.852,-4.343c-0.937,-1.358 -2.099,-2.905 -3.281,-4.256c-2.36,-2.783 -4.993,-5.469 -7.898,-7.942c-2.955,-2.427 -6.209,-4.612 -9.695,-6.422c-3.467,-1.842 -7.272,-3.134 -11.08,-3.994c-1.179,-0.282 -1.869,-0.335 -2.816,-0.511c-0.936,-0.14 -2.002,-0.223 -2.981,-0.306c-1.936,-0.079 -3.825,-0.046 -5.661,0.107c-3.672,0.302 -7.086,1.172 -10.047,2.317c-2.978,1.136 -5.465,2.626 -7.464,4.104c-2.042,1.441 -3.463,3.028 -4.589,4.303c-1.075,1.318 -1.786,2.41 -2.204,3.184c-0.432,0.757 -0.664,1.159 -0.664,1.159c0,0 0.342,-0.339 0.979,-0.976c0.598,-0.658 1.637,-1.501 2.905,-2.55c1.342,-0.99 2.982,-2.148 5.047,-3.168c2.052,-1.026 4.466,-1.962 7.165,-2.649c2.713,-0.651 5.708,-1.006 8.822,-1.013c1.56,0.017 3.148,0.143 4.735,0.359c0.757,0.136 1.527,0.272 2.301,0.411c0.79,0.196 1.902,0.399 2.46,0.595c3.201,0.883 6.278,2.301 9.3,3.911c3.001,1.633 5.84,3.636 8.46,5.867c2.676,2.178 5.149,4.588 7.391,7.112c1.138,1.285 2.141,2.453 3.26,3.831c1.033,1.265 2.035,2.59 2.972,3.898c3.778,5.239 6.896,10.459 9.562,14.971c2.636,4.562 4.834,8.36 6.371,11.023c1.574,2.663 2.53,4.167 2.53,4.167c0,0 -0.395,-1.713 -1.208,-4.668" style="fill:#65a243;fill-rule:nonzero;"/><path d="M608.43,1715.13l15.661,174.933l-35.799,8.427l-64.017,-163.551l39.521,-9.304l5.113,-1.202l39.521,-9.303Z" style="fill:#f49dc3;fill-rule:nonzero;"/><path d="M526.775,1593.66l3.978,16.893c0.76,3.227 4.399,5.16 8.091,4.29l10.273,-2.417c3.689,-0.87 6.09,-4.224 5.329,-7.451l-3.977,-16.893c-0.761,-3.227 -4.403,-5.16 -8.092,-4.293l-10.273,2.42c-3.692,0.867 -6.089,4.22 -5.329,7.451" style="fill:#cdba7e;fill-rule:nonzero;"/><path d="M539.258,1608.05c-1.859,-7.899 -1.757,-15.878 0.013,-23.521l-7.168,1.687l6.743,28.637l1.906,-0.448l-1.494,-6.355Z" style="fill:#ae9866;fill-rule:nonzero;"/><path d="M549.592,1588.88c-2.085,-4.987 -7.46,-4.234 -7.46,-4.234c5.249,1.335 7.46,4.234 7.46,4.234" style="fill:#fff;fill-rule:nonzero;"/><path d="M647.756,1565.18l3.978,16.893c0.76,3.228 4.399,5.16 8.091,4.29l10.273,-2.417c3.689,-0.87 6.086,-4.223 5.325,-7.451l-3.974,-16.893c-0.76,-3.227 -4.402,-5.16 -8.095,-4.293l-10.272,2.42c-3.689,0.867 -6.086,4.22 -5.326,7.451" style="fill:#cdba7e;fill-rule:nonzero;"/><path d="M670.292,1583.89l-6.736,-28.617l-0.2,0.036l-5.335,1.259c4.993,6.049 8.646,13.141 10.505,21.043l1.494,6.352l0.077,-0.017l0.195,-0.056Z" style="fill:#ae9866;fill-rule:nonzero;"/><path d="M670.573,1560.4c-2.085,-4.987 -7.464,-4.233 -7.464,-4.233c5.252,1.334 7.464,4.233 7.464,4.233" style="fill:#fff;fill-rule:nonzero;"/><path d="M650.454,1576.65l-1.285,-5.455c-0.132,-0.568 -0.773,-0.907 -1.424,-0.754l-94.925,22.345c-0.648,0.153 -1.069,0.744 -0.937,1.312l1.285,5.455c0.133,0.568 0.774,0.906 1.421,0.754l94.929,-22.345c0.648,-0.153 1.069,-0.744 0.936,-1.312" style="fill:#a5a8a8;fill-rule:nonzero;"/><path d="M593.261,1876.54l3.978,16.893c0.76,3.227 4.399,5.16 8.091,4.29l10.273,-2.418c3.689,-0.869 6.086,-4.22 5.326,-7.45l-3.974,-16.893c-0.761,-3.228 -4.403,-5.16 -8.092,-4.29l-10.273,2.417c-3.692,0.87 -6.089,4.223 -5.329,7.451" style="fill:#cdba7e;fill-rule:nonzero;"/><path d="M602.472,1876.59l-1.876,-7.966l-2.005,0.472l6.74,28.634l6.501,-1.531c-4.409,-5.727 -7.643,-12.325 -9.36,-19.609" style="fill:#ae9866;fill-rule:nonzero;"/><path d="M616.079,1871.76c-2.085,-4.987 -7.464,-4.237 -7.464,-4.237c5.253,1.335 7.464,4.237 7.464,4.237" style="fill:#fff;fill-rule:nonzero;"/><path d="M714.242,1848.06l3.978,16.893c0.76,3.227 4.399,5.16 8.091,4.29l10.273,-2.417c3.689,-0.87 6.086,-4.22 5.325,-7.451l-3.974,-16.893c-0.76,-3.228 -4.402,-5.16 -8.095,-4.29l-10.269,2.417c-3.692,0.87 -6.089,4.223 -5.329,7.451" style="fill:#cdba7e;fill-rule:nonzero;"/><path d="M736.779,1866.78l-6.737,-28.617l-0.176,0.033l1.873,7.965c1.716,7.285 1.763,14.633 0.371,21.728l4.473,-1.056l0.196,-0.053Z" style="fill:#ae9866;fill-rule:nonzero;"/><path d="M737.059,1843.28c-2.085,-4.987 -7.461,-4.236 -7.461,-4.236c5.25,1.335 7.461,4.236 7.461,4.236" style="fill:#fff;fill-rule:nonzero;"/><path d="M716.941,1859.53l-1.285,-5.455c-0.133,-0.568 -0.774,-0.907 -1.425,-0.754l-94.925,22.345c-0.647,0.153 -1.072,0.74 -0.936,1.308l1.281,5.459c0.136,0.564 0.777,0.906 1.425,0.753l94.925,-22.348c0.651,-0.153 1.072,-0.741 0.94,-1.308" style="fill:#a5a8a8;fill-rule:nonzero;"/><path d="M731.74,1846.16l-63.214,-268.54c-7.324,-31.107 -42.399,-49.711 -77.949,-41.344c-35.55,8.371 -58.642,40.667 -51.321,71.774l63.217,268.54c7.321,31.107 42.396,49.711 77.946,41.34c35.55,-8.367 58.642,-40.663 51.321,-71.77" style="fill:#0098c7;fill-rule:nonzero;"/><path d="M680.418,1917.93c-35.546,8.367 -70.624,-10.237 -77.945,-41.341l-63.214,-268.543c-7.325,-31.104 15.771,-63.403 51.317,-71.77l89.842,381.654Z" style="fill:#007aa3;fill-rule:nonzero;"/><path d="M723.315,1846.35l-62.28,-264.576c-6.495,-27.585 -37.595,-44.08 -69.118,-36.659c-31.522,7.421 -52.001,36.058 -45.507,63.639l62.281,264.579c6.495,27.581 37.595,44.08 69.117,36.659c31.523,-7.421 52.002,-36.058 45.507,-63.642" style="fill:#00b4e6;fill-rule:nonzero;"/><path d="M695.255,1903.16c-5.293,3.002 -11.143,5.346 -17.445,6.83c-6.338,1.491 -12.65,2.002 -18.756,1.663l-84.665,-359.664c5.312,-3.028 11.192,-5.385 17.527,-6.879c6.305,-1.481 12.587,-1.996 18.66,-1.67l84.679,359.72Z" style="fill:#fbad29;fill-rule:nonzero;"/><path d="M677.508,1910.06c-31.419,7.244 -62.344,-9.234 -68.815,-36.729l-1.743,-7.407l39.169,-9.221l12.935,54.95c6.01,0.332 12.219,-0.156 18.454,-1.593m0.601,-0.143c6.189,-1.484 11.94,-3.802 17.146,-6.757l-12.942,-54.976l39.258,-9.24l1.743,7.404c6.475,27.495 -13.855,56.039 -45.205,63.569m-0.541,0.129c-0.02,0.004 -0.036,0.007 -0.053,0.014c0.017,-0.007 0.033,-0.01 0.053,-0.014m0.485,-0.116c0.016,-0.003 0.033,-0.007 0.05,-0.01c-0.017,0.003 -0.034,0.007 -0.05,0.01m-0.409,0.1c-0.013,0.003 -0.029,0.006 -0.043,0.01c0.014,-0.004 0.03,-0.007 0.043,-0.01m0.332,-0.08c0.014,-0.003 0.027,-0.007 0.04,-0.01c-0.013,0.003 -0.026,0.007 -0.04,0.01m-0.083,0.02c0.01,-0.003 0.02,-0.007 0.03,-0.007c-0.01,0.004 -0.02,0.004 -0.03,0.007m-0.166,0.04c-0.013,0.003 -0.023,0.003 -0.033,0.006c0.01,-0.003 0.02,-0.003 0.033,-0.006" style="fill:#00a5d1;fill-rule:nonzero;"/><path d="M678.016,1909.94c0.013,-0.003 0.023,-0.007 0.036,-0.01c0.017,-0.003 0.034,-0.007 0.05,-0.013l0.004,0c6.192,-1.488 11.942,-3.805 17.149,-6.757l-12.943,-54.976l-36.194,8.519l12.936,54.95c6.01,0.332 12.219,-0.156 18.454,-1.593l0.06,-0.014c0.01,-0.003 0.023,-0.006 0.036,-0.01l0.206,-0.046l0.206,-0.05Z" style="fill:#eb9f26;fill-rule:nonzero;"/><path d="M592.032,1545.09c-0.01,0.004 -0.02,0.004 -0.033,0.007c0.013,-0.003 0.023,-0.003 0.033,-0.007m-0.229,0.053c0.01,0 0.02,-0.003 0.03,-0.006c-0.01,0.003 -0.02,0.006 -0.03,0.006m-0.093,0.024l0.04,-0.01l-0.04,0.01Zm0.412,-0.097c-0.013,0 -0.027,0.004 -0.04,0.007c0.013,-0.003 0.027,-0.007 0.04,-0.007m0.09,-0.023c-0.017,0.007 -0.034,0.01 -0.054,0.013c0.02,-0.003 0.037,-0.01 0.054,-0.013m-0.591,0.14c0.016,-0.004 0.036,-0.007 0.053,-0.014c-0.017,0.007 -0.037,0.01 -0.053,0.014m-5.08,58.436l-39.169,9.22l-0.963,-4.084c-6.471,-27.495 13.855,-56.039 45.208,-63.572c-6.222,1.497 -11.999,3.831 -17.228,6.806l12.152,51.63Zm75.455,-17.764l-39.258,9.241l-12.162,-51.653c-5.98,-0.319 -12.159,0.172 -18.361,1.6c31.419,-7.248 62.347,9.234 68.818,36.728l0.963,4.084Z" style="fill:#00a5d1;fill-rule:nonzero;"/><path d="M610.577,1543.45c-5.98,-0.319 -12.162,0.172 -18.364,1.6l-0.595,0.14c-6.222,1.497 -11.999,3.831 -17.228,6.806l12.152,51.63l18.098,-4.264l18.095,-4.259l-12.158,-51.653Z" style="fill:#eb9f26;fill-rule:nonzero;"/><path d="M658.14,1866.73c1.514,-0.355 2.487,-1.72 2.174,-3.045c-0.312,-1.321 -1.789,-2.108 -3.303,-1.749c-1.514,0.355 -2.487,1.719 -2.175,3.041c0.312,1.325 1.79,2.108 3.304,1.753" style="fill:#fff;fill-rule:nonzero;"/><path d="M660.789,1877.99c1.514,-0.355 2.487,-1.719 2.175,-3.044c-0.312,-1.322 -1.79,-2.108 -3.304,-1.75c-1.514,0.355 -2.486,1.717 -2.174,3.041c0.312,1.325 1.789,2.109 3.303,1.753" style="fill:#fff;fill-rule:nonzero;"/><path d="M676.115,1862.5c1.514,-0.355 2.487,-1.72 2.175,-3.044c-0.312,-1.322 -1.789,-2.109 -3.303,-1.75c-1.514,0.355 -2.487,1.72 -2.175,3.041c0.312,1.325 1.789,2.109 3.303,1.753" style="fill:#fff;fill-rule:nonzero;"/><path d="M678.765,1873.76c1.514,-0.355 2.486,-1.72 2.174,-3.044c-0.312,-1.322 -1.789,-2.109 -3.303,-1.75c-1.514,0.355 -2.487,1.716 -2.175,3.041c0.312,1.325 1.79,2.108 3.304,1.753" style="fill:#fff;fill-rule:nonzero;"/><path d="M590.778,1580.57c1.514,-0.356 2.487,-1.72 2.175,-3.042c-0.312,-1.325 -1.79,-2.111 -3.304,-1.753c-1.514,0.355 -2.487,1.717 -2.175,3.041c0.312,1.325 1.79,2.109 3.304,1.754" style="fill:#fff;fill-rule:nonzero;"/><path d="M593.427,1591.83c1.514,-0.355 2.487,-1.719 2.175,-3.041c-0.312,-1.325 -1.79,-2.112 -3.304,-1.753c-1.514,0.355 -2.487,1.717 -2.175,3.041c0.313,1.325 1.79,2.109 3.304,1.753" style="fill:#fff;fill-rule:nonzero;"/><path d="M608.753,1576.34c1.514,-0.355 2.487,-1.72 2.175,-3.041c-0.312,-1.325 -1.79,-2.112 -3.304,-1.754c-1.514,0.356 -2.486,1.717 -2.174,3.042c0.312,1.325 1.789,2.108 3.303,1.753" style="fill:#fff;fill-rule:nonzero;"/><path d="M611.402,1587.6c1.515,-0.355 2.487,-1.72 2.175,-3.042c-0.312,-1.324 -1.789,-2.111 -3.303,-1.753c-1.514,0.356 -2.487,1.717 -2.175,3.042c0.312,1.325 1.789,2.108 3.303,1.753" style="fill:#fff;fill-rule:nonzero;"/><path d="M646.118,1856.71l-39.168,9.22l-7.896,-33.534c0,0 6.551,-15.187 35.195,-26.114l11.869,50.428Zm75.456,-17.763l-39.262,9.243l-11.87,-50.427c30.53,-3.005 43.237,7.65 43.237,7.65l7.895,33.534Z" style="fill:#02bee3;fill-rule:nonzero;"/><path d="M670.442,1797.76c-5.528,0.545 -11.637,1.534 -18.367,3.118c-6.727,1.584 -12.64,3.426 -17.827,5.402l11.87,50.427l24.374,-5.737l11.82,-2.782l-11.87,-50.428Z" style="fill:#fdc05e;fill-rule:nonzero;"/><path d="M646.118,1856.71l36.194,-8.52l-36.194,8.52Z" style="fill:#f0b45c;fill-rule:nonzero;"/><path d="M598.409,1654.04c-30.463,2.972 -43.143,-7.659 -43.143,-7.659l-7.895,-33.535l39.172,-9.223l11.866,50.417Zm36.201,-8.496l-11.873,-50.441l39.258,-9.24l7.896,33.534c0,0 -6.564,15.217 -35.281,26.147" style="fill:#02bee3;fill-rule:nonzero;"/><path d="M634.61,1645.54l-11.873,-50.441l-36.194,8.523l11.866,50.415c5.552,-0.542 11.694,-1.534 18.458,-3.128c6.693,-1.574 12.577,-3.403 17.743,-5.369" style="fill:#fdc05e;fill-rule:nonzero;"/><path d="M615.957,1647.06l-18.182,4.28l-3.745,-15.907l18.183,-4.28l3.744,15.907Z" style="fill:#00b4e6;"/><path d="M637.879,1658.69l-18.178,4.28l-3.745,-15.907l18.178,-4.28l3.745,15.907Z" style="fill:#00b4e6;"/><path d="M623.447,1678.88l-18.182,4.28l-3.745,-15.908l18.182,-4.279l3.745,15.907Z" style="fill:#00b4e6;"/><path d="M645.372,1690.51l-18.182,4.281l-3.745,-15.907l18.182,-4.281l3.745,15.907Z" style="fill:#00b4e6;"/><path d="M630.936,1710.7l-18.182,4.28l-3.744,-15.907l18.182,-4.28l3.744,15.907Z" style="fill:#00b4e6;"/><path d="M652.861,1722.32l-18.181,4.281l-3.745,-15.907l18.181,-4.281l3.745,15.907Z" style="fill:#00b4e6;"/><path d="M638.426,1742.51l-18.182,4.28l-3.745,-15.907l18.183,-4.28l3.744,15.907Z" style="fill:#00b4e6;"/><path d="M660.351,1754.14l-18.181,4.28l-3.745,-15.907l18.181,-4.28l3.745,15.907Z" style="fill:#00b4e6;"/><path d="M645.916,1774.33l-18.182,4.28l-3.745,-15.911l18.182,-4.28l3.745,15.911Z" style="fill:#00b4e6;"/><path d="M667.838,1785.96l-18.179,4.28l-3.745,-15.907l18.179,-4.28l3.745,15.907Z" style="fill:#00b4e6;"/><path d="M653.405,1806.15l-18.182,4.28l-3.744,-15.907l18.182,-4.28l3.744,15.907Z" style="fill:#00b4e6;"/><path d="M675.328,1817.78l-18.179,4.28l-3.745,-15.907l18.178,-4.28l3.746,15.907Z" style="fill:#00b4e6;"/><path d="M405.542,1738.56l-5.777,-13.964c0,0 -3.247,-18.996 -23.521,-47.722c-7.57,-10.731 -13.818,-23.607 -14.034,-36.997c-0.292,-18.272 19.104,-39.674 31.134,-52.47c16.246,-17.282 38.295,-35.975 63.429,-35.686c43.399,0.495 35.719,50.849 35.719,50.849c0,0 -51.669,128.523 -86.95,135.99" style="fill:#1c1814;fill-rule:nonzero;"/><path d="M532.642,1877.95c-42.317,17.823 -62.474,55.797 -62.474,55.797c9.705,13.075 50.033,61.222 50.033,61.222l-79.809,-56.886l18.125,-97.319c0,0 51.507,14.506 74.125,37.186" style="fill:#68d65f;fill-rule:nonzero;"/><path d="M496.661,1607.45c0,0 5.714,20.509 9.549,23.082c3.838,2.57 12.543,21.379 12.543,21.379c0,0 8.958,3.227 6.598,8.131c-2.361,4.904 -2.165,11.521 -2.165,11.521c0,0 -0.448,8.968 2.749,11.11c3.197,2.145 5.724,14.961 1.009,21.993c-4.711,7.032 -16.285,24.298 -38.488,24.241c0,0 -9.728,6.946 -11.733,17.866c-2.002,10.921 -13.577,28.186 -25.105,28.797c-11.531,0.611 -43.352,5.229 -49.531,-0.764c-6.175,-5.993 -9.283,-24.898 -9.283,-24.898c0,0 7.391,-10.609 6.358,-24.275c0,0 19.297,-8.43 24.855,-11.192c5.558,-2.759 1.511,-6.401 -4.455,-11.325c-5.967,-4.928 -15.094,-25.872 -3.135,-27.123c11.96,-1.252 21.748,11.796 21.748,11.796c0,0 10.701,-10.432 8.586,-18.337c-2.115,-7.906 -7.434,-15.177 -8.068,-18.381c-0.631,-3.204 22.428,-4.426 21.591,-11.475c-0.833,-7.049 -13.649,-4.519 -13.41,-14.552c0.236,-10.034 37.651,-31.287 39.57,-30.002c1.919,1.285 7.448,9.625 10.217,12.408" style="fill:#f4b77f;fill-rule:nonzero;"/><path d="M470.169,1933.75c0,0 -22.046,-26.296 -40.131,-49.674c0,0 32.754,66.963 38.392,92.124c5.641,25.157 1.739,-42.45 1.739,-42.45" style="fill:#62cc56;fill-rule:nonzero;"/><path d="M488.456,1728.91c0,0 -27.717,6.966 -48.927,-11.75c0,0 10.306,24.911 38.565,24.722c0,0 5.754,-10.668 10.362,-12.972" style="fill:#eda870;fill-rule:nonzero;"/><path d="M336.422,1992.43c0,0 -3.815,82.634 0,84.543c3.815,1.906 51.487,10.17 68.653,8.898c17.162,-1.271 -68.653,-93.441 -68.653,-93.441" style="fill:#68d65f;fill-rule:nonzero;"/><path d="M799.732,1977.79l106.227,-91.074l-34.563,-146.824l-115.873,50.099l-0.803,-3.413l-203.365,80.824l27.751,117.878l220.626,-7.49Z" style="fill:#eaa765;fill-rule:nonzero;"/><path d="M757.586,1787.1l44.744,190.076l103.627,-90.463l-27.322,-120.773l-121.049,21.16Z" style="fill:#e09a5a;fill-rule:nonzero;"/><path d="M515.586,1872.89l211.25,-6.484l32.817,-82.199l-217.718,14.011l-26.349,74.672Z" style="fill:#f0b26f;fill-rule:nonzero;"/><path d="M757.586,1787.1l81.758,32.408l96.439,-74.356l-74.413,-24.527l-103.784,66.475Z" style="fill:#f0b26f;fill-rule:nonzero;"/><path d="M815.723,1872.44c12.129,32.847 -23.212,61.129 -37.303,68.138c-14.134,7.019 -44.398,14.237 -79.665,28.239c-35.311,14.011 -132.179,37.359 -148.458,40.573c-15.993,3.154 -29.616,-13.816 -30.088,-14.38l-0.006,-0.04c0,0 -40.328,-48.146 -50.033,-61.222c0,0 20.157,-37.973 62.47,-55.796c22.618,22.68 25.719,54.458 30.593,57.722c4.871,3.267 4.871,3.267 34.162,-1.816c29.317,-5.07 128.32,-17.591 134.024,-20.831c5.701,-3.241 33.412,-19.978 39.391,-28.896c5.993,-8.941 16.03,-11.641 18.74,-8.626c2.702,2.978 -14.725,28.976 -14.725,28.976c0,0 16.242,-6.01 29.277,-20.851c14.905,-16.967 11.621,-11.19 11.621,-11.19" style="fill:#f4b77f;fill-rule:nonzero;"/><path d="M235.665,1138.28c17.919,14.104 35.842,28.208 53.761,42.313c48.774,38.385 97.545,76.77 146.319,115.159c72.146,56.779 144.291,113.561 216.436,170.341c88.033,69.286 176.069,138.573 264.105,207.859c96.442,75.904 192.885,151.811 289.328,227.715c97.372,76.634 194.741,153.269 292.11,229.899c90.815,71.478 181.634,142.953 272.449,214.428c77.075,60.66 154.151,121.324 231.23,181.985c55.149,43.405 110.298,86.81 165.447,130.216c26.117,20.555 52.208,41.147 78.355,61.667c1.118,0.876 2.234,1.759 3.353,2.639c21.113,16.618 49.827,20.602 70.432,0c17.275,-17.278 21.253,-53.705 0,-70.432c-17.919,-14.104 -35.842,-28.209 -53.761,-42.313c-48.774,-38.385 -97.548,-76.774 -146.319,-115.159l-216.436,-170.344c-88.036,-69.287 -176.069,-138.573 -264.105,-207.86c-96.442,-75.904 -192.885,-151.808 -289.328,-227.711c-97.372,-76.635 -194.741,-153.269 -292.11,-229.903c-90.819,-71.475 -181.634,-142.949 -272.449,-214.424c-77.075,-60.664 -154.151,-121.324 -231.23,-181.988c-55.149,-43.406 -110.298,-86.811 -165.447,-130.216c-26.121,-20.553 -52.208,-41.148 -78.355,-61.664c-1.118,-0.88 -2.234,-1.76 -3.353,-2.639c-21.117,-16.621 -49.827,-20.606 -70.432,0c-17.275,17.275 -21.253,53.704 0,70.432" style="fill:#f43306;fill-rule:nonzero;"/><path d="M2248.56,1067.84c-17.919,14.104 -35.842,28.209 -53.761,42.313c-48.774,38.385 -97.545,76.77 -146.319,115.159c-72.146,56.779 -144.291,113.562 -216.436,170.341c-88.036,69.287 -176.069,138.573 -264.105,207.86c-96.442,75.903 -192.885,151.811 -289.328,227.714c-97.372,76.635 -194.741,153.269 -292.11,229.9c-90.819,71.478 -181.634,142.952 -272.449,214.427c-77.075,60.66 -154.151,121.324 -231.23,181.985c-55.149,43.405 -110.298,86.811 -165.448,130.216c-26.043,20.499 -53.127,40.158 -78.354,61.667c-1.079,0.919 -2.237,1.76 -3.353,2.639c-21.153,16.648 -17.431,53.001 0,70.432c20.891,20.888 49.226,16.691 70.432,0c17.923,-14.104 35.842,-28.208 53.761,-42.313c48.774,-38.385 97.549,-76.77 146.323,-115.158l216.432,-170.342c88.036,-69.286 176.072,-138.573 264.105,-207.859c96.442,-75.904 192.888,-151.811 289.331,-227.715c97.369,-76.634 194.738,-153.268 292.111,-229.899c90.815,-71.478 181.63,-142.953 272.445,-214.427c77.079,-60.664 154.155,-121.325 231.23,-181.986c55.149,-43.405 110.302,-86.81 165.451,-130.216c26.044,-20.499 53.127,-40.158 78.351,-61.666c1.082,-0.92 2.237,-1.76 3.353,-2.64c21.157,-16.648 17.435,-53.001 0,-70.432c-20.888,-20.891 -49.222,-16.691 -70.432,0" style="fill:#f43306;fill-rule:nonzero;"/><defs><linearGradient id="_Linear1" x1="0" y1="0" x2="1" y2="0" gradientUnits="userSpaceOnUse" gradientTransform="matrix(-340.292,-156.576,-156.576,340.292,853.972,1744.79)"><stop offset="0" style="stop-color:#d8b699;stop-opacity:1"/><stop offset="1" style="stop-color:#c09c80;stop-opacity:1"/></linearGradient><linearGradient id="_Linear2" x1="0" y1="0" x2="1" y2="0" gradientUnits="userSpaceOnUse" gradientTransform="matrix(-288.187,-132.601,-132.601,288.187,838.083,1737.48)"><stop offset="0" style="stop-color:#fff;stop-opacity:1"/><stop offset="0.9" style="stop-color:#f3f1f2;stop-opacity:1"/><stop offset="1" style="stop-color:#e7e4e4;stop-opacity:1"/></linearGradient></defs></svg>